SplineFontDB: 3.2
FontName: marginchilanka
FullName: marginchilanka
FamilyName: marginchilanka
Weight: Normal
Copyright: Copyright \\(c\\) 2020 by Dharmas Std. All rights reserved.
Version: 001.001
ItalicAngle: 0
UnderlinePosition: -100
UnderlineWidth: 50
Ascent: 750
Descent: 250
InvalidEm: 0
sfntRevision: 0x00010000
LayerCount: 2
Layer: 0 0 "Back" 1
Layer: 1 0 "Fore" 0
XUID: [1021 49 -2121506697 4644813]
StyleMap: 0x0040
FSType: 0
OS2Version: 3
OS2_WeightWidthSlopeOnly: 0
OS2_UseTypoMetrics: 0
CreationTime: 1595217206
ModificationTime: 1711514439
PfmFamily: 81
TTFWeight: 400
TTFWidth: 5
LineGap: -25
VLineGap: 0
Panose: 0 0 0 0 0 0 0 0 0 0
OS2TypoAscent: 750
OS2TypoAOffset: 0
OS2TypoDescent: -250
OS2TypoDOffset: 0
OS2TypoLinegap: -25
OS2WinAscent: 787
OS2WinAOffset: 0
OS2WinDescent: 213
OS2WinDOffset: 0
HheadAscent: 762
HheadAOffset: 0
HheadDescent: -213
HheadDOffset: 0
OS2SubXSize: 650
OS2SubYSize: 600
OS2SubXOff: 0
OS2SubYOff: 75
OS2SupXSize: 650
OS2SupYSize: 600
OS2SupXOff: 0
OS2SupYOff: 350
OS2StrikeYSize: 50
OS2StrikeYPos: 316
OS2CapHeight: 733
OS2XHeight: 527
OS2Vendor: 'pyrs'
OS2CodePages: 00000001.00000000
OS2UnicodeRanges: 00000001.10000000.00000000.00000000
Lookup: 4 0 1 "'liga' Standard Ligatures lookup 0" { "'liga' Standard Ligatures lookup 0 subtable"  } ['liga' ('DFLT' <'dflt' > ) ]
Lookup: 3 0 0 "Chilanka-Regular-'aalt' Access All Alternates lookup 0" { "Chilanka-Regular-'aalt' Access All Alternates lookup 0 subtable"  } ['aalt' ('DFLT' <'dflt' > 'mlm2' <'dflt' > 'mlym' <'dflt' > ) ]
Lookup: 6 0 0 "Chilanka-Regular-'pref' Pre Base Forms in Malay+AQEA-lam2 lookup 1" { "Chilanka-Regular-'pref' Pre Base Forms in Malay+AQEA-lam2 lookup 1 contextual 0"  "Chilanka-Regular-'pref' Pre Base Forms in Malay+AQEA-lam2 lookup 1 contextual 1"  } ['pref' ('mlm2' <'dflt' > ) ]
Lookup: 4 0 0 "Chilanka-Regular-Ligature Substitution lookup 2" { "Chilanka-Regular-Ligature Substitution lookup 2 subtable"  } []

StartChar: e
Encoding: 101 101 4
Width: 379
GlyphClass: 1
Flags: MW
HStem: 44 98 352 39<173 198.5>
VStem: 0 148<236.5 263.5 236.5 265> 204 139
LayerCount: 2
Fore
SplineSet
342 201 m 0
 357 218 372 207 370 190 c 2
 368 180 l 2
 350 102 275 44 186 44 c 0
 84 44 0 122 0 217 c 0
 0 313 84 391 186 391 c 0
 253 391 313 365 337 318 c 0
 367 258 281 179 206 179 c 0
 189 179 171 181 158 187 c 1
 188 120 278 129 342 201 c 0
186 352 m 0
 160 352 148 285 148 242 c 0
 148 231 149 222 151 213 c 1
 152 215 154 216 157 217 c 0
 217 254 211 352 186 352 c 0
EndSplineSet
Validated: 33
EndChar

StartChar: f
Encoding: 102 102 5
Width: 310
GlyphClass: 1
Flags: MW
HStem: 284 53<25.5 46 31 46 31 52 210 278 278 283.5> 509 37
VStem: 42 130 52 153<284 284> 248 50
LayerCount: 2
Fore
SplineSet
398 448 m 0xe8
 423 356 219 340 251 436 c 0
 268 485 238 520 203 506 c 0
 157 489 164 360 210 337 c 1xe8
 278 337 l 2
 289 337 298 328 298 317 c 2
 298 284 l 1
 205 284 l 1
 202 227 201 141 223 113 c 0
 233 101 250 97 248 79 c 0
 243 49 167 44 128 44 c 0
 89 44 4 49 0 79 c 0
 -2 95 18 97 29 111 c 0
 50 138 55 223 52 284 c 1
 31 284 l 2
 20 284 12 293 12 303 c 2
 12 317 l 2
 12 328 20 337 31 337 c 2xd8
 46 337 l 1
 19 458 118 546 221 546 c 2
 222 546 l 2
 306 546 379 514 398 448 c 0xe8
EndSplineSet
Validated: 33
EndChar

StartChar: g
Encoding: 103 103 6
Width: 469
GlyphClass: 1
Flags: MW
HStem: -159 47<195.5 259.5 195.5 367> -3 11 106 37<217 234 210 283> 350 41<210 231.5 161 234> 369 96
VStem: 0 178<222.5 275.5 218 287.5> 44 85 266 178<218 273.5 209 275.5> 306 172
LayerCount: 2
Fore
SplineSet
363 112 m 0xf280
 521 112 568 -159 166 -159 c 0
 93 -159 -6 -149 -52 -111 c 0
 -153 -28 14 61 61 -13 c 0
 110 -90 174 -112 217 -112 c 0
 302 -112 326 -23 290 -7 c 0
 256 9 232 -29 150 -23 c 0xf280
 11 -14 21 100 105 127 c 1
 42 153 0 197 0 248 c 0
 0 327 100 391 222 391 c 0xf5
 241 391 259 389 276 387 c 1
 299 427 369 469 422 465 c 0
 520 457 473 351 420 365 c 0
 396 370 366 373 341 369 c 1
 403 344 444 299 444 248 c 0xeb
 444 170 344 106 222 106 c 0
 212 106 201 106 191 107 c 1
 138 86 105 16 151 8 c 0
 221 -5 268 112 363 112 c 0xf280
222 350 m 0xf5
 198 350 178 304 178 247 c 0
 178 189 198 143 222 143 c 0
 246 143 266 189 266 247 c 0
 266 304 246 350 222 350 c 0xf5
EndSplineSet
Validated: 33
EndChar

StartChar: h
Encoding: 104 104 7
Width: 503
GlyphClass: 1
Flags: MW
HStem: 336 55 526 20G
VStem: 40 152 291 151
LayerCount: 2
Fore
SplineSet
293 391 m 0
 450 391 429 146 472 107 c 0
 483 97 498 93 496 79 c 0
 492 49 441 44 402 44 c 0
 363 44 291 60 291 142 c 2
 291 280 l 2
 291 405 183 300 196 178 c 0
 199 142 206 115 217 104 c 0
 226 94 238 91 236 79 c 0
 232 49 155 44 116 44 c 0
 77 44 4 49 0 79 c 0
 -2 92 9 97 18 106 c 0
 39 125 40 206 40 263 c 0
 40 328 43 379 22 406 c 0
 12 420 -2 427 0 443 c 0
 4 473 56 493 91 511 c 0
 126 529 221 578 206 513 c 0
 203 499 194 401 192 305 c 1
 212 364 261 391 293 391 c 0
EndSplineSet
Validated: 33
EndChar

StartChar: i
Encoding: 105 105 8
Width: 241
GlyphClass: 1
Flags: MW
HStem: 44 347<96.5 124.5 83.5 135.5> 371 20G<83.5 124.5> 391 148<83.5 124.5>
VStem: 30 148<444.5 485.5> 36 156
LayerCount: 2
Fore
SplineSet
104 391 m 0x30
 63 391 30 424 30 465 c 0
 30 506 63 539 104 539 c 0
 145 539 178 506 178 465 c 0
 178 424 145 391 104 391 c 0x30
206 359 m 0x48
 200 330 171 152 217 104 c 0
 226 94 238 91 236 79 c 0
 232 49 155 44 116 44 c 0
 77 44 4 49 0 79 c 0
 -2 92 9 97 18 106 c 0x88
 39 125 43 225 22 252 c 0
 12 265 -2 273 0 288 c 0
 4 318 56 339 91 357 c 0
 126 374 221 423 206 359 c 0x48
EndSplineSet
Validated: 33
EndChar

StartChar: j
Encoding: 106 106 9
Width: 235
GlyphClass: 1
Flags: MW
HStem: -159 39 371 20G<92.5 133> 391 148<92.5 133>
VStem: 38 149<444.5 485.5> 43 156
LayerCount: 2
Fore
SplineSet
113 391 m 0xb0
 72 391 38 424 38 465 c 0
 38 506 72 539 113 539 c 0
 153 539 187 506 187 465 c 0
 187 424 153 391 113 391 c 0xb0
215 359 m 0xc8
 208 330 192 153 202 51 c 0
 216 -83 101 -159 -22 -159 c 0
 -115 -159 -210 -126 -225 -59 c 0
 -253 67 1 39 -52 -53 c 0
 -76 -93 -45 -135 -14 -116 c 0
 19 -95 38 -8 43 76 c 0
 50 192 32 239 22 252 c 0
 12 265 -2 273 0 288 c 0
 4 318 68 339 103 357 c 0
 137 374 229 423 215 359 c 0xc8
EndSplineSet
Validated: 33
EndChar

StartChar: k
Encoding: 107 107 10
Width: 503
GlyphClass: 1
Flags: MW
HStem: 371 20G<364.5 384.5> 526 20G
VStem: 40 152<260 260 260 295.5>
LayerCount: 2
Fore
SplineSet
292 284 m 1
 412 301 434 137 471 107 c 0
 483 97 497 93 495 79 c 0
 491 49 441 44 402 44 c 0
 362 44 287 60 287 142 c 0
 287 174 262 214 223 209 c 0
 214 208 191 204 197 169 c 0
 202 138 207 114 217 104 c 0
 226 94 238 91 236 79 c 0
 232 49 155 44 116 44 c 0
 77 44 4 49 0 79 c 0
 -2 92 9 97 18 106 c 0
 39 125 40 206 40 263 c 0
 40 328 43 379 22 406 c 0
 12 420 -2 427 0 443 c 0
 4 473 56 493 91 511 c 0
 126 529 221 578 206 513 c 0
 203 496 191 369 192 260 c 1
 303 342 l 2
 315 353 300 368 308 377 c 0
 319 390 356 391 373 391 c 0
 396 391 449 387 435 373 c 0
 420 357 386 352 357 331 c 2
 292 284 l 1
EndSplineSet
Validated: 33
EndChar

StartChar: l
Encoding: 108 108 11
Width: 241
GlyphClass: 1
Flags: MW
HStem: 526 20G
VStem: 40 152
LayerCount: 2
Fore
SplineSet
206 513 m 0
 200 485 171 152 217 104 c 0
 226 94 238 91 236 79 c 0
 232 49 155 44 116 44 c 0
 77 44 4 49 0 79 c 0
 -2 92 9 97 18 106 c 0
 39 125 40 206 40 263 c 0
 40 328 43 379 22 406 c 0
 12 420 -2 427 0 443 c 0
 4 473 56 493 91 511 c 0
 126 529 221 578 206 513 c 0
EndSplineSet
Validated: 33
EndChar

StartChar: m
Encoding: 109 109 12
Width: 697
GlyphClass: 1
Flags: MW
HStem: 323 68
VStem: 36 156 256 156<142 200 121 280 121 334> 471 154
LayerCount: 2
Fore
SplineSet
506 391 m 0
 648 391 601 179 669 104 c 0
 677 94 690 91 688 79 c 0
 684 49 626 44 587 44 c 0
 548 44 471 60 471 142 c 2
 471 280 l 2
 471 378 412 288 412 200 c 2
 412 142 l 2
 412 100 457 104 454 79 c 0
 450 49 391 44 352 44 c 0
 313 44 256 60 256 142 c 2
 256 280 l 2
 256 388 187 268 192 188 c 0
 195 153 201 120 217 104 c 0
 226 94 238 91 236 79 c 0
 232 49 155 44 116 44 c 0
 77 44 4 49 0 79 c 0
 -2 92 9 97 18 106 c 0
 39 125 43 225 22 252 c 0
 12 265 -2 273 0 288 c 0
 4 318 56 339 91 357 c 0
 126 374 221 423 206 359 c 1
 199 315 l 1
 216 357 247 391 291 391 c 0
 351 391 391 345 405 282 c 1
 405 284 l 1
 417 340 452 391 506 391 c 0
EndSplineSet
Validated: 33
EndChar

StartChar: n
Encoding: 110 110 13
Width: 500
GlyphClass: 1
Flags: MW
HStem: 335 56
VStem: 36 156 282 156
LayerCount: 2
Fore
SplineSet
291 391 m 0
 440 391 424 153 472 104 c 0
 481 95 493 91 491 79 c 0
 487 49 429 44 390 44 c 0
 351 44 282 60 282 142 c 2
 282 280 l 2
 282 404 191 293 192 209 c 0
 192 165 198 124 217 104 c 0
 226 94 238 91 236 79 c 0
 232 49 155 44 116 44 c 0
 77 44 4 49 0 79 c 0
 -2 92 9 97 18 106 c 0
 39 125 43 225 22 252 c 0
 12 265 -2 273 0 288 c 0
 4 318 56 339 91 357 c 0
 126 374 221 423 206 359 c 1
 201 329 l 1
 225 372 264 391 291 391 c 0
EndSplineSet
Validated: 33
EndChar

StartChar: o
Encoding: 111 111 14
Width: 382
GlyphClass: 1
Flags: MW
HStem: 44 36<174.5 197.5 174.5 237.5> 349 42<174.5 197.5>
VStem: 0 145<178 252 178 265> 228 145<178 252>
LayerCount: 2
Fore
SplineSet
186 391 m 0
 289 391 373 313 373 217 c 0
 373 121 289 44 186 44 c 0
 83 44 0 121 0 217 c 0
 0 313 83 391 186 391 c 0
186 80 m 0
 209 80 228 141 228 215 c 0
 228 289 209 349 186 349 c 0
 163 349 145 289 145 215 c 0
 145 141 163 80 186 80 c 0
EndSplineSet
Validated: 1
EndChar

StartChar: p
Encoding: 112 112 15
Width: 443
GlyphClass: 1
Flags: MW
HStem: 343 48<227 325>
VStem: 40 152<113.5 141> 291 142
LayerCount: 2
Fore
SplineSet
284 391 m 0
 366 391 433 313 433 217 c 0
 433 122 356 44 273 44 c 0
 224 44 200 56 193 61 c 1
 196 8 202 -35 217 -51 c 0
 226 -60 238 -63 236 -76 c 0
 232 -106 155 -111 116 -111 c 0
 77 -111 4 -106 0 -76 c 0
 -2 -62 9 -58 18 -49 c 0
 39 -30 40 51 40 109 c 0
 40 173 43 225 22 252 c 0
 12 265 -2 273 0 288 c 0
 4 318 56 339 91 357 c 0
 124 373 212 419 208 367 c 1
 230 382 256 391 284 391 c 0
230 91 m 0
 324 134 296 343 237 343 c 0
 217 343 201 317 200 297 c 0
 195 253 192 199 192 132 c 0
 192 95 220 86 230 91 c 0
EndSplineSet
Validated: 33
EndChar

StartChar: q
Encoding: 113 113 16
Width: 454
GlyphClass: 1
Flags: MW
HStem: 343 48
VStem: 0 143 243 152<118 155>
LayerCount: 2
Fore
SplineSet
395 135 m 0
 395 71 400 32 420 5 c 0
 431 -9 444 -17 442 -32 c 0
 438 -62 386 -83 351 -100 c 0
 317 -118 214 -167 228 -103 c 0
 231 -88 240 -24 242 63 c 1
 239 60 216 44 160 44 c 0
 77 44 0 122 0 217 c 0
 0 313 67 391 150 391 c 0
 178 391 204 382 227 366 c 1
 222 419 318 373 351 357 c 0
 386 339 438 318 442 288 c 0
 444 273 431 265 420 252 c 0
 400 225 395 200 395 135 c 0
203 91 m 0
 214 86 242 87 243 118 c 0
 243 192 239 258 234 306 c 0
 232 321 226 328 221 332 c 0
 147 398 98 140 203 91 c 0
EndSplineSet
Validated: 33
EndChar

StartChar: r
Encoding: 114 114 17
Width: 408
GlyphClass: 1
Flags: MW
HStem: 321 70<220 322.5>
VStem: 36 156
LayerCount: 2
Fore
SplineSet
395 346 m 0
 427 302 336 198 284 274 c 0
 268 296 252 321 225 321 c 0
 215 321 198 314 195 280 c 0
 190 216 188 134 217 104 c 0
 226 94 238 91 236 79 c 0
 232 49 155 44 116 44 c 0
 77 44 4 49 0 79 c 0
 -2 92 9 97 18 106 c 0
 39 125 43 225 22 252 c 0
 12 265 -2 273 0 288 c 0
 4 318 56 339 91 357 c 0
 126 374 221 423 206 359 c 0
 206 356 205 352 204 346 c 1
 227 372 264 391 298 391 c 0
 347 391 379 368 395 346 c 0
EndSplineSet
Validated: 33
EndChar

StartChar: s
Encoding: 115 115 18
Width: 371
GlyphClass: 1
Flags: MW
HStem: 44 27 363 28
VStem: 1 145 213 145
LayerCount: 2
Fore
SplineSet
354 325 m 0
 391 252 203 242 213 324 c 0
 220 375 167 372 159 341 c 0
 140 260 340 238 354 152 c 0
 363 99 280 44 183 44 c 2
 181 44 l 2
 110 44 28 64 5 110 c 0
 -32 183 156 193 146 111 c 0
 139 59 190 63 200 94 c 0
 224 173 15 184 5 279 c 0
 -3 349 77 391 176 391 c 2
 178 391 l 2
 248 391 331 371 354 325 c 0
EndSplineSet
Validated: 33
EndChar

StartChar: t
Encoding: 116 116 19
Width: 317
GlyphClass: 1
Flags: MW
HStem: 284 53<217 287 287 292.5 217 307 213 287>
VStem: 42 171<134 284 284 284>
LayerCount: 2
Fore
SplineSet
287 337 m 2
 298 337 307 328 307 317 c 2
 307 284 l 1
 213 284 l 1
 210 207 214 130 242 112 c 0
 255 104 271 112 276 103 c 0
 289 74 225 44 152 44 c 0
 89 44 42 72 42 134 c 2
 42 284 l 1
 19 284 l 2
 9 284 0 293 0 303 c 2
 0 317 l 2
 0 328 9 333 19 337 c 0
 77 359 145 495 201 495 c 0
 214 495 235 495 230 454 c 0
 230 453 222 401 217 337 c 1
 287 337 l 2
EndSplineSet
Validated: 33
EndChar

StartChar: u
Encoding: 117 117 20
Width: 478
GlyphClass: 1
Flags: MW
HStem: 44 39<167 245 197 245> 371 20G
VStem: 42 147 281 147
LayerCount: 2
Fore
SplineSet
453 104 m 0
 461 94 474 91 472 79 c 0
 468 49 429 44 390 44 c 0
 345 44 313 71 292 71 c 0
 272 71 257 52 222 46 c 0
 217 44 211 44 201 44 c 2
 197 44 l 2
 137 44 47 74 42 148 c 1
 42 153 l 2
 42 182 43 225 22 252 c 0
 12 265 -1 272 0 286 c 2
 0 290 l 1
 6 319 57 339 91 357 c 0
 126 374 220 423 206 359 c 0
 200 330 164 151 217 90 c 0
 224 85 231 83 239 83 c 0
 251 83 262 93 271 108 c 0
 278 120 281 146 281 174 c 2
 281 181 l 2
 279 217 266 241 258 252 c 0
 248 265 234 273 236 288 c 0
 240 318 292 339 327 357 c 0
 361 374 456 423 442 359 c 0
 436 330 407 152 453 104 c 0
EndSplineSet
Validated: 33
EndChar

StartChar: v
Encoding: 118 118 21
Width: 500
GlyphClass: 1
Flags: MW
HStem: 371 20G<86.5 125.5 411 447.5>
VStem: 0 493
LayerCount: 2
Fore
SplineSet
429 391 m 0
 466 391 503 377 491 358 c 0
 485 350 476 343 463 335 c 0
 416 303 377 179 308 103 c 0
 278 70 241 44 205 44 c 0
 181 44 158 58 152 92 c 0
 133 194 66 304 30 331 c 0
 17 340 4 344 1 356 c 0
 -8 386 67 391 106 391 c 0
 145 391 228 386 244 356 c 0
 252 343 243 338 237 329 c 0
 225 310 279 213 286 158 c 1
 331 230 351 309 338 335 c 0
 334 343 332 350 335 358 c 0
 342 377 393 391 429 391 c 0
EndSplineSet
Validated: 33
EndChar

StartChar: w
Encoding: 119 119 22
Width: 748
GlyphClass: 1
Flags: MW
HStem: 371 20G<85.5 124.5 331.5 371 656.5 693>
VStem: 336 158
LayerCount: 2
Fore
SplineSet
675 391 m 0
 711 391 749 377 737 358 c 0
 733 350 723 343 711 335 c 0
 665 303 632 179 566 103 c 0
 537 70 501 44 465 44 c 0
 441 44 417 58 410 92 c 0
 402 127 391 164 380 197 c 1
 362 164 343 130 319 103 c 0
 290 70 255 44 219 44 c 0
 194 44 171 58 163 92 c 0
 140 194 68 304 31 331 c 0
 18 340 5 344 1 356 c 0
 -9 386 66 391 105 391 c 0
 144 391 227 386 244 356 c 0
 252 343 244 338 239 329 c 0
 227 310 285 213 294 158 c 1
 312 188 327 218 333 247 c 0
 344 297 326 317 306 331 c 0
 293 340 280 344 276 356 c 0
 266 386 312 391 351 391 c 0
 391 391 473 386 491 356 c 0
 499 343 491 338 485 329 c 0
 473 310 532 213 541 158 c 1
 583 230 600 309 586 335 c 0
 581 343 579 350 581 358 c 0
 587 377 638 391 675 391 c 0
EndSplineSet
Validated: 33
EndChar

StartChar: x
Encoding: 120 120 23
Width: 476
GlyphClass: 1
Flags: MW
HStem: 44 219 44 347<56.5 133 93.5 376.5> 166 225 293 98<81 133> 371 20G<93.5 133 377.5 412>
VStem: 0 469
LayerCount: 2
Fore
SplineSet
379 142 m 2x8c
 414 100 448 104 466 79 c 0
 486 49 396 44 357 44 c 0
 317 44 233 47 210 71 c 0
 186 96 241 100 207 142 c 2x44
 191 160 l 2
 186 167 181 168 175 160 c 2
 145 120 l 2x24
 125 93 174 83 167 68 c 0
 158 49 107 44 75 44 c 0
 38 44 3 56 9 72 c 0
 17 93 75 93 95 121 c 2x44
 156 203 l 1
 121 245 82 293 81 293 c 0x94
 47 334 20 331 3 356 c 0
 -18 386 74 391 113 391 c 0
 153 391 229 387 246 368 c 0
 269 342 220 334 254 293 c 2
 274 269 l 2
 280 262 284 261 290 269 c 2
 323 314 l 2
 344 342 295 351 302 367 c 0
 310 385 361 391 394 391 c 0
 430 391 466 378 460 362 c 0
 452 341 394 341 374 314 c 2
 309 226 l 1
 343 186 379 142 379 142 c 2x8c
EndSplineSet
Validated: 33
EndChar

StartChar: y
Encoding: 121 121 24
Width: 544
GlyphClass: 1
Flags: MW
HStem: -159 78 -159 186 371 20G<109.5 152.5 448.5 483>
VStem: -34 570
LayerCount: 2
Fore
SplineSet
465 391 m 0xb0
 501 391 545 377 534 358 c 0
 518 334 468 331 456 307 c 2
 256 -66 l 1
 221 -122 176 -159 105 -159 c 0xb0
 35 -159 -30 -120 -34 -68 c 0x70
 -40 14 115 68 131 -13 c 0
 137 -48 161 -101 194 -74 c 0
 220 -52 249 0 211 34 c 0
 138 101 142 239 62 303 c 0
 40 321 9 331 0 356 c 0
 -10 386 88 391 131 391 c 0
 174 391 277 387 289 356 c 0
 300 328 255 346 266 293 c 0
 266 291 287 220 312 169 c 0
 317 160 325 160 330 169 c 2
 405 308 l 2
 418 331 369 344 379 362 c 0
 392 385 432 391 465 391 c 0xb0
EndSplineSet
Validated: 33
EndChar

StartChar: z
Encoding: 122 122 25
Width: 444
GlyphClass: 1
Flags: MW
HStem: 44 39<209.5 244.5 209.5 314> 352 39<193.5 228.5>
VStem: 0 438<119 316> 17 191 230 191
LayerCount: 2
Fore
SplineSet
309 159 m 0xd0
 331 214 438 195 438 145 c 0
 438 93 372 44 314 44 c 2
 75 44 l 2
 12 44 8 80 25 99 c 0xd0
 46 122 205 301 205 301 c 2
 227 324 246 352 211 352 c 0
 176 352 148 324 129 276 c 0
 107 221 0 240 0 290 c 0
 0 342 66 391 124 391 c 2
 363 391 l 2
 426 391 430 355 413 335 c 0xc8
 392 312 232 134 232 134 c 2
 211 111 192 83 227 83 c 0
 262 83 290 111 309 159 c 0xd0
EndSplineSet
Validated: 33
EndChar

StartChar: A
Encoding: 65 65 26
Width: 642
GlyphClass: 1
Flags: MW
HStem: 224 47<185.5 282 235 282 282 301.5 235 309> 431 115
VStem: 2 634
LayerCount: 2
Fore
SplineSet
562 156 m 0
 585 118 629 104 635 79 c 0
 644 49 557 44 518 44 c 0
 479 44 380 49 364 79 c 0
 355 94 374 100 377 117 c 0
 379 130 376 153 368 181 c 0
 365 194 345 224 309 224 c 2
 213 224 l 2
 158 224 162 182 166 167 c 0
 177 117 229 104 216 77 c 0
 206 54 139 44 102 44 c 0
 58 44 -5 54 3 82 c 0
 11 113 64 108 108 209 c 2
 214 472 l 2
 228 505 258 546 300 546 c 2
 338 546 l 2
 384 546 412 511 428 467 c 0
 457 384 510 245 562 156 c 0
282 271 m 2
 321 271 332 286 318 324 c 0
 303 365 284 401 272 423 c 0
 266 434 254 434 248 420 c 2
 248 420 216 345 208 320 c 0
 196 283 200 271 235 271 c 2
 282 271 l 2
EndSplineSet
Validated: 33
EndChar

StartChar: B
Encoding: 66 66 27
Width: 514
GlyphClass: 1
Flags: MW
HStem: 44 44<246.5 283 246.5 314> 303 41 507 39<250 278>
VStem: 46 145 312 141 346 159
LayerCount: 2
Fore
SplineSet
392 333 m 1xf4
 453 311 505 265 505 195 c 0xf4
 505 101 400 44 314 44 c 2
 117 44 l 2
 56 44 0 51 0 90 c 0
 0 108 13 130 24 144 c 0
 60 187 48 411 20 451 c 0
 11 463 0 484 0 500 c 0
 0 538 56 546 117 546 c 2
 281 546 l 2
 363 546 453 507 453 426 c 0xf8
 453 381 427 351 392 333 c 1xf4
320 103 m 0
 371 146 354 344 191 296 c 1
 191 191 219 88 274 88 c 0
 292 88 304 90 320 103 c 0
274 507 m 0
 226 507 199 432 193 344 c 1xf8
 278 344 344 466 296 500 c 0
 290 505 282 507 274 507 c 0
EndSplineSet
Validated: 33
EndChar

StartChar: C
Encoding: 67 67 28
Width: 517
GlyphClass: 1
Flags: MW
HStem: 44 107 280 266 498 48
VStem: 0 169
LayerCount: 2
Fore
SplineSet
455 227 m 0xb0
 477 253 509 242 504 225 c 0
 473 121 374 44 257 44 c 0
 115 44 0 156 0 295 c 0
 0 433 115 546 257 546 c 0xb0
 356 546 446 492 485 409 c 0xd0
 544 288 276 206 301 380 c 0
 311 447 282 505 244 498 c 0
 196 490 157 391 173 279 c 0
 199 97 378 137 455 227 c 0xb0
EndSplineSet
Validated: 33
EndChar

StartChar: D
Encoding: 68 68 29
Width: 561
GlyphClass: 1
Flags: MW
HStem: 44 47<239.5 268> 498 48<239.5 268 268 296.5>
VStem: 46 155<295 295> 370 179<259 330.5>
LayerCount: 2
Fore
SplineSet
268 546 m 2
 425 546 549 433 549 295 c 0
 549 157 425 44 268 44 c 2
 117 44 l 2
 56 44 0 51 0 90 c 0
 0 106 11 126 20 138 c 0
 34 159 44 227 46 295 c 0
 44 362 34 430 20 451 c 0
 11 463 0 484 0 500 c 0
 0 538 56 546 117 546 c 2
 268 546 l 2
261 91 m 0
 332 91 370 223 370 295 c 0
 370 366 332 498 261 498 c 0
 218 498 201 425 201 295 c 0
 201 164 218 91 261 91 c 0
EndSplineSet
Validated: 1
EndChar

StartChar: E
Encoding: 69 69 30
Width: 504
GlyphClass: 1
Flags: MW
HStem: 44 47<249 294.5 249 372> 294 47<195 223 195 223 193 223> 498 48<253.5 294.5>
VStem: 46 147
LayerCount: 2
Fore
SplineSet
277 498 m 0
 230 498 203 425 195 341 c 1
 223 341 l 2
 291 341 291 393 315 396 c 0
 334 398 348 354 348 318 c 0
 348 281 334 237 315 240 c 0
 291 243 291 294 223 294 c 2
 193 294 l 1
 193 193 221 91 277 91 c 0
 312 91 347 111 367 159 c 0
 389 214 496 195 496 145 c 0
 496 93 429 44 372 44 c 2
 117 44 l 2
 56 44 0 51 0 90 c 0
 0 108 13 130 24 144 c 0
 60 187 48 411 20 451 c 0
 11 463 0 484 0 500 c 0
 0 538 56 546 117 546 c 2
 372 546 l 2
 429 546 496 497 496 444 c 0
 496 395 389 375 367 430 c 0
 347 478 312 498 277 498 c 0
EndSplineSet
Validated: 33
EndChar

StartChar: F
Encoding: 70 70 31
Width: 521
GlyphClass: 1
Flags: MW
HStem: 247 48<201 240 201 240 200 240> 498 48<268.5 319>
VStem: 46 155
LayerCount: 2
Fore
SplineSet
389 546 m 2
 446 546 512 496 512 444 c 0
 512 395 405 375 383 430 c 0
 364 478 337 498 301 498 c 0
 236 498 207 392 201 295 c 1
 240 295 l 2
 307 295 307 346 332 349 c 0
 350 352 365 308 365 271 c 0
 365 234 350 190 332 193 c 0
 307 196 307 247 240 247 c 2
 200 247 l 1
 200 198 207 158 218 144 c 0
 230 130 243 108 243 90 c 0
 243 51 187 44 126 44 c 2
 117 44 l 2
 56 44 0 51 0 90 c 0
 0 108 13 130 24 144 c 0
 60 187 48 411 20 451 c 0
 11 463 0 484 0 500 c 0
 0 538 56 546 117 546 c 2
 389 546 l 2
EndSplineSet
Validated: 33
EndChar

StartChar: G
Encoding: 71 71 32
Width: 551
GlyphClass: 1
Flags: MW
HStem: 44 53<197 335> 315 231
VStem: 0 195 330 184 342 162
LayerCount: 2
Fore
SplineSet
433 286 m 2xe8
 494 286 544 278 544 240 c 0
 544 224 533 204 525 191 c 0
 513 174 508 114 504 58 c 0
 501 13 434 24 420 41 c 0xe8
 402 61 357 57 351 55 c 0
 331 49 306 44 272 44 c 0
 122 44 0 156 0 295 c 0
 0 433 122 546 272 546 c 0
 365 546 449 504 497 438 c 0
 584 317 310 247 330 411 c 0xf0
 336 460 298 508 259 497 c 0
 200 480 185 361 201 279 c 0
 217 192 274 97 321 97 c 0
 349 97 347 164 329 191 c 0
 321 204 309 224 309 240 c 0
 309 278 359 286 418 286 c 2
 433 286 l 2xe8
EndSplineSet
Validated: 33
EndChar

StartChar: H
Encoding: 72 72 33
Width: 584
GlyphClass: 1
Flags: MW
HStem: 526 20G<117 126 126 156.5 451 459 459 489.5>
VStem: 46 152 379 151
LayerCount: 2
Fore
SplineSet
576 500 m 0
 576 484 565 463 557 451 c 0
 528 411 516 187 552 144 c 0
 563 130 576 108 576 90 c 0
 576 51 520 44 459 44 c 2
 451 44 l 2
 389 44 333 51 333 90 c 0
 333 108 346 130 358 144 c 0
 381 172 384 278 375 359 c 1
 356 328 330 306 306 286 c 0
 263 250 204 184 236 117 c 0
 240 108 243 98 243 90 c 0
 243 51 187 44 126 44 c 2
 117 44 l 2
 56 44 0 51 0 90 c 0
 0 108 13 130 24 144 c 0
 60 187 48 411 20 451 c 0
 11 463 0 484 0 500 c 0
 0 538 56 546 117 546 c 2
 126 546 l 2
 187 546 243 538 243 500 c 0
 243 484 232 463 223 451 c 0
 204 424 193 315 198 233 c 1
 218 273 248 299 276 322 c 0
 315 354 369 419 346 462 c 0
 340 474 333 488 333 500 c 0
 333 538 389 546 451 546 c 2
 459 546 l 2
 520 546 576 538 576 500 c 0
EndSplineSet
Validated: 33
EndChar

StartChar: I
Encoding: 73 73 34
Width: 252
GlyphClass: 1
Flags: MW
HStem: 526 20G<117 126 126 156.5>
VStem: 46 151
LayerCount: 2
Fore
SplineSet
243 500 m 0
 243 484 232 463 223 451 c 0
 195 411 183 187 218 144 c 0
 230 130 243 108 243 90 c 0
 243 51 187 44 126 44 c 2
 117 44 l 2
 56 44 0 51 0 90 c 0
 0 108 13 130 24 144 c 0
 60 187 48 411 20 451 c 0
 11 463 0 484 0 500 c 0
 0 538 56 546 117 546 c 2
 126 546 l 2
 187 546 243 538 243 500 c 0
EndSplineSet
Validated: 33
EndChar

StartChar: J
Encoding: 74 74 35
Width: 473
GlyphClass: 1
Flags: MW
HStem: 44 47<175.5 250 175.5 299> 526 20G<339 358 358 358>
VStem: 0 161 269 196
LayerCount: 2
Fore
SplineSet
465 511 m 0
 465 508 465 506 464 505 c 0
 465 503 465 501 465 500 c 0
 465 484 454 463 445 451 c 0
 433 434 434 381 430 317 c 0
 417 141 380 44 218 44 c 0
 77 44 -28 123 6 238 c 0
 37 340 230 286 180 198 c 0
 151 146 154 91 197 91 c 0
 303 91 269 412 242 451 c 0
 233 463 222 484 222 500 c 0
 222 538 278 546 339 546 c 2
 358 546 l 2
 383 545 407 543 425 538 c 0
 446 533 463 524 465 511 c 0
EndSplineSet
Validated: 33
EndChar

StartChar: K
Encoding: 75 75 36
Width: 567
GlyphClass: 1
Flags: MW
HStem: 317 31 526 20G<117 126 126 156.5 438.5 483>
VStem: 46 151 364 174
LayerCount: 2
Fore
SplineSet
492 197 m 0
 513 108 547 129 557 98 c 0
 570 56 496 44 457 44 c 0
 417 44 333 54 317 136 c 0
 313 156 295 249 295 249 c 2
 268 382 195 287 197 234 c 0
 200 193 206 159 218 144 c 0
 230 130 243 108 243 90 c 0
 243 51 187 44 126 44 c 2
 117 44 l 2
 56 44 0 51 0 90 c 0
 0 108 13 130 24 144 c 0
 60 187 48 411 20 451 c 0
 11 463 0 484 0 500 c 0
 0 538 56 546 117 546 c 2
 126 546 l 2
 187 546 243 538 243 500 c 0
 243 484 232 463 223 451 c 0
 214 438 207 408 202 370 c 0
 198 333 223 351 241 363 c 2
 355 459 l 2
 382 482 339 504 361 524 c 0
 381 543 420 546 457 546 c 0
 509 546 557 528 532 509 c 0
 492 478 439 477 405 449 c 2
 359 411 l 2
 349 402 337 391 324 378 c 1
 405 362 474 276 492 197 c 0
EndSplineSet
Validated: 33
EndChar

StartChar: L
Encoding: 76 76 37
Width: 501
GlyphClass: 1
Flags: MW
HStem: 44 47<222.5 302.5 222.5 372> 526 20G<117 126 126 156.5>
VStem: 46 151
LayerCount: 2
Fore
SplineSet
367 159 m 0
 389 214 496 195 496 145 c 0
 496 93 430 44 372 44 c 2
 117 44 l 2
 56 44 0 51 0 90 c 0
 0 108 13 130 24 144 c 0
 60 187 48 411 20 451 c 0
 11 463 0 484 0 500 c 0
 0 538 56 546 117 546 c 2
 126 546 l 2
 187 546 243 538 243 500 c 0
 243 484 232 463 223 451 c 0
 196 411 160 91 285 91 c 0
 320 91 348 111 367 159 c 0
EndSplineSet
Validated: 33
EndChar

StartChar: M
Encoding: 77 77 38
Width: 618
GlyphClass: 1
Flags: MW
HStem: 526 20G<78 158 158 205 484 493 493 523.5>
VStem: 54 50 208 112 411 153
LayerCount: 2
Fore
SplineSet
610 500 m 0
 610 484 599 463 590 451 c 0
 562 411 550 187 585 144 c 0
 605 120 610 108 610 90 c 0
 610 51 554 44 493 44 c 2
 484 44 l 2
 423 44 367 51 367 90 c 0
 367 108 376 125 391 144 c 0
 412 171 417 254 411 331 c 1
 411 331 327 80 257 80 c 0
 225 80 208 102 208 126 c 0
 208 231 104 352 104 352 c 1
 98 252 113 132 141 100 c 0
 149 92 155 85 156 77 c 0
 159 58 121 44 78 44 c 0
 31 44 -2 58 0 77 c 0
 1 85 8 92 16 100 c 0
 62 151 71 422 15 476 c 0
 7 484 1 492 0 500 c 0
 -2 518 16 546 78 546 c 2
 158 546 l 2
 252 546 310 375 320 245 c 1
 387 367 367 484 367 500 c 0
 367 538 423 546 484 546 c 2
 493 546 l 2
 554 546 610 538 610 500 c 0
EndSplineSet
Validated: 33
EndChar

StartChar: N
Encoding: 78 78 39
Width: 523
GlyphClass: 1
Flags: MW
HStem: 411 135 526 20G<78 154 154 252.5 421.5 458>
VStem: 53 50 415 49
LayerCount: 2
Fore
SplineSet
502 100 m 0x70
 510 92 517 85 518 77 c 0
 520 58 476 44 416 44 c 0
 162 44 164 331 111 411 c 1xb0
 92 306 107 138 141 100 c 0
 149 92 155 85 156 77 c 0
 159 58 115 44 78 44 c 0
 42 44 -2 58 0 77 c 0
 1 85 8 92 15 100 c 0
 61 151 71 435 15 489 c 0
 7 497 1 505 0 513 c 0
 -2 531 42 546 78 546 c 2
 154 546 l 2
 351 546 322 254 405 182 c 1
 423 286 418 449 377 489 c 0
 369 497 363 505 361 513 c 0
 359 531 403 546 440 546 c 0
 476 546 520 531 518 513 c 0
 517 505 511 497 502 489 c 0
 447 435 456 151 502 100 c 0x70
EndSplineSet
Validated: 33
EndChar

StartChar: O
Encoding: 79 79 40
Width: 553
GlyphClass: 1
Flags: MW
HStem: 526 20G<197 347>
VStem: 0 174 371 173
LayerCount: 2
Fore
SplineSet
272 546 m 0
 422 546 544 433 544 295 c 0
 544 156 422 44 272 44 c 0
 122 44 0 156 0 295 c 0
 0 433 122 546 272 546 c 0
312 95 m 0
 362 105 384 203 362 313 c 0
 340 423 281 504 232 494 c 0
 182 484 160 386 182 276 c 0
 204 167 263 85 312 95 c 0
EndSplineSet
Validated: 33
EndChar

StartChar: P
Encoding: 80 80 41
Width: 463
GlyphClass: 1
Flags: MW
HStem: 229 39<208 254.5 208 255 198 254.5> 507 39<208 255 255 255.5>
VStem: 46 149 311 143<360.5 414>
LayerCount: 2
Fore
SplineSet
255 546 m 2
 364 546 454 472 454 387 c 0
 454 302 364 229 255 229 c 2
 198 229 l 1
 201 185 207 158 218 144 c 0
 230 130 243 108 243 90 c 0
 243 51 187 44 126 44 c 2
 117 44 l 2
 56 44 0 51 0 90 c 0
 0 108 13 130 24 144 c 0
 60 187 48 411 20 451 c 0
 11 463 0 484 0 500 c 0
 0 538 56 546 117 546 c 2
 255 546 l 2
235 268 m 0
 274 268 311 334 311 387 c 0
 311 441 276 507 235 507 c 0
 181 507 181 268 235 268 c 0
EndSplineSet
Validated: 33
EndChar

StartChar: Q
Encoding: 81 81 42
Width: 558
GlyphClass: 1
Flags: MW
HStem: -110 140 525 20G<197 347>
VStem: 0 174 371 173
LayerCount: 2
Fore
SplineSet
539 39 m 0
 626 71 621 -66 511 -103 c 0
 414 -136 330 -53 299 45 c 1
 290 44 281 43 272 43 c 0
 122 43 0 156 0 294 c 0
 0 433 122 545 272 545 c 0
 422 545 544 433 544 294 c 0
 544 192 478 104 382 65 c 1
 422 37 482 17 539 39 c 0
182 276 m 0
 204 166 263 85 312 95 c 0
 362 105 384 203 362 312 c 0
 340 422 281 504 232 494 c 0
 182 484 160 386 182 276 c 0
EndSplineSet
Validated: 33
EndChar

StartChar: R
Encoding: 82 82 43
Width: 509
GlyphClass: 1
Flags: MW
HStem: 229 39<208 240 198 254.5> 507 39<208 255 255 255.5>
VStem: 46 149 275 184<142 150 121 172 121 189.5> 311 143<362 414>
LayerCount: 2
Fore
SplineSet
459 142 m 2xf0
 459 100 505 104 501 79 c 0
 497 49 439 44 400 44 c 0
 361 44 275 60 275 142 c 2
 275 172 l 2
 275 207 263 229 240 229 c 2
 198 229 l 1
 201 185 207 158 218 144 c 0
 230 130 243 108 243 90 c 0xf0
 243 51 187 44 126 44 c 2
 117 44 l 2
 56 44 0 51 0 90 c 0
 0 108 13 130 24 144 c 0
 60 187 48 411 20 451 c 0
 11 463 0 484 0 500 c 0
 0 538 56 546 117 546 c 2
 255 546 l 2
 364 546 454 472 454 387 c 0xe8
 454 337 423 291 375 262 c 1
 424 251 459 222 459 150 c 2
 459 142 l 2xf0
235 507 m 0xe8
 181 507 181 268 235 268 c 0
 274 268 311 334 311 387 c 0
 311 441 276 507 235 507 c 0xe8
EndSplineSet
Validated: 33
EndChar

StartChar: S
Encoding: 83 83 44
Width: 493
GlyphClass: 1
Flags: MW
HStem: 44 47 498 48
VStem: 0 488 15 186
LayerCount: 2
Fore
SplineSet
201 445 m 0xd0
 214 346 468 325 487 208 c 0
 500 120 380 44 247 44 c 2
 244 44 l 2
 146 44 35 73 6 139 c 0
 -41 245 219 267 200 148 c 0
 188 74 282 79 297 124 c 0
 335 238 24 246 15 383 c 0
 8 484 120 546 256 546 c 2
 259 546 l 2
 338 546 424 516 454 450 c 0
 497 354 299 337 277 441 c 0
 258 526 193 507 201 445 c 0xd0
EndSplineSet
Validated: 33
EndChar

StartChar: T
Encoding: 84 84 45
Width: 568
GlyphClass: 1
Flags: MW
HStem: 498 48<159 188 369.5 399.5>
VStem: 203 150
LayerCount: 2
Fore
SplineSet
558 474 m 0
 561 412 472 371 451 432 c 0
 436 478 407 498 392 498 c 0
 347 498 340 206 376 144 c 0
 385 129 400 108 400 90 c 0
 400 51 344 44 283 44 c 2
 275 44 l 2
 214 44 158 51 158 90 c 0
 158 108 174 128 182 144 c 0
 215 210 209 498 167 498 c 0
 151 498 123 478 107 432 c 0
 86 371 -3 412 0 474 c 0
 3 538 67 546 130 546 c 2
 429 546 l 2
 492 546 555 538 558 474 c 0
EndSplineSet
Validated: 33
EndChar

StartChar: U
Encoding: 85 85 46
Width: 592
GlyphClass: 1
Flags: MW
HStem: 44 54<257.5 277> 526 20G<103 125 125 155.5 452 464 464 495>
VStem: 42 160 381 152
LayerCount: 2
Fore
SplineSet
557 144 m 0
 567 129 586 112 582 86 c 0
 577 56 531 44 485 44 c 0
 435 44 382 62 379 101 c 1
 358 70 312 44 242 44 c 0
 28 44 39 263 42 355 c 0
 43 400 29 437 19 451 c 0
 10 463 0 481 0 505 c 0
 0 538 63 546 103 546 c 2
 125 546 l 2
 186 546 242 538 242 500 c 0
 242 484 230 464 223 451 c 0
 171 354 222 98 293 98 c 0
 386 98 401 382 358 451 c 0
 350 464 339 484 339 500 c 0
 339 533 381 543 433 545 c 2
 434 545 l 2
 440 545 446 546 452 546 c 2
 464 546 l 2
 526 546 582 538 582 500 c 0
 582 484 569 464 562 451 c 0
 534 395 515 209 557 144 c 0
EndSplineSet
Validated: 33
EndChar

StartChar: V
Encoding: 86 86 47
Width: 617
GlyphClass: 1
Flags: MW
HStem: 526 20G<109 117 117 148 519.5 556>
VStem: 0 607
LayerCount: 2
Fore
SplineSet
538 546 m 0
 574 546 616 531 606 513 c 0
 602 505 593 497 581 489 c 0
 522 452 447 341 429 197 c 0
 418 114 399 44 309 44 c 0
 94 44 99 396 41 451 c 0
 28 464 9 484 2 500 c 0
 -13 538 48 546 109 546 c 2
 117 546 l 2
 179 546 238 538 253 500 c 0
 259 484 256 463 253 451 c 0
 242 416 271 245 347 172 c 1
 389 403 477 448 452 489 c 0
 447 497 444 505 446 513 c 0
 451 531 501 546 538 546 c 0
EndSplineSet
Validated: 33
EndChar

StartChar: W
Encoding: 87 87 48
Width: 906
GlyphClass: 1
Flags: MW
HStem: 44 502<109 350.5 109 635> 526 20G<109 117 117 148 400 408 408 422 786 838>
VStem: 0 898
LayerCount: 2
Fore
SplineSet
811 546 m 0x60
 865 546 907 531 897 513 c 0
 892 505 884 497 872 489 c 0
 813 452 725 341 707 197 c 0
 697 114 671 44 599 44 c 0
 511 44 460 103 426 177 c 1
 415 103 392 44 309 44 c 0xa0
 94 44 99 396 41 451 c 0
 28 464 9 484 2 500 c 0
 -13 538 48 546 109 546 c 2
 117 546 l 2
 179 546 238 538 253 500 c 0
 259 484 256 463 253 451 c 0
 242 416 271 245 347 172 c 1
 352 202 360 228 365 252 c 0
 379 317 371 352 366 372 c 0
 355 409 345 438 332 451 c 0
 319 464 299 484 293 500 c 0
 278 538 338 546 400 546 c 2
 408 546 l 2
 436 546 464 544 488 538 c 0
 515 532 535 520 543 500 c 0
 548 487 548 472 545 460 c 0
 545 456 544 453 543 451 c 0
 533 416 562 245 637 172 c 1
 649 339 738 435 710 489 c 0
 706 498 702 505 704 513 c 0
 710 531 761 546 811 546 c 0x60
EndSplineSet
Validated: 33
EndChar

StartChar: X
Encoding: 88 88 49
Width: 576
GlyphClass: 1
Flags: MW
HStem: 526 20G<107 116 116 146.5 471 507.5>
VStem: 169 217 386 166
LayerCount: 2
Fore
SplineSet
557 90 m 0xc0
 584 51 533 44 472 44 c 2
 463 44 l 2
 402 44 314 51 287 90 c 0
 274 108 277 131 274 144 c 0
 271 162 251 199 224 242 c 1
 208 173 178 137 167 113 c 0
 161 99 175 94 164 77 c 0
 154 59 97 44 60 44 c 0
 24 44 -11 58 4 77 c 0
 11 85 22 92 35 100 c 0
 74 125 213 266 155 343 c 0
 117 393 82 434 59 451 c 0
 42 463 17 484 6 500 c 0
 -21 538 46 546 107 546 c 2
 116 546 l 2
 177 546 250 538 276 500 c 0
 287 484 290 463 290 451 c 0
 290 436 309 399 336 355 c 1xc0
 351 425 396 469 389 489 c 0
 386 497 385 505 389 513 c 0
 399 531 453 546 489 546 c 0
 526 546 564 531 549 513 c 0xa0
 543 505 532 497 518 489 c 0
 476 464 336 355 405 252 c 0
 438 203 472 165 495 144 c 0
 514 128 545 108 557 90 c 0xc0
EndSplineSet
Validated: 33
EndChar

StartChar: Y
Encoding: 89 89 50
Width: 583
GlyphClass: 1
Flags: MW
HStem: 526 20G<110 119 119 149.5 465 513.5>
VStem: 199 153
LayerCount: 2
Fore
SplineSet
490 546 m 0
 537 546 587 531 574 513 c 0
 569 505 559 497 546 489 c 0
 496 457 372 328 352 217 c 0
 348 195 357 164 373 144 c 0
 385 131 398 108 398 90 c 0
 398 51 342 44 281 44 c 2
 272 44 l 2
 211 44 155 51 155 90 c 0
 155 108 169 130 179 144 c 0
 257 253 87 424 52 451 c 0
 36 463 14 484 4 500 c 0
 -18 538 49 546 110 546 c 2
 119 546 l 2
 180 546 252 538 274 500 c 0
 284 484 285 463 283 451 c 0
 281 428 296 380 333 315 c 1
 351 406 399 464 387 489 c 0
 383 497 381 505 384 513 c 0
 391 531 440 546 490 546 c 0
EndSplineSet
Validated: 33
EndChar

StartChar: Z
Encoding: 90 90 51
Width: 560
GlyphClass: 1
Flags: MW
HStem: 44 47<231 334 334 351.5 231 371> 498 48<193.5 211 211 316>
VStem: 0 553
LayerCount: 2
Fore
SplineSet
453 545 m 1
 509 544 563 537 551 511 c 0
 539 486 496 489 470 448 c 0
 470 447 284 143 283 142 c 0
 274 126 254 107 231 91 c 1
 334 91 l 2
 369 91 396 111 416 159 c 0
 438 214 545 195 545 145 c 0
 545 93 476 44 371 44 c 2
 104 44 l 2
 59 44 -12 49 2 79 c 0
 14 104 57 100 82 142 c 0
 83 142 268 446 269 448 c 0
 279 464 296 482 316 498 c 1
 211 498 l 2
 176 498 148 478 129 430 c 0
 107 375 0 395 0 444 c 0
 0 496 69 546 173 546 c 2
 453 546 l 1
 453 545 l 1
EndSplineSet
Validated: 33
EndChar

StartChar: d
Encoding: 100 100 52
Width: 440
GlyphClass: 1
Flags: MW
HStem: 343 48 526 20G
VStem: 0 143 243 152<234.5 255>
LayerCount: 2
Fore
SplineSet
417 106 m 0
 426 97 436 92 435 79 c 0
 431 49 396 44 366 44 c 0
 352 44 284 55 259 55 c 0
 234 55 215 44 150 44 c 0
 76 44 0 122 0 217 c 0
 0 313 67 391 150 391 c 0
 184 391 216 377 241 355 c 1
 239 376 237 391 225 406 c 0
 215 420 201 427 203 443 c 0
 207 473 263 493 298 511 c 0
 332 529 423 578 409 513 c 0
 407 501 402 433 397 355 c 0
 395 329 395 298 395 263 c 0
 395 206 396 125 417 106 c 0
203 91 m 0
 226 80 243 112 243 221 c 0
 243 289 240 316 221 332 c 0
 147 398 98 141 203 91 c 0
EndSplineSet
Validated: 33
EndChar

StartChar: M.M1
Encoding: 57356 57356 53
Width: 844
GlyphClass: 1
Flags: MW
HStem: -78 56 496 50
VStem: 0 153 65 145 301 57 445 112 648 153
LayerCount: 2
Fore
SplineSet
827 451 m 0xde
 799 411 787 188 822 145 c 0
 843 120 847 109 847 90 c 0
 847 52 791 44 730 44 c 2
 721 44 l 2
 660 44 604 52 604 90 c 0
 604 109 613 125 629 145 c 0
 649 171 654 254 648 332 c 1
 648 332 564 81 495 81 c 0
 462 81 445 102 445 126 c 0
 445 231 346 352 346 352 c 1
 386 78 320 -31 226 -66 c 0
 126 -103 -25 -57 3 72 c 0
 20 151 159 196 153 121 c 0xee
 144 11 189 -38 227 -18 c 0
 316 28 311 227 284 408 c 0
 258 580 159 460 242 391 c 0
 281 360 226 302 156 302 c 0
 12 302 26 546 289 546 c 2
 395 546 l 2
 489 546 547 376 557 245 c 1
 624 368 604 484 604 500 c 0
 604 539 660 546 721 546 c 2
 730 546 l 2
 791 546 847 539 847 500 c 0
 847 484 836 464 827 451 c 0xde
EndSplineSet
Validated: 33
EndChar

StartChar: g.g4
Encoding: 57412 57412 54
Width: 469
GlyphClass: 1
Flags: MW
HStem: -182 54 -142 148 -3 11 106 39<217.5 233 212.5 284> 352 39<212.5 232 161.5 233.5> 369 96
VStem: 0 185<222.5 223 223 274 201.5 287.5> 44 86 261 184<223 273.5 209 274 209 295.5> 307 161
LayerCount: 2
Fore
SplineSet
364 112 m 0xb940
 455 112 544 -52 362 -154 c 0
 187 -253 29 -50 -164 -197 c 0x5940
 -258 -269 -307 -71 -188 -11 c 0
 -41 63 93 -128 218 -128 c 0
 302 -128 327 -23 291 -7 c 0
 256 9 233 -29 151 -23 c 0xb940
 11 -14 21 100 106 127 c 1
 43 153 0 197 0 248 c 0
 0 327 100 391 223 391 c 0xba80
 241 391 259 389 277 387 c 1
 300 427 369 469 422 465 c 0
 521 457 474 351 420 365 c 0
 397 370 366 373 341 369 c 1
 403 344 445 299 445 248 c 0xb580
 445 170 345 106 223 106 c 0
 212 106 202 106 191 107 c 1
 138 86 106 16 151 8 c 0
 222 -5 269 112 364 112 c 0xb940
185 274 m 2
 185 223 l 2
 185 180 202 145 223 145 c 0
 243 145 261 180 261 223 c 2
 261 274 l 2
 261 317 244 352 223 352 c 0xba80
 202 352 185 317 185 274 c 2
EndSplineSet
Validated: 33
EndChar

StartChar: r.r4
Encoding: 57418 57418 55
Width: 250
GlyphClass: 1
Flags: MW
HStem: 44 347 371 20G 429 121
VStem: 36 154
LayerCount: 2
Fore
SplineSet
537 538 m 0x70
 640 493 507 404 397 435 c 0
 336 452 208 365 195 272 c 0
 185 210 189 133 217 104 c 0
 226 94 238 91 236 79 c 0
 232 49 155 44 116 44 c 0
 77 44 4 49 0 79 c 0
 -2 92 9 97 18 106 c 0xb0
 39 125 43 225 22 252 c 0
 12 265 -2 273 0 288 c 0
 4 318 56 339 91 357 c 0
 119 371 188 406 204 384 c 1
 280 505 439 581 537 538 c 0x70
EndSplineSet
Validated: 33
EndChar

StartChar: i_n
Encoding: 57427 57427 56
Width: 741
GlyphClass: 1
Flags: MW
HStem: 335 56 553 42
VStem: 36 156 277 156 443 9 523 156
LayerCount: 2
Fore
SplineSet
713 104 m 0
 723 95 735 91 733 79 c 0
 729 49 671 44 632 44 c 0
 592 44 523 60 523 142 c 2
 523 280 l 2
 523 404 433 293 433 209 c 0
 433 165 440 124 458 104 c 0
 467 94 479 91 477 79 c 0
 473 49 397 44 358 44 c 0
 318 44 246 49 242 79 c 0
 240 92 250 97 259 106 c 0
 280 125 284 225 264 252 c 0
 253 265 240 273 242 288 c 0xfc
 244 305 260 318 281 330 c 0
 350 378 352 500 295 539 c 0
 237 579 161 529 178 467 c 0
 199 388 3 366 20 474 c 0
 31 548 133 595 221 595 c 0
 355 595 487 487 443 329 c 1
 466 372 506 391 533 391 c 0
 682 391 665 153 713 104 c 0
217 104 m 0
 226 94 238 91 236 79 c 0
 232 49 155 44 116 44 c 0
 77 44 4 49 0 79 c 0
 -2 92 9 97 18 106 c 0
 39 125 43 225 22 252 c 0
 12 265 -2 273 0 288 c 0
 4 318 56 339 91 357 c 0
 126 374 221 423 206 359 c 0
 200 330 171 152 217 104 c 0
EndSplineSet
Validated: 33
EndChar

StartChar: a
Encoding: 97 97 57
Width: 430
GlyphClass: 1
Flags: MW
HStem: 83 32 223 168 254 137
VStem: 0 150 234 144
LayerCount: 2
Fore
SplineSet
196 391 m 0xb8
 437 391 344 172 412 108 c 0
 423 97 439 93 437 79 c 0
 434 60 401 44 362 44 c 0
 309 44 271 83 242 83 c 0
 214 83 188 44 122 44 c 0
 38 44 -19 98 6 165 c 0
 27 225 113 223 178 244 c 0
 246 265 235 335 205 350 c 0
 175 364 175 309 166 285 c 0
 142 222 -24 259 60 347 c 0
 85 372 130 391 196 391 c 0xb8
150 147 m 0xd8
 154 119 187 111 211 115 c 0
 222 117 227 128 229 134 c 0
 236 170 234 198 230 216 c 0
 228 225 219 227 206 214 c 0
 184 192 145 179 150 147 c 0xd8
EndSplineSet
Validated: 33
EndChar

StartChar: b
Encoding: 98 98 58
Width: 443
GlyphClass: 1
Flags: MW
HStem: 343 48 526 20G
VStem: 40 152<234.5 255 166.5 295.5> 292 143
LayerCount: 2
Fore
SplineSet
285 391 m 0
 367 391 435 313 435 217 c 0
 435 122 358 44 285 44 c 0
 219 44 201 55 176 55 c 0
 150 55 83 44 69 44 c 0
 39 44 4 49 0 79 c 0
 -2 92 9 97 18 106 c 0
 39 125 40 206 40 263 c 0
 40 328 43 379 22 406 c 0
 12 420 -2 427 0 443 c 0
 4 473 56 493 91 511 c 0
 126 529 221 578 206 513 c 0
 204 501 197 433 194 355 c 1
 219 377 251 391 285 391 c 0
232 91 m 0
 337 141 288 398 214 332 c 0
 195 316 192 289 192 221 c 0
 192 112 208 80 232 91 c 0
EndSplineSet
Validated: 33
EndChar

StartChar: c
Encoding: 99 99 59
Width: 377
GlyphClass: 1
Flags: MW
HStem: 44 98 235 156
VStem: 0 148<180.5 263.5 180.5 265>
LayerCount: 2
Fore
SplineSet
342 201 m 0
 357 218 372 207 370 190 c 2
 368 180 l 2
 350 102 275 44 186 44 c 0
 84 44 0 122 0 217 c 0
 0 313 84 391 186 391 c 0
 256 391 323 358 349 301 c 0
 385 221 241 215 224 274 c 0
 212 316 214 359 186 352 c 0
 161 345 148 285 148 242 c 0
 148 119 264 114 342 201 c 0
EndSplineSet
Validated: 33
EndChar

StartChar: M_a_r_g_i_n
Encoding: 57344 57344 60
Width: 2743
GlyphClass: 1
Flags: MW
HStem: -182 54 -142 148 -78 190 -3 11 44 115 44 347<690.5 1171 721 1171 725 1171 935 1171 1017.5 1236.5 1017.5 1411> 44 502<721 721.5 721 725 725 730> 80 311 83 32 106 39<1737.5 1753.5 1732.5 1804> 254 137 302 89 331 60 335 211 352 39<1732.5 1752> 369 96 371 20G<1017.5 1171 1682 1752 2513.5 2601.5> 429 121 496 50 496 99
VStem: 0 153 65 145 301 57 445 112 648 153 855 150 1088 144 1275 16<79 79> 1311 155 1520 185<222.5 223 223 274 201.5 287.5> 1564 86 1781 184<223 273.5 209 274 209 295.5> 1827 161 2029 157 2271 156 2437 9 2517 156
LayerCount: 2
Fore
SplineSet
1050 391 m 0x980407ead8
 1292 391 1199 172 1266 108 c 0x001026
 1278 97 1294 93 1291 79 c 0
 1289 60 1256 44 1217 44 c 0
 1163 44 1125 83 1097 83 c 0
 1069 83 1043 44 977 44 c 0
 893 44 836 98 860 165 c 0
 882 225 967 223 1032 244 c 0
 1101 265 1090 335 1060 350 c 0
 1030 364 1029 309 1020 285 c 0
 996 222 831 259 915 347 c 0
 939 372 985 391 1050 391 c 0x980407ead8
1005 147 m 0
 1009 119 1042 111 1066 115 c 0x20020b
 1077 117 1082 128 1083 134 c 0x080008
 1091 170 1088 198 1085 216 c 0x200008
 1083 225 1074 227 1060 214 c 0
 1039 192 1000 179 1005 147 c 0
1884 112 m 0
 1975 112 2064 -52 1882 -154 c 0
 1707 -253 1549 -50 1356 -197 c 0
 1262 -269 1213 -71 1332 -11 c 0
 1479 63 1613 -128 1738 -128 c 0x00200020
 1822 -128 1847 -23 1811 -7 c 0
 1776 9 1753 -29 1671 -23 c 0x00100020
 1531 -14 1541 100 1626 127 c 1x980407ead8
 1563 153 1520 197 1520 248 c 0
 1520 327 1621 391 1743 391 c 0
 1761 391 1779 389 1797 387 c 1
 1820 427 1889 469 1942 465 c 0
 2041 457 1994 351 1940 365 c 0
 1917 370 1886 373 1861 369 c 1
 1923 344 1965 299 1965 248 c 0x02000080
 1965 170 1865 106 1743 106 c 0x00080080
 1732 106 1722 106 1712 107 c 1
 1658 86 1626 16 1671 8 c 0x01000180
 1742 -5 1789 112 1884 112 c 0
1705 274 m 2
 1705 223 l 2x00104008
 1705 180 1722 145 1743 145 c 0x00100020
 1764 145 1781 180 1781 223 c 2
 1781 274 l 2
 1781 317 1764 352 1743 352 c 0
 1722 352 1705 317 1705 274 c 2
1813 538 m 0
 1915 493 1782 404 1672 435 c 0x00104008
 1611 452 1484 365 1470 272 c 0
 1461 210 1465 133 1492 104 c 0
 1501 94 1513 91 1511 79 c 0
 1507 49 1431 44 1391 44 c 0x02000008
 1352 44 1280 49 1275 79 c 0
 1274 92 1284 97 1293 106 c 0x02000010
 1314 125 1318 225 1298 252 c 0x02000008
 1287 265 1273 273 1275 288 c 0
 1280 318 1331 339 1366 357 c 0
 1395 371 1463 406 1480 384 c 1
 1556 505 1714 581 1813 538 c 0
2211 104 m 0x10408003
 2219 94 2231 91 2230 79 c 0x00100004
 2226 49 2149 44 2110 44 c 0
 2071 44 1998 49 1994 79 c 0x0001000080
 1992 92 2002 97 2012 106 c 0
 2033 125 2036 225 2016 252 c 0
 2006 265 1992 273 1994 288 c 0
 1998 318 2050 339 2085 357 c 0
 2119 374 2214 423 2200 359 c 0
 2194 330 2165 152 2211 104 c 0x10408003
2707 104 m 0
 2716 95 2728 91 2727 79 c 0
 2723 49 2665 44 2625 44 c 0
 2586 44 2517 60 2517 142 c 0x0804000028
 2517 162 2517 280 2517 280 c 2
 2517 404 2427 293 2427 209 c 0
 2427 165 2433 124 2452 104 c 0x0001100010
 2461 94 2473 91 2471 79 c 0
 2467 49 2391 44 2351 44 c 0
 2312 44 2239 49 2235 79 c 0
 2234 92 2244 97 2253 106 c 0x0010100018
 2274 125 2278 225 2258 252 c 0
 2247 265 2233 273 2235 288 c 0x2000000080
 2238 305 2254 318 2274 330 c 0x8000000080
 2343 378 2346 500 2289 539 c 0
 2231 579 2155 529 2172 467 c 0x4000000080
 2193 388 1997 366 2014 474 c 0
 2025 548 2127 595 2215 595 c 0
 2349 595 2481 487 2437 329 c 1
 2460 372 2500 391 2527 391 c 0x9000000280
 2676 391 2659 153 2707 104 c 0
827 451 m 0
 799 411 787 187 822 144 c 0x0800000040
 843 120 847 108 847 90 c 0
 847 51 791 44 730 44 c 0
 728 44 727 44 725 44 c 0
 724 44 722 44 721 44 c 0
 660 44 604 51 604 90 c 0
 604 108 613 125 629 144 c 0
 649 171 654 254 648 331 c 1
 648 331 564 80 495 80 c 0x0050000540
 462 80 445 102 445 126 c 0
 445 231 346 352 346 352 c 1
 386 78 320 -32 226 -66 c 0
 126 -103 -25 -58 3 72 c 0
 20 151 159 195 153 121 c 0
 144 10 189 -38 227 -18 c 0
 316 28 311 226 284 408 c 0
 258 580 159 459 242 391 c 0
 281 359 226 302 156 302 c 0x00820065
 12 302 26 546 289 546 c 2x2000000080
 395 546 l 2
 489 546 547 375 557 245 c 1
 624 367 604 484 604 500 c 0x0400000008
 604 538 660 546 721 546 c 0
 722 546 724 546 725 546 c 0
 727 546 728 546 730 546 c 0
 791 546 847 538 847 500 c 0
 847 484 836 463 827 451 c 0
EndSplineSet
Validated: 37
Ligature2: "'liga' Standard Ligatures lookup 0 subtable" M a r g i n
EndChar

StartChar: exclam
Encoding: 33 33 61
Width: 409
VWidth: 2048
GlyphClass: 2
Flags: W
LayerCount: 2
Fore
SplineSet
204 253 m 0
 165.333333333 253 139.166666667 267.5 125.5 296.5 c 128
 111.833333333 325.5 105 363.666666667 105 411 c 2
 105 442 l 1
 99 498.666666667 96 564.666666667 96 640 c 0
 96 782 106.666666667 956.333333333 128 1163 c 0
 130 1181 137.666666667 1196.5 151 1209.5 c 128
 164.333333333 1222.5 179.333333333 1229 196 1229 c 256
 212.666666667 1229 226.666666667 1223 238 1211 c 128
 249.333333333 1199 256.333333333 1185.66666667 259 1171 c 0
 284.333333333 1004.33333333 297 828.666666667 297 644 c 0
 297 575.333333333 295.333333333 505.333333333 292 434 c 0
 291.333333333 428.666666667 291 422.333333333 291 415 c 0
 291 408.333333333 291.166666667 401.833333333 291.5 395.5 c 128
 291.833333333 389.166666667 292 382.333333333 292 375 c 0
 292 341.666666667 285.333333333 313 272 289 c 128
 258.666666667 265 236 253 204 253 c 0
101 -99 m 0
 101 -77.6666666667 104.833333333 -52.1666666667 112.5 -22.5 c 128
 120.166666667 7.16666666667 131.333333333 33.3333333333 146 56 c 128
 160.666666667 78.6666666667 178.666666667 90 200 90 c 0
 227.333333333 90 247.333333333 79.3333333333 260 58 c 0
 296.666666667 -3.33333333333 315 -58.3333333333 315 -107 c 0
 315 -139.666666667 306.5 -168.666666667 289.5 -194 c 128
 272.5 -219.333333333 247 -232 213 -232 c 0
 201 -232 189.333333333 -229.666666667 178 -225 c 0
 126.666666667 -204.333333333 101 -162.333333333 101 -99 c 0
EndSplineSet
Validated: 524289
EndChar

StartChar: quotedbl
Encoding: 34 34 62
Width: 526
VWidth: 2048
GlyphClass: 2
Flags: W
LayerCount: 2
Fore
SplineSet
76 1208 m 0
 76 1234.66666667 79.1666666667 1262 85.5 1290 c 128
 91.8333333333 1318 101.833333333 1341.5 115.5 1360.5 c 128
 129.166666667 1379.5 147 1389 169 1389 c 0
 183 1389 198.333333333 1384.33333333 215 1375 c 0
 255 1353 275 1305 275 1231 c 0
 275 1169 261.333333333 1089.66666667 234 993 c 0
 230 979.666666667 222.5 968.666666667 211.5 960 c 128
 200.5 951.333333333 187 947 171 947 c 0
 151.666666667 947 137 951.833333333 127 961.5 c 128
 117 971.166666667 109.666666667 986 105 1006 c 0
 85.6666666667 1084.66666667 76 1152 76 1208 c 0
322 1202 m 0
 322 1228.66666667 325.166666667 1256 331.5 1284 c 128
 337.833333333 1312 347.833333333 1335.5 361.5 1354.5 c 128
 375.166666667 1373.5 393 1383 415 1383 c 0
 429 1383 444.333333333 1378.33333333 461 1369 c 0
 501 1347 521 1299 521 1225 c 0
 521 1163 507.333333333 1083.66666667 480 987 c 0
 476 973.666666667 468.5 962.666666667 457.5 954 c 128
 446.5 945.333333333 433 941 417 941 c 0
 397.666666667 941 383 945.833333333 373 955.5 c 128
 363 965.166666667 355.666666667 980 351 1000 c 0
 331.666666667 1078.66666667 322 1146 322 1202 c 0
EndSplineSet
Validated: 524289
EndChar

StartChar: numbersign
Encoding: 35 35 63
Width: 1590
VWidth: 2048
GlyphClass: 2
Flags: W
LayerCount: 2
Fore
SplineSet
165 312 m 2
 147.666666667 312 132.5 318.5 119.5 331.5 c 128
 106.5 344.5 100 359.666666667 100 377 c 256
 100 394.333333333 106.5 409.5 119.5 422.5 c 128
 132.5 435.5 147.666666667 442 165 442 c 2
 422 442 l 1
 566 843 l 1
 312 843 l 2
 294.666666667 843 279.5 849.5 266.5 862.5 c 128
 253.5 875.5 247 890.666666667 247 908 c 256
 247 925.333333333 253.5 940.5 266.5 953.5 c 128
 279.5 966.5 294.666666667 973 312 973 c 2
 613 973 l 1
 720 1272 l 2
 732 1304 748 1320 768 1320 c 0
 773.333333333 1320 779 1319 785 1317 c 0
 826.333333333 1302.33333333 847 1281 847 1253 c 0
 847 1245.66666667 845.333333333 1237.33333333 842 1228 c 2
 751 973 l 1
 1149 973 l 1
 1259 1271 l 2
 1271 1303 1287.33333333 1319 1308 1319 c 0
 1313.33333333 1319 1319 1318 1325 1316 c 0
 1365.66666667 1301.33333333 1386 1280 1386 1252 c 0
 1386 1244 1384.33333333 1235.33333333 1381 1226 c 2
 1288 973 l 1
 1425 973 l 2
 1442.33333333 973 1457.5 966.5 1470.5 953.5 c 128
 1483.5 940.5 1490 925.333333333 1490 908 c 256
 1490 890.666666667 1483.5 875.5 1470.5 862.5 c 128
 1457.5 849.5 1442.33333333 843 1425 843 c 2
 1240 843 l 1
 1092 442 l 1
 1398 442 l 2
 1415.33333333 442 1430.5 435.5 1443.5 422.5 c 128
 1456.5 409.5 1463 394.333333333 1463 377 c 256
 1463 359.666666667 1456.5 344.5 1443.5 331.5 c 128
 1430.5 318.5 1415.33333333 312 1398 312 c 2
 1044 312 l 1
 929 -1 l 2
 917 -33 900.666666667 -49 880 -49 c 0
 874.666666667 -49 869 -48 863 -46 c 0
 822.333333333 -31.3333333333 802 -10 802 18 c 0
 802 26 803.666666667 34.6666666667 807 44 c 2
 905 312 l 1
 513 312 l 1
 407 16 l 2
 395 -16.6666666667 378.333333333 -33 357 -33 c 0
 352.333333333 -33 347 -32 341 -30 c 0
 299.666666667 -15.3333333333 279 6 279 34 c 0
 279 42 280.666666667 50.6666666667 284 60 c 2
 375 312 l 1
 165 312 l 2
953 442 m 1
 1101 843 l 1
 704 843 l 1
 560 442 l 1
 953 442 l 1
EndSplineSet
Validated: 524289
EndChar

StartChar: dollar
Encoding: 36 36 64
Width: 1316
VWidth: 2048
GlyphClass: 2
Flags: W
LayerCount: 2
Fore
SplineSet
1050 1038 m 0
 1050 1022 1042.66666667 1006 1028 990 c 128
 1013.33333333 974 998.666666667 966 984 966 c 0
 971.333333333 966 957.333333333 971.666666667 942 983 c 0
 898 1016.33333333 852.166666667 1045.83333333 804.5 1071.5 c 128
 756.833333333 1097.16666667 707.333333333 1118.33333333 656 1135 c 1
 655.333333333 1078.33333333 655 1021.5 655 964.5 c 128
 655 907.5 654.666666667 850.333333333 654 793 c 1
 655.333333333 793 660.833333333 792.666666667 670.5 792 c 128
 680.166666667 791.333333333 693.666666667 790.333333333 711 789 c 0
 981.666666667 773.666666667 1144.33333333 673.666666667 1199 489 c 0
 1211 449 1217 409 1217 369 c 0
 1217 297 1197.33333333 225.666666667 1158 155 c 0
 1082.66666667 19 967.333333333 -71 812 -115 c 0
 759.333333333 -129.666666667 705.333333333 -137 650 -137 c 1
 649 -281 l 2
 649 -300.333333333 642.166666667 -315.833333333 628.5 -327.5 c 128
 614.833333333 -339.166666667 599.666666667 -345 583 -345 c 0
 565.666666667 -345 550.666666667 -338.666666667 538 -326 c 0
 526 -314 520 -254.666666667 520 -148 c 0
 520 -135 520 -135 520 -122 c 1
 430 -100.666666667 349.166666667 -58.8333333333 277.5 3.5 c 128
 205.833333333 65.8333333333 153 137.333333333 119 218 c 0
 113.666666667 230 111 241 111 251 c 0
 111 266.333333333 118.666666667 280.166666667 134 292.5 c 128
 149.333333333 304.833333333 166.666666667 311 186 311 c 0
 209.333333333 311 227 297 239 269 c 0
 293.666666667 139.666666667 387.333333333 54.3333333333 520 13 c 1
 520.666666667 123 521.333333333 232.833333333 522 342.5 c 128
 522.666666667 452.166666667 523.333333333 562 524 672 c 1
 394.666666667 686 299.333333333 719 238 771 c 0
 146 849.666666667 100 932.333333333 100 1019 c 0
 100 1050.33333333 106 1082 118 1114 c 0
 140 1173.33333333 178.5 1220.33333333 233.5 1255 c 128
 288.5 1289.66666667 357 1307 439 1307 c 0
 467 1307 496.333333333 1304.66666667 527 1300 c 1
 527 1331.33333333 529.666666667 1359.83333333 535 1385.5 c 128
 540.333333333 1411.16666667 559.333333333 1424 592 1424 c 0
 609.333333333 1424 624.5 1417.5 637.5 1404.5 c 128
 650.5 1391.5 657 1376.33333333 657 1359 c 2
 657 1271 l 1
 788.333333333 1232.33333333 909.333333333 1171 1020 1087 c 0
 1040 1072.33333333 1050 1056 1050 1038 c 0
437 1178 m 0
 403 1178 370 1171.83333333 338 1159.5 c 128
 306 1147.16666667 279.5 1130.16666667 258.5 1108.5 c 128
 237.5 1086.83333333 227 1061.33333333 227 1032 c 0
 227 1020.66666667 229 1009 233 997 c 0
 249.666666667 948.333333333 278 907 318 873 c 0
 358.666666667 838.333333333 427.333333333 815 524 803 c 1
 526 1169 l 1
 494 1175 464.333333333 1178 437 1178 c 0
650 -7 m 1
 774 -7 879 33.6666666667 965 115 c 0
 1046.33333333 192.333333333 1087 275 1087 363 c 0
 1087 391.666666667 1082.66666667 421.333333333 1074 452 c 0
 1042 561.333333333 950 627.333333333 798 650 c 0
 779.333333333 653.333333333 755 656.166666667 725 658.5 c 128
 695 660.833333333 671.333333333 662.333333333 654 663 c 1
 653.333333333 551.666666667 652.666666667 440 652 328 c 128
 651.333333333 216 650.666666667 104.333333333 650 -7 c 1
EndSplineSet
Validated: 524289
EndChar

StartChar: percent
Encoding: 37 37 65
Width: 1237
VWidth: 2048
GlyphClass: 2
Flags: W
LayerCount: 2
Fore
SplineSet
221 -54 m 0
 205 -54 189 -48.5 173 -37.5 c 128
 157 -26.5 149 -13.3333333333 149 2 c 0
 149 14 154 28 164 44 c 2
 798 1067 l 1
 652 997 l 2
 646 994.333333333 640 991.833333333 634 989.5 c 128
 628 987.166666667 622.333333333 985 617 983 c 1
 612.333333333 916.333333333 590.333333333 866.333333333 551 833 c 0
 487.666666667 780.333333333 421.666666667 754 353 754 c 0
 309 754 264 765 218 787 c 0
 139.333333333 825 100 878.666666667 100 948 c 0
 100 1064 178.666666667 1181.66666667 336 1301 c 0
 349.333333333 1311 363.333333333 1316 378 1316 c 0
 408 1316 428 1299.33333333 438 1266 c 1
 450.666666667 1275.33333333 463.333333333 1280 476 1280 c 0
 518.666666667 1280 559 1225 597 1115 c 1
 942 1280 l 2
 956.666666667 1287.33333333 969.666666667 1291 981 1291 c 0
 997.666666667 1291 1010.5 1283 1019.5 1267 c 128
 1028.5 1251 1033 1234.66666667 1033 1218 c 0
 1033 1206.66666667 1030.33333333 1196.33333333 1025 1187 c 2
 464 282 l 1
 669 441 l 2
 683.666666667 451.666666667 697.666666667 457 711 457 c 0
 727 457 742.666666667 448.666666667 758 432 c 1
 762 433.333333333 767.333333333 434 774 434 c 0
 793.333333333 434 821 428 857 416 c 0
 995.666666667 369.333333333 1082.66666667 303.333333333 1118 218 c 0
 1130.66666667 186.666666667 1137 157.333333333 1137 130 c 0
 1137 82.6666666667 1118 41.3333333333 1080 6 c 0
 1049.33333333 -22.6666666667 1011.83333333 -45.8333333333 967.5 -63.5 c 128
 923.166666667 -81.1666666667 878.666666667 -90 834 -90 c 0
 799.333333333 -90 766.166666667 -83.8333333333 734.5 -71.5 c 128
 702.833333333 -59.1666666667 675.666666667 -39 653 -11 c 0
 613 38.3333333333 593 98.6666666667 593 170 c 0
 593 186 594 202.666666667 596 220 c 1
 259 -41 l 2
 247 -49.6666666667 234.333333333 -54 221 -54 c 0
224 971 m 0
 224 946.333333333 237.833333333 926 265.5 910 c 128
 293.166666667 894 320.666666667 886 348 886 c 0
 359.333333333 886 370.666666667 887.333333333 382 890 c 0
 449.333333333 908 484.333333333 943 487 995 c 1
 437 1029 411.333333333 1095.33333333 410 1194 c 1
 286 1098 224 1023.66666667 224 971 c 0
719 161 m 0
 719 121 731.5 90.6666666667 756.5 70 c 128
 781.5 49.3333333333 810.666666667 39 844 39 c 0
 872.666666667 39 898.166666667 43.5 920.5 52.5 c 128
 942.833333333 61.5 961.666666667 73.3333333333 977 88 c 0
 998.333333333 108 1009 126.333333333 1009 143 c 0
 1009 149 1007.66666667 155 1005 161 c 0
 979 214.333333333 898.333333333 264 763 310 c 0
 761 310.666666667 759 311.666666667 757 313 c 128
 755 314.333333333 753 315.333333333 751 316 c 1
 729.666666667 252 719 200.333333333 719 161 c 0
EndSplineSet
Validated: 524289
EndChar

StartChar: ampersand
Encoding: 38 38 66
Width: 1289
VWidth: 2048
GlyphClass: 2
Flags: W
LayerCount: 2
Fore
SplineSet
1115 635 m 0
 1135.66666667 635 1153.33333333 629 1168 617 c 128
 1182.66666667 605 1190 591 1190 575 c 0
 1190 565.666666667 1188 555.666666667 1184 545 c 0
 1147.33333333 443.666666667 1084 351 994 267 c 1
 1059.33333333 195.666666667 1092 146.333333333 1092 119 c 0
 1092 105 1087.16666667 92.3333333333 1077.5 81 c 128
 1067.83333333 69.6666666667 1056.66666667 60 1044 52 c 0
 1036 47.3333333333 1028.33333333 45 1021 45 c 0
 1003.66666667 45 987.333333333 57.3333333333 972 82 c 0
 951.333333333 116 925 150 893 184 c 1
 775 98.6666666667 649.666666667 43 517 17 c 0
 479.666666667 9.66666666667 444.666666667 6 412 6 c 0
 340 6 277.333333333 25.1666666667 224 63.5 c 128
 170.666666667 101.833333333 144 158 144 232 c 0
 144 289.333333333 157 347.166666667 183 405.5 c 128
 209 463.833333333 237.333333333 509.666666667 268 543 c 0
 287.333333333 563.666666667 301.833333333 579.333333333 311.5 590 c 128
 321.166666667 600.666666667 326.333333333 606.333333333 327 607 c 1
 226.333333333 693.666666667 163.666666667 772 139 842 c 0
 113 915.333333333 100 981 100 1039 c 0
 100 1135 130.333333333 1207.33333333 191 1256 c 128
 251.666666667 1304.66666667 328 1329 420 1329 c 0
 486.666666667 1329 550.333333333 1316.66666667 611 1292 c 128
 671.666666667 1267.33333333 721.166666667 1232 759.5 1186 c 128
 797.833333333 1140 817 1085.33333333 817 1022 c 0
 817 923.333333333 757.666666667 824 639 724 c 0
 619.666666667 707.333333333 600.333333333 690.5 581 673.5 c 128
 561.666666667 656.5 542.666666667 639.333333333 524 622 c 1
 545 608 545 608 587 580 c 128
 615 561.333333333 649.666666667 538.333333333 691 511 c 0
 732.333333333 484.333333333 770.333333333 458 805 432 c 128
 839.666666667 406 871.333333333 381 900 357 c 1
 976.666666667 427.666666667 1030.66666667 505.333333333 1062 590 c 0
 1072.66666667 620 1090.33333333 635 1115 635 c 0
424 1199 m 256
 362 1199 314.166666667 1185.33333333 280.5 1158 c 128
 246.833333333 1130.66666667 230 1090.66666667 230 1038 c 0
 230 956.666666667 250.333333333 889.333333333 291 836 c 0
 329.666666667 786 372.333333333 741 419 701 c 1
 441 722.333333333 463.5 743.166666667 486.5 763.5 c 128
 509.5 783.833333333 532.666666667 804 556 824 c 0
 645.333333333 898.666666667 690 962 690 1014 c 0
 690 1020.66666667 689.333333333 1027.33333333 688 1034 c 0
 676 1082.66666667 644.5 1122.33333333 593.5 1153 c 128
 542.5 1183.66666667 486 1199 424 1199 c 256
796 275 m 1
 743.333333333 317.666666667 678 364.333333333 600 415 c 0
 520.666666667 466.333333333 464.333333333 504 431 528 c 1
 359.666666667 452 311.666666667 380.666666667 287 314 c 0
 276.333333333 285.333333333 271 260.333333333 271 239 c 0
 271 203 283.833333333 177 309.5 161 c 128
 335.166666667 145 368.666666667 137 410 137 c 0
 438 137 469.333333333 140.333333333 504 147 c 0
 600.666666667 165.666666667 698 208.333333333 796 275 c 1
EndSplineSet
Validated: 524289
EndChar

StartChar: quotesingle
Encoding: 39 39 67
Width: 239
VWidth: 2048
GlyphClass: 2
Flags: WO
HStem: 524.735 233.155<73.9154 156.825>
VStem: 49.7695 136.315<567.693 736.455>
LayerCount: 2
Fore
SplineSet
49.76953125 662.413085938 m 0
 49.76953125 676.479492188 51.939453125 690.897460938 56.27734375 705.66796875 c 0
 60.615234375 720.4375 67.46484375 732.833984375 76.8271484375 742.856445312 c 0
 86.189453125 752.87890625 98.404296875 757.890625 113.474609375 757.890625 c 0
 123.064453125 757.890625 133.567382812 755.428710938 144.984375 750.504882812 c 0
 172.384765625 738.900390625 186.084960938 713.580078125 186.084960938 674.544921875 c 0
 186.084960938 641.83984375 176.72265625 599.9921875 158 549 c 0
 155.259765625 541.966796875 150.236328125 536.165039062 142.9296875 531.592773438 c 0
 135.623046875 527.020507812 126.489257812 524.735351562 115.529296875 524.735351562 c 0
 91.783203125 524.735351562 76.484375 535.109375 69.634765625 555.857421875 c 0
 56.3916015625 597.354492188 49.76953125 632.873046875 49.76953125 662.413085938 c 0
EndSplineSet
Validated: 524289
EndChar

StartChar: parenleft
Encoding: 40 40 68
Width: 721
VWidth: 2048
GlyphClass: 2
Flags: W
LayerCount: 2
Fore
SplineSet
622 -296 m 0
 622 -311.333333333 614.166666667 -326.5 598.5 -341.5 c 128
 582.833333333 -356.5 567.333333333 -364 552 -364 c 0
 536 -364 520.333333333 -355.666666667 505 -339 c 0
 235 -43 100 249 100 537 c 0
 100 763.666666667 183.666666667 987.666666667 351 1209 c 0
 438.333333333 1325 493.333333333 1383.66666667 516 1385 c 0
 536 1387 553.666666667 1381.66666667 569 1369 c 128
 584.333333333 1356.33333333 592 1341.66666667 592 1325 c 0
 592 1306.33333333 582 1285.33333333 562 1262 c 0
 408.666666667 1086.66666667 309.333333333 922.333333333 264 769 c 0
 238 680.333333333 225 598 225 522 c 0
 225 467.333333333 231.666666667 416 245 368 c 0
 305.666666667 149.333333333 424.333333333 -57 601 -251 c 0
 615 -266.333333333 622 -281.333333333 622 -296 c 0
EndSplineSet
Validated: 524321
EndChar

StartChar: parenright
Encoding: 41 41 69
Width: 721
VWidth: 2048
GlyphClass: 2
Flags: W
LayerCount: 2
Fore
SplineSet
100 -296 m 0
 100 -281.333333333 107 -266.333333333 121 -251 c 0
 297.666666667 -57 416.333333333 149.333333333 477 368 c 0
 490.333333333 416 497 467.333333333 497 522 c 0
 497 598 484 680.333333333 458 769 c 0
 412.666666667 922.333333333 313.333333333 1086.66666667 160 1262 c 0
 140 1285.33333333 130 1306.33333333 130 1325 c 0
 130 1342.33333333 137.666666667 1357.16666667 153 1369.5 c 128
 168.333333333 1381.83333333 186 1387 206 1385 c 0
 228.666666667 1383.66666667 283.666666667 1325 371 1209 c 0
 538.333333333 987.666666667 622 763.666666667 622 537 c 0
 622 249 487 -43 217 -339 c 0
 201.666666667 -355.666666667 186 -364 170 -364 c 0
 154.666666667 -364 139.166666667 -356.5 123.5 -341.5 c 128
 107.833333333 -326.5 100 -311.333333333 100 -296 c 0
EndSplineSet
Validated: 524321
EndChar

StartChar: asterisk
Encoding: 42 42 70
Width: 1182
VWidth: 2048
GlyphClass: 2
Flags: W
LayerCount: 2
Fore
SplineSet
945 645 m 256
 945 627 938.833333333 611.666666667 926.5 599 c 128
 914.166666667 586.333333333 898.666666667 580 880 580 c 0
 862 580 846.666666667 586.333333333 834 599 c 2
 592 841 l 1
 350 599 l 2
 337.333333333 586.333333333 322 580 304 580 c 256
 286 580 270.666666667 586.166666667 258 598.5 c 128
 245.333333333 610.833333333 239 626 239 644 c 0
 239 662.666666667 245.333333333 678.333333333 258 691 c 2
 486 919 l 1
 137 1035 l 2
 123 1039.66666667 112.166666667 1048 104.5 1060 c 128
 96.8333333333 1072 93 1084.66666667 93 1098 c 0
 93 1115.33333333 101.333333333 1131.66666667 118 1147 c 128
 134.666666667 1162.33333333 154.666666667 1166 178 1158 c 2
 524 1043 l 1
 524 1353 l 2
 524 1373.66666667 530.5 1391 543.5 1405 c 128
 556.5 1419 572.666666667 1426 592 1426 c 0
 610 1426 625.333333333 1419.66666667 638 1407 c 128
 650.666666667 1394.33333333 657 1379 657 1361 c 2
 657 1051 l 1
 1003 1166 l 2
 1009.66666667 1168 1016.33333333 1169 1023 1169 c 0
 1041 1169 1056.5 1162.83333333 1069.5 1150.5 c 128
 1082.5 1138.16666667 1089 1123.33333333 1089 1106 c 0
 1089 1090.66666667 1084.5 1077.16666667 1075.5 1065.5 c 128
 1066.5 1053.83333333 1056 1046.33333333 1044 1043 c 2
 691 925 l 1
 926 691 l 2
 938.666666667 678.333333333 945 663 945 645 c 256
EndSplineSet
Validated: 524321
EndChar

StartChar: plus
Encoding: 43 43 71
Width: 1408
VWidth: 2048
GlyphClass: 2
Flags: W
LayerCount: 2
Fore
SplineSet
1243 701 m 2
 1260.33333333 701 1275.5 694.5 1288.5 681.5 c 128
 1301.5 668.5 1308 653.333333333 1308 636 c 256
 1308 618.666666667 1301.5 603.5 1288.5 590.5 c 128
 1275.5 577.5 1260.33333333 571 1243 571 c 2
 805 571 l 1
 805 -8 l 2
 805 -25.3333333333 798.5 -40.5 785.5 -53.5 c 128
 772.5 -66.5 757.333333333 -73 740 -73 c 256
 722.666666667 -73 707.5 -66.5 694.5 -53.5 c 128
 681.5 -40.5 675 -25.3333333333 675 -8 c 2
 675 571 l 1
 165 571 l 2
 147.666666667 571 132.5 577.5 119.5 590.5 c 128
 106.5 603.5 100 618.666666667 100 636 c 256
 100 653.333333333 106.5 668.5 119.5 681.5 c 128
 132.5 694.5 147.666666667 701 165 701 c 2
 675 701 l 1
 675 1204 l 2
 675 1221.33333333 681.5 1236.5 694.5 1249.5 c 128
 707.5 1262.5 722.666666667 1269 740 1269 c 256
 757.333333333 1269 772.5 1262.5 785.5 1249.5 c 128
 798.5 1236.5 805 1221.33333333 805 1204 c 2
 805 701 l 1
 1243 701 l 2
EndSplineSet
Validated: 524289
EndChar

StartChar: comma
Encoding: 44 44 72
Width: 445
VWidth: 2048
GlyphClass: 2
Flags: W
LayerCount: 2
Fore
SplineSet
223 159 m 0
 268.333333333 159 299.666666667 142.666666667 317 110 c 128
 334.333333333 77.3333333333 343 39.6666666667 343 -3 c 0
 343 -40.3333333333 338.666666667 -79.3333333333 330 -120 c 128
 321.333333333 -160.666666667 311 -197.833333333 299 -231.5 c 128
 287 -265.166666667 276.333333333 -291 267 -309 c 0
 250.333333333 -341 239.333333333 -359.333333333 234 -364 c 0
 222 -384 203 -394 177 -394 c 0
 157.666666667 -394 140.666666667 -385.666666667 126 -369 c 128
 111.333333333 -352.333333333 109 -330.333333333 119 -303 c 0
 131.666666667 -266.333333333 138 -235.333333333 138 -210 c 0
 138 -202 137.333333333 -194.666666667 136 -188 c 0
 131.333333333 -160.666666667 127 -136.833333333 123 -116.5 c 128
 119 -96.1666666667 115 -79.6666666667 111 -67 c 0
 103.666666667 -43 100 -19.6666666667 100 3 c 0
 100 33.6666666667 106.333333333 60.6666666667 119 84 c 128
 131.666666667 107.333333333 148 126.333333333 168 141 c 0
 184.666666667 153 203 159 223 159 c 0
EndSplineSet
Validated: 524321
EndChar

StartChar: hyphen
Encoding: 45 45 73
Width: 783
VWidth: 2048
GlyphClass: 2
Flags: W
LayerCount: 2
Fore
SplineSet
172 425 m 2
 154 425 138.666666667 431.333333333 126 444 c 128
 113.333333333 456.666666667 107 472 107 490 c 256
 107 508 113.333333333 523.333333333 126 536 c 128
 138.666666667 548.666666667 154 555 172 555 c 2
 613 555 l 2
 631 555 646.333333333 548.666666667 659 536 c 128
 671.666666667 523.333333333 678 508 678 490 c 256
 678 472 671.666666667 456.666666667 659 444 c 128
 646.333333333 431.333333333 631 425 613 425 c 2
 172 425 l 2
EndSplineSet
Validated: 524289
EndChar

StartChar: period
Encoding: 46 46 74
Width: 422
VWidth: 2048
GlyphClass: 2
Flags: W
LayerCount: 2
Fore
SplineSet
321 86 m 0
 321 57.3333333333 310.833333333 32.3333333333 290.5 11 c 128
 270.166666667 -10.3333333333 244 -21 212 -21 c 0
 175.333333333 -21 147.666666667 -9 129 15 c 128
 110.333333333 39 101 68 101 102 c 0
 101 118 103 134.333333333 107 151 c 0
 109.666666667 163 115.666666667 178.166666667 125 196.5 c 128
 134.333333333 214.833333333 145.666666667 231 159 245 c 128
 172.333333333 259 186.333333333 266 201 266 c 0
 221.666666667 266 241.166666667 255.833333333 259.5 235.5 c 128
 277.833333333 215.166666667 292.666666667 191 304 163 c 128
 315.333333333 135 321 109.333333333 321 86 c 0
EndSplineSet
Validated: 524289
EndChar

StartChar: slash
Encoding: 47 47 75
Width: 1039
VWidth: 2048
GlyphClass: 2
Flags: W
LayerCount: 2
Fore
SplineSet
166 -177 m 0
 148 -177 132.5 -170.666666667 119.5 -158 c 128
 106.5 -145.333333333 100 -130 100 -112 c 0
 100 -102.666666667 102.333333333 -93.3333333333 107 -84 c 2
 815 1367 l 2
 827 1391 846 1403 872 1403 c 0
 889.333333333 1403 905 1397.33333333 919 1386 c 128
 933 1374.66666667 940 1360 940 1342 c 0
 940 1332 937.666666667 1322 933 1312 c 2
 224 -140 l 2
 219.333333333 -150 211.833333333 -158.666666667 201.5 -166 c 128
 191.166666667 -173.333333333 179.333333333 -177 166 -177 c 0
EndSplineSet
Validated: 524289
EndChar

StartChar: zero
Encoding: 48 48 76
Width: 1144
VWidth: 2048
GlyphClass: 2
Flags: W
LayerCount: 2
Fore
SplineSet
656 1225 m 1
 777.333333333 1203 876 1112.66666667 952 954 c 0
 1016 820.666666667 1048 691 1048 565 c 0
 1048 483 1038.16666667 407.166666667 1018.5 337.5 c 128
 998.833333333 267.833333333 975 216.333333333 947 183 c 0
 855 73 741.333333333 18 606 18 c 0
 414 18 271.333333333 120.333333333 178 325 c 0
 126 440.333333333 100 567 100 705 c 0
 100 800.333333333 109.833333333 886.666666667 129.5 964 c 128
 149.166666667 1041.33333333 177.333333333 1103.66666667 214 1151 c 0
 313.333333333 1283.66666667 431.666666667 1350 569 1350 c 0
 599.666666667 1350 627.833333333 1345.33333333 653.5 1336 c 128
 679.166666667 1326.66666667 692 1306.66666667 692 1276 c 0
 692 1256.66666667 680 1239.66666667 656 1225 c 1
554 1162 m 0
 554 1187.33333333 564.333333333 1206.66666667 585 1220 c 1
 577.666666667 1220.66666667 570.333333333 1221 563 1221 c 0
 504.333333333 1221 454 1206 412 1176 c 128
 370 1146 335.666666667 1106.16666667 309 1056.5 c 128
 282.333333333 1006.83333333 262.5 951.166666667 249.5 889.5 c 128
 236.5 827.833333333 230 765.333333333 230 702 c 0
 230 586 252 479.333333333 296 382 c 0
 366.666666667 225.333333333 468.666666667 147 602 147 c 0
 738 147 830.333333333 209 879 333 c 0
 904.333333333 398.333333333 917 468.333333333 917 543 c 0
 917 609.666666667 907 680.333333333 887 755 c 0
 843.666666667 915 778.666666667 1021.33333333 692 1074 c 0
 666 1090 642.666666667 1098.33333333 622 1099 c 0
 576.666666667 1101.66666667 554 1122.66666667 554 1162 c 0
EndSplineSet
Validated: 524289
EndChar

StartChar: one
Encoding: 49 49 77
Width: 476
VWidth: 2048
GlyphClass: 2
Flags: W
LayerCount: 2
Fore
SplineSet
100 1306 m 0
 100 1328.66666667 108.5 1345.66666667 125.5 1357 c 128
 142.5 1368.33333333 160.666666667 1374 180 1374 c 0
 217.333333333 1374 248.666666667 1362.33333333 274 1339 c 0
 309.333333333 1306.33333333 332.333333333 1263.66666667 343 1211 c 128
 353.666666667 1158.33333333 361.333333333 1098 366 1030 c 0
 372.666666667 937.333333333 376 844.333333333 376 751 c 0
 376 627.666666667 370 503.666666667 358 379 c 2
 326 52 l 2
 324 33.3333333333 316.5 19.3333333333 303.5 10 c 128
 290.5 0.666666666667 276.333333333 -4 261 -4 c 0
 245 -4 230.166666667 1.16666666667 216.5 11.5 c 128
 202.833333333 21.8333333333 196 37 196 57 c 0
 196 60 196 60 196 64 c 2
 228 392 l 2
 240 516 246 637.666666667 246 757 c 0
 246 800.333333333 245.166666667 850.5 243.5 907.5 c 128
 241.833333333 964.5 238.333333333 1019 233 1071 c 128
 227.666666667 1123 219.333333333 1163.33333333 208 1192 c 0
 194 1227.33333333 185.333333333 1244.33333333 182 1243 c 0
 176 1241 170 1240 164 1240 c 0
 146 1240 130.833333333 1246.66666667 118.5 1260 c 128
 106.166666667 1273.33333333 100 1288.66666667 100 1306 c 0
EndSplineSet
Validated: 524321
EndChar

StartChar: two
Encoding: 50 50 78
Width: 1331
VWidth: 2048
GlyphClass: 2
Flags: W
LayerCount: 2
Fore
SplineSet
166 1013 m 0
 150.666666667 1013 135.166666667 1020.33333333 119.5 1035 c 128
 103.833333333 1049.66666667 96 1064.33333333 96 1079 c 0
 96 1093 102.333333333 1107.66666667 115 1123 c 0
 247.666666667 1279.66666667 380.666666667 1363.33333333 514 1374 c 0
 531.333333333 1375.33333333 548.333333333 1376 565 1376 c 0
 674.333333333 1376 764 1344.66666667 834 1282 c 0
 878.666666667 1242 912 1199.33333333 934 1154 c 128
 956 1108.66666667 967 1055.66666667 967 995 c 0
 967 917 946.666666667 845 906 779 c 0
 798.666666667 605 643 407 439 185 c 1
 489.666666667 195 544.666666667 200 604 200 c 0
 642.666666667 200 686.5 197.166666667 735.5 191.5 c 128
 784.5 185.833333333 833 180 881 174 c 128
 929 168 971 165 1007 165 c 0
 1053.66666667 165 1090.66666667 169.666666667 1118 179 c 0
 1137.33333333 185.666666667 1154.33333333 189 1169 189 c 0
 1188.33333333 189 1203.83333333 182.833333333 1215.5 170.5 c 128
 1227.16666667 158.166666667 1233 141.666666667 1233 121 c 0
 1233 93.6666666667 1216.33333333 74.6666666667 1183 64 c 0
 1117 42.6666666667 1056 32 1000 32 c 0
 985.333333333 32 971 32.6666666667 957 34 c 0
 891 40.6666666667 796.666666667 53.6666666667 674 73 c 0
 648 77 621.666666667 79 595 79 c 0
 495 79 386.666666667 51.6666666667 270 -3 c 0
 240.666666667 -17.6666666667 216.333333333 -25 197 -25 c 0
 179 -25 164.833333333 -16.8333333333 154.5 -0.5 c 128
 144.166666667 15.8333333333 139 29.6666666667 139 41 c 0
 139 56.3333333333 146.333333333 71 161 85 c 2
 203 126 l 2
 441.666666667 360 640 601 798 849 c 0
 824.666666667 894.333333333 838 941.333333333 838 990 c 0
 838 1065.33333333 808.333333333 1130 749 1184 c 0
 703.666666667 1225.33333333 642 1246 564 1246 c 0
 551.333333333 1246 538 1245.33333333 524 1244 c 0
 427.333333333 1236 324 1167.66666667 214 1039 c 0
 199.333333333 1021.66666667 183.333333333 1013 166 1013 c 0
EndSplineSet
Validated: 524289
EndChar

StartChar: three
Encoding: 51 51 79
Width: 1181
VWidth: 2048
GlyphClass: 2
Flags: W
LayerCount: 2
Fore
SplineSet
737 113 m 0
 803.666666667 113 856 128 894 158 c 128
 932 188 951 233.333333333 951 294 c 0
 951 338.666666667 939 380.166666667 915 418.5 c 128
 891 456.833333333 864.333333333 484.666666667 835 502 c 0
 803 521.333333333 768.333333333 531 731 531 c 0
 691 531 648.333333333 520.333333333 603 499 c 0
 593 494.333333333 583.333333333 492 574 492 c 0
 556 492 541 499 529 513 c 128
 517 527 511 542.666666667 511 560 c 0
 511 582 520.333333333 599.333333333 539 612 c 0
 585.666666667 642 628.333333333 675.333333333 667 712 c 0
 767.666666667 806.666666667 826.333333333 905.333333333 843 1008 c 0
 845.666666667 1025.33333333 847 1042 847 1058 c 0
 847 1114.66666667 830.666666667 1160.5 798 1195.5 c 128
 765.333333333 1230.5 720.333333333 1248 663 1248 c 0
 655.666666667 1248 648 1247.66666667 640 1247 c 0
 518.666666667 1235.66666667 385 1160 239 1020 c 0
 226.333333333 1008 211 1002 193 1002 c 0
 173.666666667 1002 158.333333333 1008.83333333 147 1022.5 c 128
 135.666666667 1036.16666667 130 1051.33333333 130 1068 c 0
 130 1086 136.333333333 1101.33333333 149 1114 c 0
 317 1276 477 1363.66666667 629 1377 c 0
 642.333333333 1378.33333333 655.333333333 1379 668 1379 c 0
 766.666666667 1379 844.666666667 1344.33333333 902 1275 c 0
 952 1214.33333333 977 1142.66666667 977 1060 c 0
 977 1036 975 1011 971 985 c 0
 951.666666667 869 893 759.333333333 795 656 c 1
 863 643.333333333 919.5 613.666666667 964.5 567 c 128
 1009.5 520.333333333 1042.33333333 466 1063 404 c 0
 1075.66666667 364 1082 325.666666667 1082 289 c 0
 1082 239 1070.33333333 191.333333333 1047 146 c 0
 991 38 887.666666667 -16 737 -16 c 0
 575 -16 373.333333333 53.6666666667 132 193 c 0
 111.333333333 205 101 223.333333333 101 248 c 0
 101 270 111.166666667 288.666666667 131.5 304 c 128
 151.833333333 319.333333333 174 319.666666667 198 305 c 0
 419.333333333 177 599 113 737 113 c 0
EndSplineSet
Validated: 524321
EndChar

StartChar: four
Encoding: 52 52 80
Width: 1496
VWidth: 2048
GlyphClass: 2
Flags: W
LayerCount: 2
Fore
SplineSet
1396 622 m 0
 1396 604.666666667 1389.66666667 589.333333333 1377 576 c 128
 1364.33333333 562.666666667 1349.33333333 556 1332 556 c 0
 1297.33333333 556 1276 573.333333333 1268 608 c 1
 1250 616 1216 620 1166 620 c 0
 1090.66666667 620 976 610.666666667 822 592 c 1
 822 89 l 2
 822 71.6666666667 815.666666667 56.5 803 43.5 c 128
 790.333333333 30.5 775.333333333 24 758 24 c 256
 740.666666667 24 725.333333333 30.5 712 43.5 c 128
 698.666666667 56.5 692 71.6666666667 692 89 c 2
 692 575 l 1
 689.333333333 574.333333333 673.666666667 572.166666667 645 568.5 c 128
 616.333333333 564.833333333 574.333333333 559.333333333 519 552 c 0
 435 541.333333333 371 536 327 536 c 0
 311.666666667 536 298.333333333 536.666666667 287 538 c 0
 238.333333333 544 194.5 553.333333333 155.5 566 c 128
 116.5 578.666666667 97 604.333333333 97 643 c 0
 97 667.666666667 102.166666667 690.833333333 112.5 712.5 c 128
 122.833333333 734.166666667 136 754.333333333 152 773 c 0
 204 833.666666667 245.666666667 882.333333333 277 919 c 128
 308.333333333 955.666666667 334.166666667 986.333333333 354.5 1011 c 128
 374.833333333 1035.66666667 393.833333333 1060.16666667 411.5 1084.5 c 128
 429.166666667 1108.83333333 450.166666667 1138.83333333 474.5 1174.5 c 128
 498.833333333 1210.16666667 531.333333333 1257.66666667 572 1317 c 0
 588.666666667 1341.66666667 605.333333333 1354 622 1354 c 0
 630 1354 638 1351.33333333 646 1346 c 0
 676.666666667 1325.33333333 692 1303.66666667 692 1281 c 0
 692 1269 688 1257 680 1245 c 0
 640 1185.66666667 607.666666667 1137.83333333 583 1101.5 c 128
 558.333333333 1065.16666667 535.833333333 1033.5 515.5 1006.5 c 128
 495.166666667 979.5 472.166666667 950.666666667 446.5 920 c 128
 420.833333333 889.333333333 387.333333333 849.666666667 346 801 c 0
 277.333333333 719.666666667 242 677.666666667 240 675 c 1
 264.666666667 670.333333333 295 668 331 668 c 0
 379 668 435.666666667 672.333333333 501 681 c 0
 560.333333333 689 605.833333333 695 637.5 699 c 128
 669.166666667 703 687.333333333 705.333333333 692 706 c 1
 692 1039 l 2
 692 1056.33333333 698.666666667 1071.5 712 1084.5 c 128
 725.333333333 1097.5 740.666666667 1104 758 1104 c 256
 775.333333333 1104 790.333333333 1097.5 803 1084.5 c 128
 815.666666667 1071.5 822 1056.33333333 822 1039 c 2
 822 723 l 1
 989.333333333 743.666666667 1112.33333333 754 1191 754 c 0
 1235 754 1265.33333333 750.666666667 1282 744 c 0
 1358 714 1396 673.333333333 1396 622 c 0
EndSplineSet
Validated: 524289
EndChar

StartChar: five
Encoding: 53 53 81
Width: 1306
VWidth: 2048
GlyphClass: 2
Flags: W
LayerCount: 2
Fore
SplineSet
372 1394 m 0
 412.666666667 1394 459.666666667 1392.5 513 1389.5 c 128
 566.333333333 1386.5 618.5 1383.5 669.5 1380.5 c 128
 720.5 1377.5 763 1376 797 1376 c 0
 859.666666667 1376 918.666666667 1380 974 1388 c 128
 1029.33333333 1396 1078 1407 1120 1421 c 0
 1128.66666667 1424.33333333 1137 1426 1145 1426 c 0
 1163.66666667 1426 1178.5 1418.83333333 1189.5 1404.5 c 128
 1200.5 1390.16666667 1206 1374.33333333 1206 1357 c 0
 1206 1345 1202.66666667 1333.5 1196 1322.5 c 128
 1189.33333333 1311.5 1178.33333333 1303.66666667 1163 1299 c 0
 1059.66666667 1263.66666667 937 1246 795 1246 c 0
 733.666666667 1246 678 1248 628 1252 c 128
 578 1256 518.666666667 1260.33333333 450 1265 c 0
 419.333333333 1267 391.666666667 1268 367 1268 c 0
 315 1268 277.666666667 1263 255 1253 c 1
 251.666666667 1247 248 1229.66666667 244 1201 c 128
 240 1172.33333333 236.333333333 1140.33333333 233 1105 c 128
 229.666666667 1069.66666667 228 1039.33333333 228 1014 c 0
 228 942 234 858.333333333 246 763 c 1
 429.333333333 843 587.666666667 883 721 883 c 0
 840.333333333 883 936.166666667 853.5 1008.5 794.5 c 128
 1080.83333333 735.5 1117 648.666666667 1117 534 c 0
 1117 472.666666667 1102.66666667 409.666666667 1074 345 c 0
 1046 283 1006.33333333 225.833333333 955 173.5 c 128
 903.666666667 121.166666667 842.666666667 79.1666666667 772 47.5 c 128
 701.333333333 15.8333333333 623 0 537 0 c 0
 465 0 397.666666667 9.5 335 28.5 c 128
 272.333333333 47.5 214 70.6666666667 160 98 c 0
 137.333333333 109.333333333 126 129 126 157 c 0
 126 177 135.333333333 194.666666667 154 210 c 128
 172.666666667 225.333333333 194.333333333 226.666666667 219 214 c 0
 331.666666667 156.666666667 436.666666667 128 534 128 c 0
 600 128 660.833333333 140.166666667 716.5 164.5 c 128
 772.166666667 188.833333333 820.333333333 221.166666667 861 261.5 c 128
 901.666666667 301.833333333 932.333333333 345.666666667 953 393 c 0
 975.666666667 443.666666667 987 491.666666667 987 537 c 0
 987 607.666666667 962.333333333 661.5 913 698.5 c 128
 863.666666667 735.5 799 754 719 754 c 0
 589 754 424 706 224 610 c 0
 214.666666667 605.333333333 205 603 195 603 c 0
 178.333333333 603 164.333333333 608.5 153 619.5 c 128
 141.666666667 630.5 134.666666667 642.333333333 132 655 c 0
 126.666666667 681.666666667 121.5 717.333333333 116.5 762 c 128
 111.5 806.666666667 107.333333333 854.666666667 104 906 c 128
 100.666666667 957.333333333 99 1006 99 1052 c 0
 99 1080.66666667 100.5 1112.16666667 103.5 1146.5 c 128
 106.5 1180.83333333 110.5 1212.5 115.5 1241.5 c 128
 120.5 1270.5 126 1291.33333333 132 1304 c 0
 142.666666667 1328 162 1348.66666667 190 1366 c 0
 220.666666667 1384.66666667 281.333333333 1394 372 1394 c 0
EndSplineSet
Validated: 524321
EndChar

StartChar: six
Encoding: 54 54 82
Width: 1177
VWidth: 2048
GlyphClass: 2
Flags: W
LayerCount: 2
Fore
SplineSet
617 1340 m 0
 633 1340 646.666666667 1333.5 658 1320.5 c 128
 669.333333333 1307.5 675 1293 675 1277 c 0
 675 1255.66666667 661.666666667 1237 635 1221 c 0
 502.333333333 1139 392.333333333 1004.33333333 305 817 c 0
 280.333333333 763 261.833333333 712.833333333 249.5 666.5 c 128
 237.166666667 620.166666667 231 573.333333333 231 526 c 0
 231 279.333333333 356 156 606 156 c 0
 752.666666667 156 848.666666667 185 894 243 c 0
 928 285.666666667 945 330 945 376 c 0
 945 410 935.5 443 916.5 475 c 128
 897.5 507 871.833333333 533.5 839.5 554.5 c 128
 807.166666667 575.5 771.333333333 586 732 586 c 0
 681.333333333 586 631.833333333 573 583.5 547 c 128
 535.166666667 521 498 495.333333333 472 470 c 0
 442.666666667 442 416.666666667 428 394 428 c 0
 378 428 363.5 435.166666667 350.5 449.5 c 128
 337.5 463.833333333 331 478 331 492 c 0
 331 508 339 523.666666667 355 539 c 0
 437 617 529.666666667 672 633 704 c 0
 669 715.333333333 703.666666667 721 737 721 c 0
 799.666666667 721 856.666666667 703.333333333 908 668 c 128
 959.333333333 632.666666667 1000.16666667 588.333333333 1030.5 535 c 128
 1060.83333333 481.666666667 1076 428 1076 374 c 0
 1076 339.333333333 1069.66666667 304 1057 268 c 128
 1044.33333333 232 1024.33333333 196.666666667 997 162 c 0
 925.666666667 71.3333333333 796 26 608 26 c 0
 364.666666667 26 206 120 132 308 c 0
 108 368.666666667 96 431.666666667 96 497 c 0
 96 535 100 573.666666667 108 613 c 0
 159.333333333 857 255.333333333 1049.33333333 396 1190 c 0
 496 1290 569.666666667 1340 617 1340 c 0
EndSplineSet
Validated: 524289
EndChar

StartChar: seven
Encoding: 55 55 83
Width: 1200
VWidth: 2048
GlyphClass: 2
Flags: W
LayerCount: 2
Fore
SplineSet
968 1053 m 0
 968 1143.66666667 950.333333333 1206.83333333 915 1242.5 c 128
 879.666666667 1278.16666667 816 1296 724 1296 c 0
 706 1296 687 1295.33333333 667 1294 c 0
 549.666666667 1286 389.333333333 1243.66666667 186 1167 c 0
 177.333333333 1163.66666667 169 1162 161 1162 c 0
 142.333333333 1162 127.333333333 1169.16666667 116 1183.5 c 128
 104.666666667 1197.83333333 99 1213.66666667 99 1231 c 0
 99 1243 102.166666667 1254.33333333 108.5 1265 c 128
 114.833333333 1275.66666667 125.333333333 1283.66666667 140 1289 c 0
 390 1383 588 1430 734 1430 c 0
 856.666666667 1430 948 1397.33333333 1008 1332 c 128
 1068 1266.66666667 1098 1172 1098 1048 c 0
 1098 1006 1094.66666667 960.333333333 1088 911 c 0
 1076 825 1044.66666667 684.666666667 994 490 c 0
 942.666666667 292.666666667 912.666666667 151 904 65 c 0
 902 47.6666666667 894.333333333 33.6666666667 881 23 c 128
 867.666666667 12.3333333333 853 7 837 7 c 0
 819.666666667 7 804.5 14 791.5 28 c 128
 778.5 42 773 58.3333333333 775 77 c 0
 783.666666667 169.666666667 813.666666667 315 865 513 c 0
 890.333333333 612.333333333 910.833333333 695.166666667 926.5 761.5 c 128
 942.166666667 827.833333333 952.333333333 878.333333333 957 913 c 0
 964.333333333 965 968 1011.66666667 968 1053 c 0
EndSplineSet
Validated: 524321
EndChar

StartChar: eight
Encoding: 56 56 84
Width: 1189
VWidth: 2048
GlyphClass: 2
Flags: W
LayerCount: 2
Fore
SplineSet
849 997 m 0
 829 997 811.166666667 1002.66666667 795.5 1014 c 128
 779.833333333 1025.33333333 772 1037.66666667 772 1051 c 0
 772 1056.33333333 773 1062.16666667 775 1068.5 c 128
 777 1074.83333333 778 1081 778 1087 c 0
 778 1112.33333333 758 1135.66666667 718 1157 c 0
 673.333333333 1181 597.666666667 1193 491 1193 c 0
 409 1193 345.166666667 1181.66666667 299.5 1159 c 128
 253.833333333 1136.33333333 231 1101.66666667 231 1055 c 0
 231 1005.66666667 256.333333333 948.333333333 307 883 c 1
 343.666666667 853.666666667 380.5 826.166666667 417.5 800.5 c 128
 454.5 774.833333333 491.333333333 751 528 729 c 1
 569.333333333 760.333333333 636.333333333 808.333333333 729 873 c 0
 823.666666667 939 886.666666667 988.666666667 918 1022 c 0
 935.333333333 1040.66666667 952.666666667 1050 970 1050 c 0
 984.666666667 1050 999.5 1042.83333333 1014.5 1028.5 c 128
 1029.5 1014.16666667 1037 999.333333333 1037 984 c 0
 1037 966.666666667 1027.33333333 948 1008 928 c 0
 971.333333333 889.333333333 909.333333333 839.666666667 822 779 c 0
 778 748.333333333 742.166666667 723.333333333 714.5 704 c 128
 686.833333333 684.666666667 667.333333333 670.666666667 656 662 c 1
 663.333333333 658.666666667 678 651.833333333 700 641.5 c 128
 722 631.166666667 751 618 787 602 c 0
 858.333333333 570.666666667 918.333333333 527.333333333 967 472 c 0
 1015 418 1050 369 1072 325 c 0
 1084.66666667 300.333333333 1091 274 1091 246 c 0
 1091 226.666666667 1087.66666667 206.333333333 1081 185 c 0
 1066.33333333 136.333333333 1026 91.6666666667 960 51 c 0
 892.666666667 9 788 -12 646 -12 c 0
 514.666666667 -12 414 6.66666666667 344 44 c 0
 230 105.333333333 173 180 173 268 c 0
 173 373.333333333 255.333333333 498.333333333 420 643 c 1
 302.666666667 717.666666667 231.333333333 770.666666667 206 802 c 0
 175.333333333 840.666666667 149.833333333 881.833333333 129.5 925.5 c 128
 109.166666667 969.166666667 99 1012.33333333 99 1055 c 0
 99 1115.66666667 118.666666667 1165.83333333 158 1205.5 c 128
 197.333333333 1245.16666667 247.833333333 1274.83333333 309.5 1294.5 c 128
 371.166666667 1314.16666667 435.666666667 1324 503 1324 c 0
 621.666666667 1324 711 1308 771 1276 c 0
 865.666666667 1224.66666667 913 1165.33333333 913 1098 c 0
 913 1074 907.666666667 1051.16666667 897 1029.5 c 128
 886.333333333 1007.83333333 870.333333333 997 849 997 c 0
540 574 m 1
 408.666666667 466.666666667 332 372.666666667 310 292 c 0
 308 284 307 276.333333333 307 269 c 0
 307 231 334 197.333333333 388 168 c 0
 451.333333333 134 537 117 645 117 c 0
 761 117 842 131 888 159 c 0
 911.333333333 173.666666667 929.666666667 186.166666667 943 196.5 c 128
 956.333333333 206.833333333 963 218.333333333 963 231 c 0
 963 245.666666667 955.666666667 265.333333333 941 290 c 0
 891.666666667 376 825 439.333333333 741 480 c 0
 710.333333333 495.333333333 677.5 510.666666667 642.5 526 c 128
 607.5 541.333333333 573.333333333 557.333333333 540 574 c 1
EndSplineSet
Validated: 524289
EndChar

StartChar: nine
Encoding: 57 57 85
Width: 1114
VWidth: 2048
GlyphClass: 2
Flags: W
LayerCount: 2
Fore
SplineSet
370 596 m 0
 311.333333333 596 262.166666667 611.333333333 222.5 642 c 128
 182.833333333 672.666666667 153 712.666666667 133 762 c 128
 113 811.333333333 103 864 103 920 c 0
 103 1022.66666667 127.166666667 1109.16666667 175.5 1179.5 c 128
 223.833333333 1249.83333333 286 1301.66666667 362 1335 c 0
 424 1361.66666667 491.333333333 1375 564 1375 c 0
 686.666666667 1375 824.666666667 1337.33333333 978 1262 c 0
 1002 1250 1014 1231 1014 1205 c 0
 1014 1188.33333333 1008.33333333 1173 997 1159 c 128
 985.666666667 1145 970.666666667 1138 952 1138 c 0
 942 1138 931.666666667 1140.33333333 921 1145 c 0
 785.666666667 1211.66666667 667 1245 565 1245 c 0
 487 1245 421.833333333 1227.66666667 369.5 1193 c 128
 317.166666667 1158.33333333 280 1112.66666667 258 1056 c 0
 239.333333333 1008 230 962.666666667 230 920 c 0
 230 897.333333333 232.666666667 875 238 853 c 0
 250 809 267.166666667 776.666666667 289.5 756 c 128
 311.833333333 735.333333333 338 725 368 725 c 0
 420.666666667 725 483.666666667 753.333333333 557 810 c 256
 630.333333333 866.666666667 709 951.666666667 793 1065 c 0
 805.666666667 1081.66666667 822.666666667 1090 844 1090 c 0
 858.666666667 1090 872.333333333 1085.5 885 1076.5 c 128
 897.666666667 1067.5 905.666666667 1055.33333333 909 1040 c 0
 930.333333333 943.333333333 941 819.666666667 941 669 c 0
 941 492.333333333 926.333333333 279 897 29 c 0
 895 10.3333333333 887.5 -3.5 874.5 -12.5 c 128
 861.5 -21.5 847.666666667 -26 833 -26 c 0
 816.333333333 -26 801 -20.8333333333 787 -10.5 c 128
 773 -0.166666666667 766 15 766 35 c 0
 766 37.6666666667 766.333333333 40.6666666667 767 44 c 0
 795 282.666666667 809 489.333333333 809 664 c 0
 809 737.333333333 806.666666667 805.333333333 802 868 c 1
 768 829.333333333 727.833333333 788.833333333 681.5 746.5 c 128
 635.166666667 704.166666667 585.5 668.5 532.5 639.5 c 128
 479.5 610.5 425.333333333 596 370 596 c 0
EndSplineSet
Validated: 524289
EndChar

StartChar: colon
Encoding: 58 58 86
Width: 462
VWidth: 2048
GlyphClass: 2
Flags: W
LayerCount: 2
Fore
SplineSet
370 853 m 0
 370 823.666666667 357 800.166666667 331 782.5 c 128
 305 764.833333333 275.333333333 756 242 756 c 0
 204 756 172.666666667 765.833333333 148 785.5 c 128
 123.333333333 805.166666667 111 831.666666667 111 865 c 0
 111 879.666666667 113.666666667 895 119 911 c 0
 125 929 138.666666667 951 160 977 c 128
 181.333333333 1003 204.666666667 1016 230 1016 c 0
 252 1016 273.666666667 1007.33333333 295 990 c 128
 316.333333333 972.666666667 334.166666667 951.333333333 348.5 926 c 128
 362.833333333 900.666666667 370 876.333333333 370 853 c 0
362 171 m 0
 362 141.666666667 349 118.166666667 323 100.5 c 128
 297 82.8333333333 267.333333333 74 234 74 c 0
 196 74 164.666666667 83.8333333333 140 103.5 c 128
 115.333333333 123.166666667 103 149.666666667 103 183 c 0
 103 197.666666667 105.666666667 213 111 229 c 0
 117 247 130.666666667 269 152 295 c 128
 173.333333333 321 196.666666667 334 222 334 c 0
 244 334 265.666666667 325.333333333 287 308 c 128
 308.333333333 290.666666667 326.166666667 269.333333333 340.5 244 c 128
 354.833333333 218.666666667 362 194.333333333 362 171 c 0
EndSplineSet
Validated: 524289
EndChar

StartChar: semicolon
Encoding: 59 59 87
Width: 425
VWidth: 2048
GlyphClass: 2
Flags: W
LayerCount: 2
Fore
SplineSet
335 686 m 0
 335 657.333333333 324.666666667 632.166666667 304 610.5 c 128
 283.333333333 588.833333333 257.333333333 578 226 578 c 0
 189.333333333 578 161.833333333 589.833333333 143.5 613.5 c 128
 125.166666667 637.166666667 116 666 116 700 c 0
 116 716.666666667 118 733.333333333 122 750 c 0
 124.666666667 762 130.666666667 777.166666667 140 795.5 c 128
 149.333333333 813.833333333 160.5 830.166666667 173.5 844.5 c 128
 186.5 858.833333333 200.666666667 866 216 866 c 0
 236 866 255.166666667 855.833333333 273.5 835.5 c 128
 291.833333333 815.166666667 306.666666667 791 318 763 c 128
 329.333333333 735 335 709.333333333 335 686 c 0
238 431 m 0
 283.333333333 431 314.5 414.5 331.5 381.5 c 128
 348.5 348.5 357 311 357 269 c 0
 357 231.666666667 352.666666667 192.666666667 344 152 c 128
 335.333333333 111.333333333 325 74.1666666667 313 40.5 c 128
 301 6.83333333333 290.333333333 -19 281 -37 c 0
 264.333333333 -69 253.333333333 -87.3333333333 248 -92 c 0
 236 -112.666666667 216.666666667 -123 190 -123 c 0
 170.666666667 -123 153.833333333 -114.5 139.5 -97.5 c 128
 125.166666667 -80.5 123 -58.3333333333 133 -31 c 0
 145.666666667 5.66666666667 152 36.6666666667 152 62 c 0
 152 70 151.333333333 77.3333333333 150 84 c 0
 145.333333333 111.333333333 141 135.166666667 137 155.5 c 128
 133 175.833333333 129 192.333333333 125 205 c 0
 117.666666667 229 114 252.333333333 114 275 c 0
 114 305 120.333333333 331.666666667 133 355 c 128
 145.666666667 378.333333333 162 397.333333333 182 412 c 0
 199.333333333 424.666666667 218 431 238 431 c 0
EndSplineSet
Validated: 524321
EndChar

StartChar: less
Encoding: 60 60 88
Width: 1250
VWidth: 2048
GlyphClass: 2
Flags: W
LayerCount: 2
Fore
SplineSet
1060 967 m 0
 1069.33333333 970.333333333 1078 972 1086 972 c 0
 1104.66666667 972 1119.5 965.166666667 1130.5 951.5 c 128
 1141.5 937.833333333 1147 922.666666667 1147 906 c 0
 1147 893.333333333 1143.66666667 881.5 1137 870.5 c 128
 1130.33333333 859.5 1120 851.333333333 1106 846 c 0
 1076 834.666666667 1032 817.833333333 974 795.5 c 128
 916 773.166666667 852.166666667 748.666666667 782.5 722 c 128
 712.833333333 695.333333333 644.666666667 669 578 643 c 128
 511.333333333 617 453.333333333 594.166666667 404 574.5 c 128
 354.666666667 554.833333333 322.333333333 541 307 533 c 0
 277.666666667 519 254.666666667 504.666666667 238 490 c 1
 253.333333333 477.333333333 280.666666667 461.666666667 320 443 c 0
 353.333333333 427.666666667 412.666666667 404 498 372 c 128
 583.333333333 340 692 301 824 255 c 0
 884 234.333333333 937.666666667 215.666666667 985 199 c 128
 1032.33333333 182.333333333 1073.33333333 168 1108 156 c 0
 1121.33333333 151.333333333 1131.66666667 143 1139 131 c 128
 1146.33333333 119 1150 106.333333333 1150 93 c 0
 1150 75 1141.66666667 58.3333333333 1125 43 c 128
 1108.33333333 27.6666666667 1088 24.3333333333 1064 33 c 0
 1029.33333333 45 987.833333333 59.6666666667 939.5 77 c 128
 891.166666667 94.3333333333 837 113.333333333 777 134 c 0
 672.333333333 170.666666667 586.166666667 201 518.5 225 c 128
 450.833333333 249 393.833333333 270.333333333 347.5 289 c 128
 301.166666667 307.666666667 257.666666667 327.333333333 217 348 c 0
 193 360.666666667 167.333333333 378.5 140 401.5 c 128
 112.666666667 424.5 99 453 99 487 c 0
 99 502.333333333 102.333333333 518 109 534 c 0
 121.666666667 563.333333333 140.833333333 586.166666667 166.5 602.5 c 128
 192.166666667 618.833333333 219.333333333 634.333333333 248 649 c 0
 310.666666667 680.333333333 462.333333333 741.333333333 703 832 c 0
 852.333333333 888 971.333333333 933 1060 967 c 0
EndSplineSet
Validated: 524321
EndChar

StartChar: equal
Encoding: 61 61 89
Width: 866
VWidth: 2048
GlyphClass: 2
Flags: W
LayerCount: 2
Fore
SplineSet
179 757 m 2
 160.333333333 757 143.166666667 762.666666667 127.5 774 c 128
 111.833333333 785.333333333 104 800.333333333 104 819 c 256
 104 837.666666667 111.833333333 852.833333333 127.5 864.5 c 128
 143.166666667 876.166666667 160.333333333 882 179 882 c 2
 691 882 l 2
 710.333333333 882 727.666666667 876.166666667 743 864.5 c 128
 758.333333333 852.833333333 766 837.666666667 766 819 c 256
 766 800.333333333 758.333333333 785.333333333 743 774 c 128
 727.666666667 762.666666667 710.333333333 757 691 757 c 2
 179 757 l 2
176 343 m 2
 156.666666667 343 139.166666667 349.166666667 123.5 361.5 c 128
 107.833333333 373.833333333 100 389.333333333 100 408 c 0
 100 427.333333333 107.833333333 443 123.5 455 c 128
 139.166666667 467 156.666666667 473 176 473 c 2
 690 473 l 2
 709.333333333 473 726.833333333 467 742.5 455 c 128
 758.166666667 443 766 427.333333333 766 408 c 0
 766 389.333333333 758.166666667 373.833333333 742.5 361.5 c 128
 726.833333333 349.166666667 709.333333333 343 690 343 c 2
 176 343 l 2
EndSplineSet
Validated: 524289
EndChar

StartChar: greater
Encoding: 62 62 90
Width: 1250
VWidth: 2048
GlyphClass: 2
Flags: W
LayerCount: 2
Fore
SplineSet
191 967 m 0
 280.333333333 933 399.333333333 888 548 832 c 0
 788.666666667 741.333333333 940.333333333 680.333333333 1003 649 c 0
 1031.66666667 634.333333333 1058.83333333 618.833333333 1084.5 602.5 c 128
 1110.16666667 586.166666667 1129.33333333 563.333333333 1142 534 c 0
 1148.66666667 518 1152 502.333333333 1152 487 c 0
 1152 453 1138.33333333 424.5 1111 401.5 c 128
 1083.66666667 378.5 1058 360.666666667 1034 348 c 0
 993.333333333 327.333333333 949.833333333 307.666666667 903.5 289 c 128
 857.166666667 270.333333333 800 249 732 225 c 128
 664 201 577.666666667 170.666666667 473 134 c 0
 413 113.333333333 359 94.3333333333 311 77 c 128
 263 59.6666666667 221.666666667 45 187 33 c 0
 163 24.3333333333 142.666666667 27.6666666667 126 43 c 128
 109.333333333 58.3333333333 101 75 101 93 c 0
 101 106.333333333 104.666666667 119 112 131 c 128
 119.333333333 143 129.666666667 151.333333333 143 156 c 0
 177.666666667 168 218.5 182.333333333 265.5 199 c 128
 312.5 215.666666667 366 234.333333333 426 255 c 0
 558 301 666.666666667 340 752 372 c 128
 837.333333333 404 896.666666667 427.666666667 930 443 c 0
 949.333333333 452.333333333 965.833333333 460.833333333 979.5 468.5 c 128
 993.166666667 476.166666667 1004.33333333 483.333333333 1013 490 c 1
 996.333333333 504.666666667 973.333333333 519 944 533 c 0
 883.333333333 563.666666667 736 622.666666667 502 710 c 0
 427.333333333 738 360.166666667 763.5 300.5 786.5 c 128
 240.833333333 809.5 188.666666667 829.333333333 144 846 c 0
 130 851.333333333 119.833333333 859.5 113.5 870.5 c 128
 107.166666667 881.5 104 893 104 905 c 0
 104 921.666666667 109.5 937 120.5 951 c 128
 131.5 965 146 972 164 972 c 0
 172.666666667 972 181.666666667 970.333333333 191 967 c 0
EndSplineSet
Validated: 524321
EndChar

StartChar: question
Encoding: 63 63 91
Width: 984
VWidth: 2048
GlyphClass: 2
Flags: W
LayerCount: 2
Fore
SplineSet
394 1277 m 0
 346.666666667 1277 307.5 1265 276.5 1241 c 128
 245.5 1217 230 1179.66666667 230 1129 c 0
 230 1105 233.333333333 1078 240 1048 c 0
 241.333333333 1042.66666667 242 1037.66666667 242 1033 c 0
 242 1013.66666667 234.833333333 998.5 220.5 987.5 c 128
 206.166666667 976.5 190.666666667 971 174 971 c 0
 160 971 147 975 135 983 c 128
 123 991 115.333333333 1003.66666667 112 1021 c 0
 104 1059.66666667 100 1095.66666667 100 1129 c 0
 100 1215 128 1282.66666667 184 1332 c 128
 240 1381.33333333 309 1406 391 1406 c 0
 445.666666667 1406 506.666666667 1395.33333333 574 1374 c 0
 754 1316 856 1238.66666667 880 1142 c 0
 882.666666667 1130.66666667 884 1119.33333333 884 1108 c 0
 884 1028.66666667 818.333333333 935 687 827 c 0
 621.666666667 773.666666667 575 726.333333333 547 685 c 0
 519.666666667 645 506 600 506 550 c 0
 506 515.333333333 512.5 480.833333333 525.5 446.5 c 128
 538.5 412.166666667 555.666666667 381 577 353 c 0
 586.333333333 341 591 328.333333333 591 315 c 0
 591 297 583.666666667 281.5 569 268.5 c 128
 554.333333333 255.5 538.333333333 249 521 249 c 0
 501.666666667 249 485.666666667 257.333333333 473 274 c 0
 409 358.666666667 377 453 377 557 c 0
 377 628.333333333 401.333333333 700.666666667 450 774 c 0
 476.666666667 813.333333333 523.666666667 860.666666667 591 916 c 0
 657 970 707 1020.33333333 741 1067 c 0
 755.666666667 1083.66666667 761.333333333 1099.33333333 758 1114 c 0
 753.333333333 1134 736.666666667 1153.16666667 708 1171.5 c 128
 679.333333333 1189.83333333 647.833333333 1206.16666667 613.5 1220.5 c 128
 579.166666667 1234.83333333 551 1245.33333333 529 1252 c 0
 478.333333333 1268.66666667 433.333333333 1277 394 1277 c 0
518 -131 m 256
 486.666666667 -131 461.166666667 -117 441.5 -89 c 128
 421.833333333 -61 412 -30.6666666667 412 2 c 0
 412 35.3333333333 421.833333333 65.8333333333 441.5 93.5 c 128
 461.166666667 121.166666667 486.666666667 135 518 135 c 256
 549.333333333 135 574.666666667 121.166666667 594 93.5 c 128
 613.333333333 65.8333333333 623 35.3333333333 623 2 c 0
 623 -30.6666666667 613.333333333 -61 594 -89 c 128
 574.666666667 -117 549.333333333 -131 518 -131 c 256
EndSplineSet
Validated: 524321
EndChar

StartChar: at
Encoding: 64 64 92
Width: 1555
VWidth: 2048
GlyphClass: 2
Flags: W
LayerCount: 2
Fore
SplineSet
708 -40 m 0
 610 -40 534 -10.6666666667 480 48 c 128
 426 106.666666667 399 185.666666667 399 285 c 0
 399 353.666666667 413.666666667 415 443 469 c 128
 472.333333333 523 508.333333333 566.666666667 551 600 c 0
 605.666666667 642.666666667 675 664 759 664 c 0
 839.666666667 664 900.5 649.333333333 941.5 620 c 128
 982.5 590.666666667 1016.66666667 546 1044 486 c 0
 1056 459.333333333 1062 430.333333333 1062 399 c 0
 1062 373.666666667 1060.16666667 354.833333333 1056.5 342.5 c 128
 1052.83333333 330.166666667 1052 307 1054 273 c 0
 1055.33333333 253 1059.66666667 230.5 1067 205.5 c 128
 1074.33333333 180.5 1083.66666667 157.666666667 1095 137 c 128
 1106.33333333 116.333333333 1118.33333333 102 1131 94 c 0
 1137 88.6666666667 1144.66666667 86 1154 86 c 0
 1170 86 1190.66666667 95.6666666667 1216 115 c 0
 1251.33333333 141 1278 180.333333333 1296 233 c 128
 1314 285.666666667 1323 341.333333333 1323 400 c 0
 1323 468 1312 530.333333333 1290 587 c 0
 1238 720.333333333 1127 806.333333333 957 845 c 0
 879.666666667 862.333333333 808.333333333 871 743 871 c 0
 523 871 371 771.333333333 287 572 c 0
 273.666666667 539.333333333 263 505 255 469 c 128
 247 433 238.666666667 395.333333333 230 356 c 0
 228.666666667 351.333333333 228 344.333333333 228 335 c 0
 228 248.333333333 241.833333333 170.666666667 269.5 102 c 128
 297.166666667 33.3333333333 335 -26.6666666667 383 -78 c 0
 471 -172 590.666666667 -219 742 -219 c 0
 752.666666667 -219 763.666666667 -218.666666667 775 -218 c 128
 786.333333333 -217.333333333 797.666666667 -217 809 -217 c 0
 829 -217 844.166666667 -223.833333333 854.5 -237.5 c 128
 864.833333333 -251.166666667 870 -266.333333333 870 -283 c 0
 870 -298.333333333 865.333333333 -312.5 856 -325.5 c 128
 846.666666667 -338.5 832 -345.666666667 812 -347 c 0
 789.333333333 -349 767.333333333 -350 746 -350 c 0
 644.666666667 -350 555.666666667 -333 479 -299 c 128
 402.333333333 -265 338.666666667 -221 288 -167 c 0
 181.333333333 -52.3333333333 120 88.3333333333 104 255 c 0
 101.333333333 281 100 304.666666667 100 326 c 0
 100 352.666666667 102 376.333333333 106 397 c 0
 124 517.666666667 159.5 623.166666667 212.5 713.5 c 128
 265.5 803.833333333 336.5 874 425.5 924 c 128
 514.5 974 622 999 748 999 c 0
 827.333333333 999 912.333333333 988.666666667 1003 968 c 0
 1207 920.666666667 1343 809.333333333 1411 634 c 0
 1441 557.333333333 1456 480 1456 402 c 0
 1456 340.666666667 1446.66666667 279 1428 217 c 0
 1418 182.333333333 1400.5 144.666666667 1375.5 104 c 128
 1350.5 63.3333333333 1319.83333333 28.5 1283.5 -0.5 c 128
 1247.16666667 -29.5 1206.33333333 -44 1161 -44 c 0
 1109.66666667 -44 1067.83333333 -28.6666666667 1035.5 2 c 128
 1003.16666667 32.6666666667 978.666666667 69 962 111 c 1
 904.666666667 23.6666666667 838.666666667 -25.3333333333 764 -36 c 0
 745.333333333 -38.6666666667 726.666666667 -40 708 -40 c 0
765 534 m 0
 689.666666667 534 631.666666667 510.5 591 463.5 c 128
 550.333333333 416.5 530 355.333333333 530 280 c 0
 530 243.333333333 536 210 548 180 c 128
 560 150 577.333333333 129.333333333 600 118 c 0
 646 97.3333333333 684.333333333 87 715 87 c 0
 721 87 726.666666667 87.3333333333 732 88 c 0
 806.666666667 99.3333333333 871 182.666666667 925 338 c 0
 929 348.666666667 931 367.666666667 931 395 c 0
 931 415.666666667 925.333333333 436 914 456 c 128
 902.666666667 476 892.333333333 491.333333333 883 502 c 256
 873.666666667 512.666666667 857.666666667 520.666666667 835 526 c 128
 812.333333333 531.333333333 789 534 765 534 c 0
EndSplineSet
Validated: 524321
EndChar

StartChar: bracketleft
Encoding: 91 91 93
Width: 868
VWidth: 2048
GlyphClass: 2
Flags: W
LayerCount: 2
Fore
SplineSet
704 15 m 2
 722 15 737.333333333 8.66666666667 750 -4 c 128
 762.666666667 -16.6666666667 769 -32 769 -50 c 256
 769 -68 762.5 -83.3333333333 749.5 -96 c 128
 736.5 -108.666666667 721.333333333 -115 704 -115 c 2
 177 -125 l 1
 175 -125 l 2
 157.666666667 -125 142.5 -118.5 129.5 -105.5 c 128
 116.5 -92.5 110 -77.3333333333 110 -60 c 2
 100 1358 l 1
 100 1359 l 2
 100 1377.66666667 106.166666667 1393 118.5 1405 c 128
 130.833333333 1417 146 1423.33333333 164 1424 c 2
 693 1434 l 1
 695 1434 l 2
 713 1434 728.333333333 1427.66666667 741 1415 c 128
 753.666666667 1402.33333333 760 1387 760 1369 c 0
 760 1351.66666667 753.666666667 1336.5 741 1323.5 c 128
 728.333333333 1310.5 713.333333333 1304 696 1304 c 2
 230 1295 l 1
 240 7 l 1
 702 15 l 1
 704 15 l 2
EndSplineSet
Validated: 524289
EndChar

StartChar: backslash
Encoding: 92 92 94
Width: 959
VWidth: 2048
GlyphClass: 2
Flags: W
LayerCount: 2
Fore
SplineSet
106 1423 m 2
 102 1433 100 1442.66666667 100 1452 c 0
 100 1470.66666667 107.166666667 1485.5 121.5 1496.5 c 128
 135.833333333 1507.5 151.333333333 1513 168 1513 c 0
 194.666666667 1513 213.333333333 1500.66666667 224 1476 c 2
 854 -12 l 2
 857.333333333 -20.6666666667 859 -29.3333333333 859 -38 c 0
 859 -55.3333333333 853 -70.5 841 -83.5 c 128
 829 -96.5 814 -103 796 -103 c 0
 765.333333333 -103 744.666666667 -90 734 -64 c 2
 106 1423 l 2
EndSplineSet
Validated: 524289
EndChar

StartChar: bracketright
Encoding: 93 93 95
Width: 868
VWidth: 2048
GlyphClass: 2
Flags: W
LayerCount: 2
Fore
SplineSet
165 15 m 2
 167 15 l 1
 629 7 l 1
 638 1295 l 1
 173 1304 l 2
 155.666666667 1304 140.5 1310.5 127.5 1323.5 c 128
 114.5 1336.5 108 1351.66666667 108 1369 c 0
 108 1387 114.333333333 1402.33333333 127 1415 c 128
 139.666666667 1427.66666667 155 1434 173 1434 c 2
 175 1434 l 1
 705 1424 l 2
 723 1423.33333333 738.166666667 1417 750.5 1405 c 128
 762.833333333 1393 769 1377.66666667 769 1359 c 1
 768 1358 l 1
 758 -60 l 2
 758 -77.3333333333 751.5 -92.5 738.5 -105.5 c 128
 725.5 -118.5 710.333333333 -125 693 -125 c 2
 692 -125 l 1
 165 -115 l 2
 147.666666667 -115 132.5 -108.666666667 119.5 -96 c 128
 106.5 -83.3333333333 100 -68 100 -50 c 256
 100 -32 106.333333333 -16.6666666667 119 -4 c 128
 131.666666667 8.66666666667 147 15 165 15 c 2
EndSplineSet
Validated: 524289
EndChar

StartChar: asciicircum
Encoding: 94 94 96
Width: 1142
VWidth: 2048
GlyphClass: 2
Flags: W
LayerCount: 2
Fore
SplineSet
104 293 m 0
 121.333333333 337.666666667 141.333333333 389.666666667 164 449 c 128
 186.666666667 508.333333333 212 575.333333333 240 650 c 0
 330.666666667 890.666666667 391.666666667 1042.33333333 423 1105 c 0
 437.666666667 1133.66666667 453.166666667 1160.83333333 469.5 1186.5 c 128
 485.833333333 1212.16666667 508.666666667 1231.33333333 538 1244 c 0
 554 1250.66666667 569.666666667 1254 585 1254 c 0
 619 1254 647.333333333 1240.33333333 670 1213 c 128
 692.666666667 1185.66666667 710.333333333 1160 723 1136 c 0
 743.666666667 1095.33333333 763.5 1051.83333333 782.5 1005.5 c 128
 801.5 959.166666667 823 902.166666667 847 834.5 c 128
 871 766.833333333 901.333333333 680.666666667 938 576 c 0
 959.333333333 516 978.333333333 461.833333333 995 413.5 c 128
 1011.66666667 365.166666667 1026 323.666666667 1038 289 c 0
 1046.66666667 265 1043.33333333 244.666666667 1028 228 c 128
 1012.66666667 211.333333333 996.333333333 203 979 203 c 0
 965.666666667 203 953 206.666666667 941 214 c 128
 929 221.333333333 920.666666667 231.666666667 916 245 c 0
 904 279.666666667 889.666666667 320.666666667 873 368 c 128
 856.333333333 415.333333333 837.333333333 469 816 529 c 0
 770 661 731.166666667 769.666666667 699.5 855 c 128
 667.833333333 940.333333333 644.333333333 999.666666667 629 1033 c 0
 611.666666667 1070.33333333 595.666666667 1097.66666667 581 1115 c 1
 568.333333333 1100.33333333 554.333333333 1077.33333333 539 1046 c 0
 524.333333333 1016 502 964.166666667 472 890.5 c 128
 442 816.833333333 405 721.333333333 361 604 c 0
 305 455.333333333 260 336.333333333 226 247 c 0
 220.666666667 233 212.333333333 222.666666667 201 216 c 128
 189.666666667 209.333333333 178 206 166 206 c 0
 149.333333333 206 134 211.5 120 222.5 c 128
 106 233.5 99 248.333333333 99 267 c 0
 99 275 100.666666667 283.666666667 104 293 c 0
EndSplineSet
Validated: 524321
EndChar

StartChar: underscore
Encoding: 95 95 97
Width: 783
VWidth: 2048
GlyphClass: 2
Flags: W
LayerCount: 2
Fore
SplineSet
147 -225 m 2
 129 -225 113.666666667 -218.666666667 101 -206 c 128
 88.3333333333 -193.333333333 82 -178 82 -160 c 256
 82 -142 88.3333333333 -126.666666667 101 -114 c 128
 113.666666667 -101.333333333 129 -95 147 -95 c 2
 628 -95 l 2
 646 -95 661.333333333 -101.333333333 674 -114 c 128
 686.666666667 -126.666666667 693 -142 693 -160 c 256
 693 -178 686.666666667 -193.333333333 674 -206 c 128
 661.333333333 -218.666666667 646 -225 628 -225 c 2
 147 -225 l 2
EndSplineSet
Validated: 524289
EndChar

StartChar: grave
Encoding: 96 96 98
Width: 215
VWidth: 2048
GlyphClass: 2
Flags: W
LayerCount: 2
Fore
SplineSet
-1 1368 m 0
 -1 1387.33333333 6 1403.16666667 20 1415.5 c 128
 34 1427.83333333 49 1434 65 1434 c 0
 91 1434 110 1423 122 1401 c 2
 195 1235 l 1
 208.333333333 1212.33333333 215 1193.66666667 215 1179 c 0
 215 1167 210.166666667 1157 200.5 1149 c 128
 190.833333333 1141 180 1137 168 1137 c 0
 152 1137 137.666666667 1148 125 1170 c 2
 9 1335 l 2
 2.33333333333 1345.66666667 -1 1356.66666667 -1 1368 c 0
EndSplineSet
Validated: 524289
EndChar

StartChar: braceleft
Encoding: 123 123 99
Width: 1096
VWidth: 2048
GlyphClass: 2
Flags: W
LayerCount: 2
Fore
SplineSet
559 1297 m 0
 526.333333333 1297 496.5 1287.5 469.5 1268.5 c 128
 442.5 1249.5 420.666666667 1225.5 404 1196.5 c 128
 387.333333333 1167.5 379 1138.33333333 379 1109 c 0
 379 1081.66666667 383.833333333 1053.33333333 393.5 1024 c 128
 403.166666667 994.666666667 415.333333333 964 430 932 c 0
 447.333333333 893.333333333 461.333333333 855.166666667 472 817.5 c 128
 482.666666667 779.833333333 488 743 488 707 c 256
 488 671 481.833333333 636 469.5 602 c 128
 457.166666667 568 437 534.666666667 409 502 c 1
 509.666666667 437.333333333 560 327.333333333 560 172 c 0
 560 124 556.666666667 74 550 22 c 128
 543.333333333 -30 540 -78.3333333333 540 -123 c 0
 540 -197 553.833333333 -261.333333333 581.5 -316 c 128
 609.166666667 -370.666666667 643.666666667 -409.333333333 685 -432 c 0
 715.666666667 -448.666666667 750.666666667 -457 790 -457 c 0
 827.333333333 -457 858.666666667 -449 884 -433 c 0
 902 -421.666666667 919 -416 935 -416 c 0
 950.333333333 -416 964.333333333 -422 977 -434 c 128
 989.666666667 -446 996 -461 996 -479 c 0
 996 -503 986 -521.666666667 966 -535 c 0
 911.333333333 -570.333333333 850 -588 782 -588 c 0
 726 -588 675 -575.333333333 629 -550 c 0
 483.666666667 -470 411 -322 411 -106 c 0
 411 -65.3333333333 414.333333333 -18.8333333333 421 33.5 c 128
 427.666666667 85.8333333333 431 136 431 184 c 0
 431 225.333333333 423.666666667 265 409 303 c 0
 384.333333333 367 341.333333333 404 280 414 c 1
 264.666666667 408.666666667 248.5 404.166666667 231.5 400.5 c 128
 214.5 396.833333333 198.333333333 395 183 395 c 0
 159.666666667 395 140 400.166666667 124 410.5 c 128
 108 420.833333333 100 439 100 465 c 0
 100 486.333333333 109.166666667 502.833333333 127.5 514.5 c 128
 145.833333333 526.166666667 167.333333333 534.333333333 192 539 c 128
 216.666666667 543.666666667 238.666666667 546 258 546 c 1
 286.666666667 560.666666667 310.666666667 582.166666667 330 610.5 c 128
 349.333333333 638.833333333 359 673.333333333 359 714 c 0
 359 728.666666667 357.333333333 744 354 760 c 0
 349.333333333 786 332.666666667 830.666666667 304 894 c 0
 288 930 274.666666667 963.833333333 264 995.5 c 128
 253.333333333 1027.16666667 248 1060.33333333 248 1095 c 0
 248 1175.66666667 270.5 1244.33333333 315.5 1301 c 128
 360.5 1357.66666667 415 1395.33333333 479 1414 c 0
 507.666666667 1422.66666667 536.666666667 1427 566 1427 c 0
 609.333333333 1427 649 1418.33333333 685 1401 c 128
 721 1383.66666667 751 1362.66666667 775 1338 c 0
 787 1326 793 1311 793 1293 c 0
 793 1275.66666667 786.833333333 1260.33333333 774.5 1247 c 128
 762.166666667 1233.66666667 747.666666667 1227 731 1227 c 0
 711.666666667 1227 693 1236 675 1254 c 0
 663 1266 646.666666667 1276.16666667 626 1284.5 c 128
 605.333333333 1292.83333333 583 1297 559 1297 c 0
EndSplineSet
Validated: 524289
EndChar

StartChar: bar
Encoding: 124 124 100
Width: 293
VWidth: 2048
GlyphClass: 2
Flags: W
LayerCount: 2
Fore
SplineSet
101 1320 m 2
 101 1338 102.333333333 1361.66666667 105 1391 c 128
 107.666666667 1420.33333333 112.333333333 1446.66666667 119 1470 c 128
 125.666666667 1493.33333333 135 1505 147 1505 c 0
 159.666666667 1505 169.333333333 1493.16666667 176 1469.5 c 128
 182.666666667 1445.83333333 187.333333333 1419.33333333 190 1390 c 128
 192.666666667 1360.66666667 194 1337 194 1319 c 2
 193 62 l 2
 193 43.3333333333 191.666666667 19.3333333333 189 -10 c 128
 186.333333333 -39.3333333333 181.666666667 -65.5 175 -88.5 c 128
 168.333333333 -111.5 158.666666667 -123 146 -123 c 256
 133.333333333 -123 123.666666667 -111.333333333 117 -88 c 128
 110.333333333 -64.6666666667 105.833333333 -38.1666666667 103.5 -8.5 c 128
 101.166666667 21.1666666667 100 45 100 63 c 2
 101 1320 l 2
EndSplineSet
Validated: 524289
EndChar

StartChar: braceright
Encoding: 125 125 101
Width: 1095
VWidth: 2048
GlyphClass: 2
Flags: W
LayerCount: 2
Fore
SplineSet
537 -448 m 0
 569.666666667 -448 599.666666667 -438.333333333 627 -419 c 128
 654.333333333 -399.666666667 676.333333333 -375.5 693 -346.5 c 128
 709.666666667 -317.5 718 -288.333333333 718 -259 c 0
 718 -231.666666667 713.166666667 -203.5 703.5 -174.5 c 128
 693.833333333 -145.5 681.666666667 -115 667 -83 c 0
 649.666666667 -44.3333333333 635.666666667 -6 625 32 c 128
 614.333333333 70 609 107 609 143 c 256
 609 179 615 214 627 248 c 128
 639 282 659 315 687 347 c 1
 586.333333333 411.666666667 536 521.666666667 536 677 c 0
 536 725 539.333333333 775 546 827 c 128
 552.666666667 879 556 927.333333333 556 972 c 0
 556 1046 542.166666667 1110.5 514.5 1165.5 c 128
 486.833333333 1220.5 452.333333333 1259.33333333 411 1282 c 0
 380.333333333 1298.66666667 345.666666667 1307 307 1307 c 0
 269.666666667 1307 238.333333333 1299 213 1283 c 0
 194.333333333 1271 176.666666667 1265 160 1265 c 0
 144.666666667 1265 130.833333333 1271 118.5 1283 c 128
 106.166666667 1295 100 1310 100 1328 c 0
 100 1352 110 1370.66666667 130 1384 c 0
 184.666666667 1419.33333333 246 1437 314 1437 c 0
 370 1437 421 1424.33333333 467 1399 c 0
 612.333333333 1319 685 1171 685 955 c 0
 685 914.333333333 681.666666667 867.833333333 675 815.5 c 128
 668.333333333 763.166666667 665 713 665 665 c 0
 665 623.666666667 672.333333333 584 687 546 c 0
 712.333333333 482 755.333333333 445 816 435 c 1
 831.333333333 440.333333333 847.5 444.833333333 864.5 448.5 c 128
 881.5 452.166666667 897.666666667 454 913 454 c 0
 936.333333333 454 956 448.833333333 972 438.5 c 128
 988 428.166666667 996 410 996 384 c 0
 996 362.666666667 986.833333333 346.166666667 968.5 334.5 c 128
 950.166666667 322.833333333 928.666666667 314.666666667 904 310 c 128
 879.333333333 305.333333333 857.333333333 303 838 303 c 1
 810 288.333333333 786.333333333 267 767 239 c 128
 747.666666667 211 738 177 738 137 c 0
 738 121.666666667 739.666666667 106 743 90 c 0
 748.333333333 60 764.666666667 15 792 -45 c 0
 808 -81 821.333333333 -114.833333333 832 -146.5 c 128
 842.666666667 -178.166666667 848 -211.333333333 848 -246 c 0
 848 -326.666666667 825.5 -395.333333333 780.5 -452 c 128
 735.5 -508.666666667 681 -546.333333333 617 -565 c 0
 588.333333333 -573.666666667 559.333333333 -578 530 -578 c 0
 486.666666667 -578 447 -569.333333333 411 -552 c 128
 375 -534.666666667 345 -513.666666667 321 -489 c 0
 309 -477 303 -462 303 -444 c 0
 303 -426.666666667 309.166666667 -411.333333333 321.5 -398 c 128
 333.833333333 -384.666666667 348.333333333 -378 365 -378 c 0
 384.333333333 -378 403 -387 421 -405 c 0
 433 -417 449.333333333 -427.166666667 470 -435.5 c 128
 490.666666667 -443.833333333 513 -448 537 -448 c 0
EndSplineSet
Validated: 524289
EndChar

StartChar: asciitilde
Encoding: 126 126 102
Width: 1531
VWidth: 2048
GlyphClass: 2
Flags: W
LayerCount: 2
Fore
SplineSet
105 658 m 0
 121 699.333333333 145.5 737.833333333 178.5 773.5 c 128
 211.5 809.166666667 250.666666667 838 296 860 c 128
 341.333333333 882 391 893 445 893 c 0
 492.333333333 893 541.666666667 883.333333333 593 864 c 0
 635.666666667 848.666666667 688.666666667 823 752 787 c 0
 795.333333333 763 840.5 740.166666667 887.5 718.5 c 128
 934.5 696.833333333 983.333333333 686 1034 686 c 0
 1070 686 1105 693 1139 707 c 0
 1215.66666667 737.666666667 1273.33333333 784 1312 846 c 0
 1324 865.333333333 1341.66666667 875 1365 875 c 0
 1387.66666667 875 1406.5 864.666666667 1421.5 844 c 128
 1436.5 823.333333333 1436.66666667 800.666666667 1422 776 c 0
 1384.66666667 716 1331.66666667 664.833333333 1263 622.5 c 128
 1194.33333333 580.166666667 1116 559 1028 559 c 0
 996.666666667 559 964.166666667 562.333333333 930.5 569 c 128
 896.833333333 575.666666667 862.333333333 586.333333333 827 601 c 0
 814.333333333 606.333333333 795.5 615.666666667 770.5 629 c 128
 745.5 642.333333333 718.5 656.666666667 689.5 672 c 128
 660.5 687.333333333 633.166666667 701.5 607.5 714.5 c 128
 581.833333333 727.5 562 736.666666667 548 742 c 0
 515.333333333 754 482.666666667 760 450 760 c 0
 397.333333333 760 351 745.5 311 716.5 c 128
 271 687.5 242.666666667 652 226 610 c 0
 220.666666667 596 212.5 585.833333333 201.5 579.5 c 128
 190.5 573.166666667 179 570 167 570 c 0
 150.333333333 570 135 575.5 121 586.5 c 128
 107 597.5 100 612.333333333 100 631 c 0
 100 639.666666667 101.666666667 648.666666667 105 658 c 0
EndSplineSet
Validated: 524321
EndChar

StartChar: exclamdown
Encoding: 161 161 104
Width: 414
VWidth: 2048
GlyphClass: 2
Flags: W
LayerCount: 2
Fore
SplineSet
314 1305 m 0
 314 1284.33333333 310 1258.83333333 302 1228.5 c 128
 294 1198.16666667 282.666666667 1171.5 268 1148.5 c 128
 253.333333333 1125.5 235.333333333 1114 214 1114 c 0
 186 1114 165.333333333 1125 152 1147 c 0
 117.333333333 1208.33333333 100 1262.33333333 100 1309 c 0
 100 1342.33333333 108.666666667 1371.83333333 126 1397.5 c 128
 143.333333333 1423.16666667 169 1436 203 1436 c 0
 239.666666667 1436 267.333333333 1422.16666667 286 1394.5 c 128
 304.666666667 1366.83333333 314 1337 314 1305 c 0
201 951 m 0
 243.666666667 951 270.666666667 935.333333333 282 904 c 128
 293.333333333 872.666666667 299 833.333333333 299 786 c 0
 299 774 299 774 299 760 c 0
 303 716.666666667 305 667.666666667 305 613 c 0
 305 463 290.666666667 271.666666667 262 39 c 0
 260 21 252.5 5.83333333333 239.5 -6.5 c 128
 226.5 -18.8333333333 211.666666667 -25 195 -25 c 256
 178.333333333 -25 164 -19 152 -7 c 128
 140 5 133 18.6666666667 131 34 c 0
 111.666666667 180.666666667 102 332.666666667 102 490 c 0
 102 582 105.333333333 675.666666667 112 771 c 0
 114 783.666666667 114.666666667 797.333333333 114 812 c 128
 113.333333333 826.666666667 114.333333333 840.666666667 117 854 c 0
 122.333333333 881.333333333 130.333333333 904.333333333 141 923 c 128
 151.666666667 941.666666667 171.666666667 951 201 951 c 0
EndSplineSet
Validated: 524321
EndChar

StartChar: cent
Encoding: 162 162 105
Width: 964
VWidth: 2048
GlyphClass: 2
Flags: W
LayerCount: 2
Fore
SplineSet
621 -4 m 1
 621.666666667 -28 623 -47 625 -61 c 128
 627 -75 628 -88.6666666667 628 -102 c 0
 628 -122 621 -137.333333333 607 -148 c 128
 593 -158.666666667 577.666666667 -164 561 -164 c 0
 527.666666667 -164 508.166666667 -149.166666667 502.5 -119.5 c 128
 496.833333333 -89.8333333333 493.666666667 -54.6666666667 493 -14 c 1
 394.333333333 -12 313.333333333 13.1666666667 250 61.5 c 128
 186.666666667 109.833333333 144 170.666666667 122 244 c 0
 107.333333333 292.666666667 100 341.666666667 100 391 c 0
 100 458.333333333 113.333333333 527 140 597 c 0
 172 683 219.666666667 758.833333333 283 824.5 c 128
 346.333333333 890.166666667 423.333333333 935.666666667 514 961 c 1
 516 1007 518 1054.33333333 520 1103 c 128
 522 1151.66666667 524 1202 526 1254 c 0
 526.666666667 1271.33333333 533.833333333 1286 547.5 1298 c 128
 561.166666667 1310 576.333333333 1316 593 1316 c 0
 610.333333333 1316 625.333333333 1309.33333333 638 1296 c 128
 650.666666667 1282.66666667 656.333333333 1266.66666667 655 1248 c 0
 653 1200.66666667 651 1154.5 649 1109.5 c 128
 647 1064.5 645.333333333 1020.66666667 644 978 c 1
 671.333333333 978 698.666666667 975.666666667 726 971 c 128
 753.333333333 966.333333333 781.333333333 959.666666667 810 951 c 0
 824 947 835 938.833333333 843 926.5 c 128
 851 914.166666667 855 901 855 887 c 0
 855 869 847 852.833333333 831 838.5 c 128
 815 824.166666667 795.666666667 820.333333333 773 827 c 0
 729 840.333333333 684.333333333 847 639 847 c 1
 633 687.666666667 628.5 548.166666667 625.5 428.5 c 128
 622.5 308.833333333 620.666666667 209 620 129 c 1
 667.333333333 137.666666667 719.666666667 152.333333333 777 173 c 0
 784.333333333 175.666666667 792 177 800 177 c 0
 817.333333333 177 832.5 170.833333333 845.5 158.5 c 128
 858.5 146.166666667 865 131.333333333 865 114 c 0
 865 98.6666666667 860.666666667 85.3333333333 852 74 c 128
 843.333333333 62.6666666667 833 55 821 51 c 0
 785 38.3333333333 750.5 27.3333333333 717.5 18 c 128
 684.5 8.66666666667 652.333333333 1.33333333333 621 -4 c 1
491 117 m 1
 491 196.333333333 492.666666667 294.833333333 496 412.5 c 128
 499.333333333 530.166666667 503.666666667 666.333333333 509 821 c 1
 450.333333333 797 400.333333333 761.666666667 359 715 c 128
 317.666666667 668.333333333 285.333333333 614.333333333 262 553 c 0
 240 494.333333333 229 438.333333333 229 385 c 0
 229 309.666666667 251.5 246.833333333 296.5 196.5 c 128
 341.5 146.166666667 406.333333333 119.666666667 491 117 c 1
EndSplineSet
Validated: 524321
EndChar

StartChar: sterling
Encoding: 163 163 106
Width: 1272
VWidth: 2048
GlyphClass: 2
Flags: W
LayerCount: 2
Fore
SplineSet
738 605 m 0
 738 591.666666667 732.333333333 577.5 721 562.5 c 128
 709.666666667 547.5 698 540 686 540 c 2
 672 540 l 1
 462 541 l 1
 470.666666667 495 475 450 475 406 c 0
 475 310.666666667 454.333333333 219.666666667 413 133 c 1
 1107 129 l 2
 1123.66666667 129 1138.66666667 123 1152 111 c 128
 1165.33333333 99 1172 85 1172 69 c 0
 1172 47 1165.83333333 30 1153.5 18 c 128
 1141.16666667 6 1125.66666667 -0.333333333333 1107 -1 c 2
 1106 -1 l 1
 298 4 l 2
 280 4 264.833333333 10.5 252.5 23.5 c 128
 240.166666667 36.5 234 51.6666666667 234 69 c 0
 234 82.3333333333 238.333333333 95 247 107 c 0
 312.333333333 195 345 294.333333333 345 405 c 0
 345 449 339.666666667 495 329 543 c 1
 165 544 l 2
 147 544 131.666666667 550.333333333 119 563 c 128
 106.333333333 575.666666667 100 591 100 609 c 0
 100 623 105.5 637.333333333 116.5 652 c 128
 127.5 666.666666667 139.333333333 674 152 674 c 2
 166 674 l 1
 300 673 l 1
 293.333333333 708.333333333 290 742.666666667 290 776 c 0
 290 887.333333333 327.666666667 981.333333333 403 1058 c 0
 446.333333333 1102.66666667 497 1137.16666667 555 1161.5 c 128
 613 1185.83333333 680.333333333 1198 757 1198 c 0
 852.333333333 1198 941.666666667 1171.66666667 1025 1119 c 0
 1045.66666667 1106.33333333 1056 1091 1056 1073 c 256
 1056 1055 1051.33333333 1038.16666667 1042 1022.5 c 128
 1032.66666667 1006.83333333 1018.66666667 999 1000 999 c 256
 981.333333333 999 966.333333333 1002.66666667 955 1010 c 0
 927 1028 895.333333333 1042.33333333 860 1053 c 128
 824.666666667 1063.66666667 787.666666667 1069 749 1069 c 0
 709.666666667 1069 671.333333333 1063 634 1051 c 0
 578 1033.66666667 528.5 1002.16666667 485.5 956.5 c 128
 442.5 910.833333333 421 852.666666667 421 782 c 0
 421 749.333333333 425 712.666666667 433 672 c 1
 673 670 l 2
 690.333333333 670 705.5 663.5 718.5 650.5 c 128
 731.5 637.5 738 622.333333333 738 605 c 0
EndSplineSet
Validated: 524289
EndChar

StartChar: currency
Encoding: 164 164 107
Width: 1401
VWidth: 2048
GlyphClass: 2
Flags: W
LayerCount: 2
Fore
SplineSet
696 5 m 0
 629.333333333 5 567.666666667 17.1666666667 511 41.5 c 128
 454.333333333 65.8333333333 406.333333333 95 367 129 c 1
 238 14 l 2
 227.333333333 3.33333333333 213.666666667 -2 197 -2 c 256
 180.333333333 -2 166.333333333 4 155 16 c 128
 143.666666667 28 138 42.3333333333 138 59 c 0
 138 77 144.666666667 92 158 104 c 2
 288 219 l 1
 258 263 235.833333333 310.166666667 221.5 360.5 c 128
 207.166666667 410.833333333 200 461.666666667 200 513 c 0
 200 611 224 702 272 786 c 1
 122 912 l 2
 107.333333333 924 100 938.666666667 100 956 c 0
 100 969.333333333 105 983 115 997 c 128
 125 1011 135.666666667 1018 147 1018 c 2
 171 1018 l 2
 178.333333333 1018 187.666666667 1013.33333333 199 1004 c 2
 343 883 l 1
 435.666666667 983 548.666666667 1036.66666667 682 1044 c 1
 686 1044 l 2
 697.333333333 1044 704.5 1043.33333333 707.5 1042 c 128
 710.5 1040.66666667 720.666666667 1039.33333333 738 1038 c 0
 756.666666667 1037.33333333 787.666666667 1030 831 1016 c 0
 912.333333333 989.333333333 983.666666667 943.333333333 1045 878 c 1
 1051 882.666666667 1065 894.166666667 1087 912.5 c 128
 1109 930.833333333 1131 949.333333333 1153 968 c 128
 1175 986.666666667 1188.66666667 998.333333333 1194 1003 c 0
 1210 1017 1222 1024 1230 1024 c 0
 1244.66666667 1024 1255 1023.33333333 1261 1022 c 128
 1267 1020.66666667 1274.66666667 1015.33333333 1284 1006 c 0
 1295.33333333 993.333333333 1301 979 1301 963 c 0
 1301 946.333333333 1292 930 1274 914 c 0
 1267.33333333 908 1252.66666667 895.5 1230 876.5 c 128
 1207.33333333 857.5 1184.66666667 838.666666667 1162 820 c 128
 1139.33333333 801.333333333 1124.66666667 789 1118 783 c 1
 1143.33333333 740.333333333 1162.83333333 694.5 1176.5 645.5 c 128
 1190.16666667 596.5 1197 543 1197 485 c 0
 1197 390.333333333 1169 302 1113 220 c 1
 1248 105 l 2
 1262 93.6666666667 1269 79.3333333333 1269 62 c 0
 1269 46 1263.16666667 31.5 1251.5 18.5 c 128
 1239.83333333 5.5 1226 -1 1210 -1 c 0
 1194.66666667 -1 1181.33333333 4 1170 14 c 2
 1034 130 l 1
 992 93.3333333333 941.666666667 63.3333333333 883 40 c 128
 824.333333333 16.6666666667 762 5 696 5 c 0
1078 495 m 0
 1078 575.666666667 1059.66666667 647.333333333 1023 710 c 128
 986.333333333 772.666666667 939.166666667 822.666666667 881.5 860 c 128
 823.833333333 897.333333333 763 918 699 922 c 0
 693.666666667 922 688.333333333 923 683 925 c 0
 597 920.333333333 518.666666667 885.666666667 448 821 c 0
 409.333333333 785.666666667 377.666666667 741.166666667 353 687.5 c 128
 328.333333333 633.833333333 316 571.666666667 316 501 c 0
 316 453.666666667 324.333333333 408 341 364 c 128
 357.666666667 320 383.333333333 280.666666667 418 246 c 0
 446 214.666666667 484 186 532 160 c 128
 580 134 633 121 691 121 c 0
 711.666666667 121 732 123 752 127 c 0
 843.333333333 144.333333333 920.5 184 983.5 246 c 128
 1046.5 308 1078 391 1078 495 c 0
EndSplineSet
Validated: 524289
EndChar

StartChar: yen
Encoding: 165 165 108
Width: 1165
VWidth: 2048
GlyphClass: 2
Flags: W
LayerCount: 2
Fore
SplineSet
943 349 m 0
 943 335.666666667 937.333333333 321.666666667 926 307 c 128
 914.666666667 292.333333333 903 285 891 285 c 2
 877 285 l 1
 691 286 l 1
 693 67 l 1
 693 52 l 2
 693 39.3333333333 685.666666667 27.5 671 16.5 c 128
 656.333333333 5.5 642 0 628 0 c 0
 610 0 594.666666667 6.33333333333 582 19 c 128
 569.333333333 31.6666666667 563 47 563 65 c 2
 561 287 l 1
 370 289 l 2
 352 289 336.666666667 295.333333333 324 308 c 128
 311.333333333 320.666666667 305 336 305 354 c 0
 305 368 310.5 382.333333333 321.5 397 c 128
 332.5 411.666666667 344 419 356 419 c 2
 371 419 l 1
 559 417 l 1
 558 524 l 1
 558 525 l 1
 370 527 l 2
 352 527 336.666666667 533.333333333 324 546 c 128
 311.333333333 558.666666667 305 574 305 592 c 0
 305 606 310.5 620.333333333 321.5 635 c 128
 332.5 649.666666667 344 657 356 657 c 2
 371 657 l 1
 471 656 l 1
 113 1139 l 2
 104.333333333 1149.66666667 100 1163.33333333 100 1180 c 0
 100 1197.33333333 106.666666667 1212.33333333 120 1225 c 128
 133.333333333 1237.66666667 149.333333333 1244 168 1244 c 0
 188.666666667 1244 205.333333333 1235 218 1217 c 2
 618 676 l 1
 944 1220 l 2
 957.333333333 1241.33333333 974.333333333 1252 995 1252 c 0
 1014.33333333 1252 1031 1246.33333333 1045 1235 c 128
 1059 1223.66666667 1066 1209.33333333 1066 1192 c 0
 1066 1176.66666667 1062.66666667 1163.66666667 1056 1153 c 2
 756 654 l 1
 878 652 l 2
 895.333333333 652 910.5 645.666666667 923.5 633 c 128
 936.5 620.333333333 943 605.333333333 943 588 c 0
 943 574 937.5 559.5 926.5 544.5 c 128
 915.5 529.5 903.666666667 522 891 522 c 2
 877 522 l 1
 688 524 l 1
 689 416 l 1
 878 415 l 2
 896.666666667 415 912.166666667 408.166666667 924.5 394.5 c 128
 936.833333333 380.833333333 943 365.666666667 943 349 c 0
EndSplineSet
Validated: 524289
EndChar

StartChar: brokenbar
Encoding: 166 166 109
Width: 342
VWidth: 2048
GlyphClass: 2
Flags: W
LayerCount: 2
Fore
SplineSet
165 709 m 0
 148.333333333 709 133.333333333 715.666666667 120 729 c 128
 106.666666667 742.333333333 100 757.333333333 100 774 c 2
 100 1390 l 2
 100 1411.33333333 106.833333333 1427.33333333 120.5 1438 c 128
 134.166666667 1448.66666667 149.333333333 1454 166 1454 c 0
 182 1454 196.666666667 1448.66666667 210 1438 c 128
 223.333333333 1427.33333333 230 1411.66666667 230 1391 c 2
 230 775 l 2
 230 757.666666667 223.5 742.333333333 210.5 729 c 128
 197.5 715.666666667 182.333333333 709 165 709 c 0
165 -107 m 0
 148.333333333 -107 133.333333333 -100.333333333 120 -87 c 128
 106.666666667 -73.6666666667 100 -58.6666666667 100 -42 c 2
 100 574 l 2
 100 595.333333333 106.833333333 611.333333333 120.5 622 c 128
 134.166666667 632.666666667 149.333333333 638 166 638 c 0
 182 638 196.666666667 632.666666667 210 622 c 128
 223.333333333 611.333333333 230 595.666666667 230 575 c 2
 230 -41 l 2
 230 -58.3333333333 223.5 -73.6666666667 210.5 -87 c 128
 197.5 -100.333333333 182.333333333 -107 165 -107 c 0
EndSplineSet
Validated: 524289
EndChar

StartChar: section
Encoding: 167 167 110
Width: 834
VWidth: 2048
GlyphClass: 2
Flags: W
LayerCount: 2
Fore
SplineSet
98 727 m 0
 98 783.666666667 110.833333333 832.333333333 136.5 873 c 128
 162.166666667 913.666666667 194.333333333 944.666666667 233 966 c 1
 177.666666667 1019.33333333 150 1084 150 1160 c 0
 150 1164 150 1164 150 1167 c 0
 150 1219.66666667 163.666666667 1266 191 1306 c 128
 218.333333333 1346 250 1376.66666667 286 1398 c 0
 327.333333333 1422 370.666666667 1434 416 1434 c 0
 418 1434 418 1434 421 1434 c 2
 445 1433 l 2
 466.333333333 1433 485.666666667 1427 503 1415 c 128
 520.333333333 1403 529 1387 529 1367 c 0
 529 1349 522.5 1333.16666667 509.5 1319.5 c 128
 496.5 1305.83333333 482.666666667 1299 468 1299 c 0
 460 1299 452 1300 444 1302 c 128
 436 1304 428.333333333 1305 421 1305 c 0
 382.333333333 1305 349.166666667 1290.83333333 321.5 1262.5 c 128
 293.833333333 1234.16666667 280 1201.66666667 280 1165 c 0
 280 1093 328 1037.33333333 424 998 c 0
 461.333333333 982.666666667 492 969.666666667 516 959 c 128
 540 948.333333333 556.666666667 939.666666667 566 933 c 0
 613.333333333 902.333333333 653.333333333 865.166666667 686 821.5 c 128
 718.666666667 777.833333333 735 724 735 660 c 0
 735 604 724.833333333 555.5 704.5 514.5 c 128
 684.166666667 473.5 656.666666667 439 622 411 c 1
 662.666666667 355 683 294 683 228 c 0
 683 174 669 123 641 75 c 0
 617.666666667 35 584 -0.666666666667 540 -32 c 128
 496 -63.3333333333 444.333333333 -79.6666666667 385 -81 c 0
 379.666666667 -82.3333333333 374 -83 368 -83 c 0
 350 -83 333.666666667 -76.5 319 -63.5 c 128
 304.333333333 -50.5 297 -35 297 -17 c 0
 297 28.3333333333 329.333333333 51 394 51 c 0
 397 51 397 51 399 51 c 0
 441.666666667 55.6666666667 477.833333333 75.1666666667 507.5 109.5 c 128
 537.166666667 143.833333333 552 184.666666667 552 232 c 0
 552 248 549.666666667 263.666666667 545 279 c 0
 529.666666667 336.333333333 482.333333333 382 403 416 c 0
 400.333333333 417.333333333 395.833333333 419.333333333 389.5 422 c 128
 383.166666667 424.666666667 375 428 365 432 c 0
 268.333333333 472 201.333333333 514.333333333 164 559 c 0
 120 610.333333333 98 666.333333333 98 727 c 0
350 871 m 0
 316 871 287.333333333 857 264 829 c 128
 240.666666667 801 229 768 229 730 c 0
 229 696 239.666666667 667.666666667 261 645 c 128
 282.333333333 622.333333333 309.166666667 603 341.5 587 c 128
 373.833333333 571 406.5 556.333333333 439.5 543 c 128
 472.5 529.666666667 500.666666667 515.333333333 524 500 c 1
 546.666666667 515.333333333 566.666666667 538.166666667 584 568.5 c 128
 601.333333333 598.833333333 610 632.666666667 610 670 c 0
 610 722 584.666666667 764.333333333 534 797 c 0
 457.333333333 846.333333333 396 871 350 871 c 0
EndSplineSet
Validated: 524289
EndChar

StartChar: dieresis
Encoding: 168 168 111
Width: 532
VWidth: 2048
GlyphClass: 2
Flags: W
LayerCount: 2
Fore
SplineSet
221 1254 m 0
 221 1225.33333333 210.666666667 1200.16666667 190 1178.5 c 128
 169.333333333 1156.83333333 143.333333333 1146 112 1146 c 0
 75.3333333333 1146 47.8333333333 1157.83333333 29.5 1181.5 c 128
 11.1666666667 1205.16666667 2 1234 2 1268 c 0
 2 1284.66666667 4 1301.33333333 8 1318 c 0
 10.6666666667 1330 16.6666666667 1345.16666667 26 1363.5 c 128
 35.3333333333 1381.83333333 46.5 1398.16666667 59.5 1412.5 c 128
 72.5 1426.83333333 86.6666666667 1434 102 1434 c 0
 122 1434 141.166666667 1423.83333333 159.5 1403.5 c 128
 177.833333333 1383.16666667 192.666666667 1359 204 1331 c 128
 215.333333333 1303 221 1277.33333333 221 1254 c 0
532 1246 m 0
 532 1217.33333333 521.666666667 1192.16666667 501 1170.5 c 128
 480.333333333 1148.83333333 454.333333333 1138 423 1138 c 0
 386.333333333 1138 358.833333333 1149.83333333 340.5 1173.5 c 128
 322.166666667 1197.16666667 313 1226 313 1260 c 0
 313 1276.66666667 315 1293.33333333 319 1310 c 0
 321.666666667 1322 327.666666667 1337.16666667 337 1355.5 c 128
 346.333333333 1373.83333333 357.5 1390.16666667 370.5 1404.5 c 128
 383.5 1418.83333333 397.666666667 1426 413 1426 c 0
 433 1426 452.166666667 1415.83333333 470.5 1395.5 c 128
 488.833333333 1375.16666667 503.666666667 1351 515 1323 c 128
 526.333333333 1295 532 1269.33333333 532 1246 c 0
EndSplineSet
Validated: 524289
EndChar

StartChar: copyright
Encoding: 169 169 112
Width: 1702
VWidth: 2048
GlyphClass: 2
Flags: W
LayerCount: 2
Fore
SplineSet
1601 678 m 0
 1601 577.333333333 1581.5 485.5 1542.5 402.5 c 128
 1503.5 319.5 1449.5 248.166666667 1380.5 188.5 c 128
 1311.5 128.833333333 1231.66666667 82.6666666667 1141 50 c 128
 1050.33333333 17.3333333333 953.333333333 1 850 1 c 0
 802.666666667 1 755 5 707 13 c 128
 659 21 611.333333333 33.6666666667 564 51 c 0
 459.333333333 89 366.333333333 149.666666667 285 233 c 128
 203.666666667 316.333333333 148.666666667 418.333333333 120 539 c 0
 106.666666667 594.333333333 100 648.666666667 100 702 c 0
 100 777.333333333 112.666666667 849.166666667 138 917.5 c 128
 163.333333333 985.833333333 196.333333333 1047.83333333 237 1103.5 c 128
 277.666666667 1159.16666667 321.333333333 1206 368 1244 c 0
 501.333333333 1353.33333333 654.666666667 1411.33333333 828 1418 c 0
 835.333333333 1418.66666667 841.833333333 1418.16666667 847.5 1416.5 c 128
 853.166666667 1414.83333333 858.333333333 1413.66666667 863 1413 c 0
 989.666666667 1406.33333333 1104 1373.5 1206 1314.5 c 128
 1308 1255.5 1389.66666667 1186.33333333 1451 1107 c 0
 1551 977 1601 834 1601 678 c 0
835 1288 m 1
 689.666666667 1282 559.333333333 1232 444 1138 c 256
 328.666666667 1044 259.666666667 924.333333333 237 779 c 0
 233 752.333333333 231 725.333333333 231 698 c 0
 231 636 240.333333333 577.833333333 259 523.5 c 128
 277.666666667 469.166666667 300.333333333 423.666666667 327 387 c 0
 380.333333333 313.666666667 451.166666667 252.5 539.5 203.5 c 128
 627.833333333 154.5 730 130 846 130 c 0
 887.333333333 130 929.666666667 133.666666667 973 141 c 0
 1063 155.666666667 1145.66666667 186.5 1221 233.5 c 128
 1296.33333333 280.5 1357 341.166666667 1403 415.5 c 128
 1449 489.833333333 1472 575.333333333 1472 672 c 0
 1472 755.333333333 1456.16666667 831.666666667 1424.5 901 c 128
 1392.83333333 970.333333333 1351.16666667 1030.83333333 1299.5 1082.5 c 128
 1247.83333333 1134.16666667 1191.66666667 1175.66666667 1131 1207 c 0
 1042.33333333 1253 950.666666667 1278.33333333 856 1283 c 0
 850 1283 843 1284.66666667 835 1288 c 1
518 622 m 0
 518 540 541.833333333 474.333333333 589.5 425 c 128
 637.166666667 375.666666667 705.333333333 351 794 351 c 0
 870.666666667 351 961 369.666666667 1065 407 c 0
 1072.33333333 409.666666667 1080 411 1088 411 c 0
 1105.33333333 411 1120.5 404.833333333 1133.5 392.5 c 128
 1146.5 380.166666667 1153 365.333333333 1153 348 c 0
 1153 332.666666667 1148.66666667 319.333333333 1140 308 c 128
 1131.33333333 296.666666667 1121 289 1109 285 c 0
 990.333333333 241.666666667 885 220 793 220 c 0
 691 220 607.333333333 244.166666667 542 292.5 c 128
 476.666666667 340.833333333 432.666666667 402.666666667 410 478 c 0
 395.333333333 526.666666667 388 575.666666667 388 625 c 0
 388 692.333333333 401.333333333 761 428 831 c 0
 452.666666667 896.333333333 488.166666667 958 534.5 1016 c 128
 580.833333333 1074 637.166666667 1121.16666667 703.5 1157.5 c 128
 769.833333333 1193.83333333 844.666666667 1212 928 1212 c 0
 982.666666667 1212 1039.33333333 1203 1098 1185 c 0
 1113.33333333 1180.33333333 1124.5 1172.5 1131.5 1161.5 c 128
 1138.5 1150.5 1142 1138.66666667 1142 1126 c 0
 1142 1109.33333333 1136.5 1093.83333333 1125.5 1079.5 c 128
 1114.5 1065.16666667 1099.66666667 1058 1081 1058 c 0
 1074.33333333 1058 1067.66666667 1059 1061 1061 c 0
 1018.33333333 1073.66666667 976.666666667 1080 936 1080 c 0
 872 1080 814.5 1066.16666667 763.5 1038.5 c 128
 712.5 1010.83333333 669 974.833333333 633 930.5 c 128
 597 886.166666667 569.333333333 838.333333333 550 787 c 0
 528.666666667 730.333333333 518 675.333333333 518 622 c 0
EndSplineSet
Validated: 524289
EndChar

StartChar: ordfeminine
Encoding: 170 170 113
Width: 893
VWidth: 2048
GlyphClass: 2
Flags: W
LayerCount: 2
Fore
SplineSet
356 668 m 0
 299.333333333 668 252 683 214 713 c 128
 176 743 147.5 781.666666667 128.5 829 c 128
 109.5 876.333333333 100 927 100 981 c 0
 100 1073 123 1159 169 1239 c 0
 218.333333333 1324.33333333 293.333333333 1383 394 1415 c 0
 438 1429 479.333333333 1436 518 1436 c 0
 596.666666667 1436 659 1412.66666667 705 1366 c 128
 751 1319.33333333 777.666666667 1260.33333333 785 1189 c 1
 790.333333333 1173.66666667 789.666666667 1154.66666667 783 1132 c 1
 775.666666667 1052.66666667 772 982.333333333 772 921 c 0
 772 838.333333333 778.666666667 771.666666667 792 721 c 0
 793.333333333 714.333333333 794 708 794 702 c 0
 794 688.666666667 787.666666667 675.833333333 775 663.5 c 128
 762.333333333 651.166666667 748 645 732 645 c 0
 711.333333333 645 694.333333333 649.666666667 681 659 c 0
 655.666666667 677 640 738 634 842 c 1
 559.333333333 738 485.666666667 682.333333333 413 675 c 1
 394.333333333 670.333333333 375.333333333 668 356 668 c 0
238 989 m 0
 238 855.666666667 269.333333333 789 332 789 c 0
 506 789 610.666666667 912.333333333 646 1159 c 0
 646.666666667 1163 647 1166.5 647 1169.5 c 128
 647 1172.5 647.333333333 1174.66666667 648 1176 c 0
 639.333333333 1267.33333333 596 1313 518 1313 c 0
 516 1313 516 1313 515 1313 c 0
 491 1313 466 1308.66666667 440 1300 c 0
 372.666666667 1278.66666667 322 1237.66666667 288 1177 c 0
 254.666666667 1117.66666667 238 1055 238 989 c 0
EndSplineSet
Validated: 524321
EndChar

StartChar: guillemotleft
Encoding: 171 171 114
Width: 1430
VWidth: 2048
GlyphClass: 2
Flags: W
LayerCount: 2
Fore
SplineSet
728 457 m 0
 728 438.333333333 722.166666667 422 710.5 408 c 128
 698.833333333 394 684.333333333 387 667 387 c 0
 652.333333333 387 639.666666667 390.333333333 629 397 c 0
 576.333333333 429 524.833333333 458.833333333 474.5 486.5 c 128
 424.166666667 514.166666667 375.333333333 539.333333333 328 562 c 0
 281.333333333 585.333333333 244.166666667 603.833333333 216.5 617.5 c 128
 188.833333333 631.166666667 171 640.333333333 163 645 c 0
 121.666666667 671 101 697.666666667 101 725 c 256
 101 752.333333333 107 773 119 787 c 128
 131 801 145 813.333333333 161 824 c 0
 169 829.333333333 186.5 839.333333333 213.5 854 c 128
 240.5 868.666666667 277.333333333 888.333333333 324 913 c 256
 370.666666667 937.666666667 418.666666667 964.666666667 468 994 c 128
 517.333333333 1023.33333333 568.333333333 1055 621 1089 c 0
 632.333333333 1096.33333333 645.666666667 1100 661 1100 c 0
 678.333333333 1100 692.833333333 1093 704.5 1079 c 128
 716.166666667 1065 722 1048.66666667 722 1030 c 0
 722 1009.33333333 712 992.333333333 692 979 c 0
 619.333333333 931.666666667 545.5 887.333333333 470.5 846 c 128
 395.5 804.666666667 328 768 268 736 c 1
 274.666666667 732.666666667 289.833333333 725.333333333 313.5 714 c 128
 337.166666667 702.666666667 369.333333333 687 410 667 c 0
 490 627.666666667 585.333333333 574.666666667 696 508 c 0
 717.333333333 495.333333333 728 478.333333333 728 457 c 0
1331 451 m 0
 1331 432.333333333 1325.16666667 416 1313.5 402 c 128
 1301.83333333 388 1287.33333333 381 1270 381 c 0
 1253.33333333 381 1240.33333333 384 1231 390 c 0
 1125 454 1025 509 931 555 c 0
 884.333333333 578.333333333 847.166666667 596.833333333 819.5 610.5 c 128
 791.833333333 624.166666667 774 633.333333333 766 638 c 0
 724 664.666666667 703 691.666666667 703 719 c 256
 703 746.333333333 709 767 721 781 c 128
 733 795 747 807.333333333 763 818 c 0
 771 823.333333333 788.5 833.333333333 815.5 848 c 128
 842.5 862.666666667 879.333333333 882.333333333 926 907 c 256
 972.666666667 931.666666667 1020.83333333 958.5 1070.5 987.5 c 128
 1120.16666667 1016.5 1171.33333333 1048 1224 1082 c 0
 1235.33333333 1089.33333333 1248.33333333 1093 1263 1093 c 0
 1280.33333333 1093 1295 1086 1307 1072 c 128
 1319 1058 1325 1041.66666667 1325 1023 c 0
 1325 1003 1314.66666667 986.333333333 1294 973 c 0
 1187.33333333 903.666666667 1093 847.333333333 1011 804 c 0
 970.333333333 782.666666667 938.333333333 765.833333333 915 753.5 c 128
 891.666666667 741.166666667 876.666666667 733.333333333 870 730 c 1
 876.666666667 726.666666667 891.833333333 719.166666667 915.5 707.5 c 128
 939.166666667 695.833333333 971.333333333 680 1012 660 c 0
 1053.33333333 640 1097.66666667 617 1145 591 c 128
 1192.33333333 565 1243.33333333 535.333333333 1298 502 c 0
 1320 489.333333333 1331 472.333333333 1331 451 c 0
EndSplineSet
Validated: 524289
EndChar

StartChar: logicalnot
Encoding: 172 172 115
Width: 1176
VWidth: 2048
GlyphClass: 2
Flags: W
LayerCount: 2
Fore
SplineSet
165 662 m 2
 164 662 164 662 163 662 c 0
 145.666666667 662 131 668.5 119 681.5 c 128
 107 694.5 100.666666667 709.666666667 100 727 c 0
 100 743.666666667 106.333333333 759 119 773 c 0
 141 794.333333333 156.333333333 800.666666667 165 792 c 1
 1009 792 l 2
 1027 791.333333333 1042.33333333 785 1055 773 c 128
 1067.66666667 761 1074 746 1074 728 c 2
 1076 339 l 1
 1076 338 l 2
 1076 320 1069.83333333 304.666666667 1057.5 292 c 128
 1045.16666667 279.333333333 1030 273 1012 273 c 256
 994 273 978.5 279.333333333 965.5 292 c 128
 952.5 304.666666667 946 320 946 338 c 2
 944 662 l 1
 165 662 l 2
EndSplineSet
Validated: 524321
EndChar

StartChar: registered
Encoding: 174 174 117
Width: 1700
VWidth: 2048
GlyphClass: 2
Flags: W
LayerCount: 2
Fore
SplineSet
836 1411 m 1
 859 1406 l 1
 863 1406 l 1
 990.333333333 1398.66666667 1104.5 1365.83333333 1205.5 1307.5 c 128
 1306.5 1249.16666667 1388 1180 1450 1100 c 0
 1498 1037.33333333 1535 968.666666667 1561 894 c 128
 1587 819.333333333 1600 743.333333333 1600 666 c 0
 1600 601.333333333 1590.5 537.333333333 1571.5 474 c 128
 1552.5 410.666666667 1522.66666667 350.666666667 1482 294 c 0
 1440.66666667 236.666666667 1387.66666667 185.333333333 1323 140 c 128
 1258.33333333 94.6666666667 1185.66666667 58.8333333333 1105 32.5 c 128
 1024.33333333 6.16666666667 939.333333333 -7 850 -7 c 0
 803.333333333 -7 755.833333333 -2.83333333333 707.5 5.5 c 128
 659.166666667 13.8333333333 611 26.6666666667 563 44 c 0
 456.333333333 83.3333333333 362.833333333 144.833333333 282.5 228.5 c 128
 202.166666667 312.166666667 147.666666667 413.333333333 119 532 c 0
 105.666666667 586.666666667 99 641 99 695 c 0
 99 773.666666667 111.333333333 846.666666667 136 914 c 128
 160.666666667 981.333333333 193 1042 233 1096 c 128
 273 1150 316.333333333 1196 363 1234 c 0
 419 1280 488.333333333 1321 571 1357 c 128
 653.666666667 1393 742 1411 836 1411 c 1
855 1276 m 0
 846.333333333 1276.66666667 839 1278.33333333 833 1281 c 1
 719 1276.33333333 615.5 1244.83333333 522.5 1186.5 c 128
 429.5 1128.16666667 358.333333333 1056.66666667 309 972 c 0
 285.666666667 932 266.666666667 888.666666667 252 842 c 128
 237.333333333 795.333333333 230 745.333333333 230 692 c 0
 230 649.333333333 235.333333333 606 246 562 c 0
 270 462.666666667 315.166666667 379.5 381.5 312.5 c 128
 447.833333333 245.5 524.333333333 196.333333333 611 165 c 0
 650.333333333 151 689.666666667 140.666666667 729 134 c 128
 768.333333333 127.333333333 807.666666667 124 847 124 c 0
 920.333333333 124 990.666666667 134.333333333 1058 155 c 128
 1125.33333333 175.666666667 1185.83333333 203.666666667 1239.5 239 c 128
 1293.16666667 274.333333333 1336 314.333333333 1368 359 c 0
 1402.66666667 407.666666667 1428.33333333 458.5 1445 511.5 c 128
 1461.66666667 564.5 1470 618 1470 672 c 0
 1470 798 1429 914.333333333 1347 1021 c 0
 1296.33333333 1087 1228 1144.5 1142 1193.5 c 128
 1056 1242.5 960.333333333 1270 855 1276 c 0
683 413 m 0
 683 381.666666667 682.666666667 352.666666667 682 326 c 128
 681.333333333 299.333333333 676.166666667 278 666.5 262 c 128
 656.833333333 246 639 238 613 238 c 0
 599 238 584.833333333 243.666666667 570.5 255 c 128
 556.166666667 266.333333333 549 278.333333333 549 291 c 0
 549 308.333333333 549.666666667 323.833333333 551 337.5 c 128
 552.333333333 351.166666667 553 371.333333333 553 398 c 0
 553 462 551.666666667 575 549 737 c 2
 542 1091 l 1
 542 1104 l 2
 542 1115.33333333 548.5 1126.66666667 561.5 1138 c 128
 574.5 1149.33333333 586.666666667 1155.66666667 598 1157 c 0
 682 1169 756.333333333 1175 821 1175 c 0
 915.666666667 1175 989.666666667 1162.33333333 1043 1137 c 0
 1150.33333333 1085.66666667 1204 997.666666667 1204 873 c 0
 1204 811.666666667 1188.33333333 758.166666667 1157 712.5 c 128
 1125.66666667 666.833333333 1088.66666667 634.333333333 1046 615 c 0
 1000 593.666666667 950.666666667 578.666666667 898 570 c 1
 1251 361 l 2
 1273 348.333333333 1284 331.333333333 1284 310 c 0
 1284 291.333333333 1278.33333333 275 1267 261 c 128
 1255.66666667 247 1241.33333333 240 1224 240 c 0
 1209.33333333 240 1196.33333333 243 1185 249 c 2
 682 548 l 1
 682 521.333333333 682.166666667 496.666666667 682.5 474 c 128
 682.833333333 451.333333333 683 431 683 413 c 0
673 1036 m 1
 675 956.666666667 676.666666667 892.5 678 843.5 c 128
 679.333333333 794.5 680 743.333333333 680 690 c 1
 698.666666667 689.333333333 716.666666667 689 734 689 c 0
 906.666666667 689 1013.66666667 720.666666667 1055 784 c 0
 1061.66666667 794 1066.5 807 1069.5 823 c 128
 1072.5 839 1074 855.666666667 1074 873 c 0
 1074 912.333333333 1068.33333333 942.666666667 1057 964 c 0
 1028.33333333 1017.33333333 948.333333333 1044 817 1044 c 0
 774.333333333 1044 726.333333333 1041.33333333 673 1036 c 1
EndSplineSet
Validated: 524289
EndChar

StartChar: macron
Encoding: 175 175 118
Width: 783
VWidth: 2048
GlyphClass: 2
Flags: W
LayerCount: 2
Fore
SplineSet
172 1021 m 2
 154 1021 138.666666667 1027.33333333 126 1040 c 128
 113.333333333 1052.66666667 107 1068 107 1086 c 256
 107 1104 113.333333333 1119.33333333 126 1132 c 128
 138.666666667 1144.66666667 154 1151 172 1151 c 2
 613 1151 l 2
 631 1151 646.333333333 1144.66666667 659 1132 c 128
 671.666666667 1119.33333333 678 1104 678 1086 c 256
 678 1068 671.666666667 1052.66666667 659 1040 c 128
 646.333333333 1027.33333333 631 1021 613 1021 c 2
 172 1021 l 2
EndSplineSet
Validated: 524289
EndChar

StartChar: degree
Encoding: 176 176 119
Width: 852
VWidth: 2048
GlyphClass: 2
Flags: W
LayerCount: 2
Fore
SplineSet
417 1422 m 0
 477.666666667 1422 533.333333333 1410.16666667 584 1386.5 c 128
 634.666666667 1362.83333333 675.333333333 1328.16666667 706 1282.5 c 128
 736.666666667 1236.83333333 752 1181.33333333 752 1116 c 0
 752 1052 729.666666667 993.333333333 685 940 c 0
 636.333333333 882 561 845.666666667 459 831 c 0
 444.333333333 829 429.666666667 828 415 828 c 0
 357.666666667 828 305.166666667 842.5 257.5 871.5 c 128
 209.833333333 900.5 171.666666667 939.333333333 143 988 c 128
 114.333333333 1036.66666667 100 1091 100 1151 c 0
 100 1204.33333333 114.5 1251.33333333 143.5 1292 c 128
 172.5 1332.66666667 211 1364.5 259 1387.5 c 128
 307 1410.5 359.666666667 1422 417 1422 c 0
428 1294 m 0
 374 1294 327.166666667 1281.33333333 287.5 1256 c 128
 247.833333333 1230.66666667 228 1192.66666667 228 1142 c 0
 228 1116 234.166666667 1091.16666667 246.5 1067.5 c 128
 258.833333333 1043.83333333 274 1023.33333333 292 1006 c 0
 324 974.666666667 366.333333333 959 419 959 c 0
 519.666666667 959 585 996.666666667 615 1072 c 0
 621 1087.33333333 624 1103 624 1119 c 0
 624 1131.66666667 622 1144.66666667 618 1158 c 0
 590 1248.66666667 526.666666667 1294 428 1294 c 0
EndSplineSet
Validated: 524289
EndChar

StartChar: plusminus
Encoding: 177 177 120
Width: 1299
VWidth: 2048
GlyphClass: 2
Flags: W
LayerCount: 2
Fore
SplineSet
1124 754 m 2
 1141.33333333 753.333333333 1156.5 746.666666667 1169.5 734 c 128
 1182.5 721.333333333 1189 706.333333333 1189 689 c 256
 1189 671.666666667 1182.66666667 656.5 1170 643.5 c 128
 1157.33333333 630.5 1142 624 1124 624 c 2
 741 624 l 1
 741 230 l 2
 741 212.666666667 734.5 197.5 721.5 184.5 c 128
 708.5 171.5 693.333333333 165 676 165 c 256
 658.666666667 165 643.5 171.5 630.5 184.5 c 128
 617.5 197.5 611 212.666666667 611 230 c 2
 611 624 l 1
 165 624 l 2
 164 624 164 624 163 624 c 0
 146.333333333 624 131.666666667 630.5 119 643.5 c 128
 106.333333333 656.5 100 671.666666667 100 689 c 256
 100 706.333333333 106.5 721.5 119.5 734.5 c 128
 132.5 747.5 147.666666667 754 165 754 c 2
 611 754 l 1
 611 1181 l 2
 611 1198.33333333 617.5 1213.5 630.5 1226.5 c 128
 643.5 1239.5 658.666666667 1246 676 1246 c 256
 693.333333333 1246 708.5 1239.5 721.5 1226.5 c 128
 734.5 1213.5 741 1198.33333333 741 1181 c 2
 741 754 l 1
 1124 754 l 2
167 -6 m 2
 149 -6 133.666666667 0.333333333333 121 13 c 128
 108.333333333 25.6666666667 102 41 102 59 c 256
 102 77 108.333333333 92.3333333333 121 105 c 128
 133.666666667 117.666666667 149 124 167 124 c 2
 1134 124 l 2
 1152 124 1167.33333333 117.666666667 1180 105 c 128
 1192.66666667 92.3333333333 1199 77 1199 59 c 256
 1199 41 1192.66666667 25.6666666667 1180 13 c 128
 1167.33333333 0.333333333333 1152 -6 1134 -6 c 2
 167 -6 l 2
EndSplineSet
Validated: 524289
EndChar

StartChar: uni00B2
Encoding: 178 178 121
Width: 597
VWidth: 2048
GlyphClass: 2
Flags: W
LayerCount: 2
Fore
SplineSet
341 1297 m 0
 341 1316.33333333 334.166666667 1332.66666667 320.5 1346 c 128
 306.833333333 1359.33333333 289 1366 267 1366 c 0
 233 1366 198 1344.66666667 162 1302 c 0
 154.666666667 1293.33333333 146 1289 136 1289 c 0
 112 1289 100 1300.33333333 100 1323 c 0
 100 1332.33333333 103 1340.33333333 109 1347 c 0
 131.666666667 1373.66666667 156.333333333 1395 183 1411 c 128
 209.666666667 1427 237.333333333 1435 266 1435 c 256
 294.666666667 1435 323.333333333 1426.33333333 352 1409 c 0
 390 1386.33333333 409 1350 409 1300 c 0
 409 1266.66666667 399.333333333 1234.66666667 380 1204 c 0
 352 1160.66666667 311.666666667 1109.33333333 259 1050 c 1
 265 1050.66666667 271.666666667 1051 279 1051 c 0
 295.666666667 1051 317.5 1049 344.5 1045 c 128
 371.5 1041 393.666666667 1039 411 1039 c 0
 422.333333333 1039 432.5 1040.66666667 441.5 1044 c 128
 450.5 1047.33333333 458.666666667 1049 466 1049 c 0
 475.333333333 1049 482.833333333 1044.83333333 488.5 1036.5 c 128
 494.166666667 1028.16666667 497 1018.66666667 497 1008 c 0
 497 992 486.333333333 981.333333333 465 976 c 128
 443.666666667 970.666666667 424.333333333 968 407 968 c 0
 383 968 346.666666667 973 298 983 c 0
 291.333333333 984.333333333 284.333333333 985 277 985 c 0
 247 985 209.333333333 974.333333333 164 953 c 0
 159.333333333 951 153.333333333 950 146 950 c 0
 137.333333333 950 129.833333333 953.666666667 123.5 961 c 128
 117.166666667 968.333333333 114 976.333333333 114 985 c 0
 114 995 118 1004 126 1012 c 0
 144.666666667 1030 166.833333333 1053.33333333 192.5 1082 c 128
 218.166666667 1110.66666667 243.5 1140.66666667 268.5 1172 c 128
 293.5 1203.33333333 314 1231.33333333 330 1256 c 0
 337.333333333 1270 341 1283.66666667 341 1297 c 0
EndSplineSet
Validated: 524289
EndChar

StartChar: uni00B3
Encoding: 179 179 122
Width: 547
VWidth: 2048
GlyphClass: 2
Flags: W
LayerCount: 2
Fore
SplineSet
320 1131 m 0
 311.333333333 1131 302.666666667 1129 294 1125 c 128
 285.333333333 1121 276 1119 266 1119 c 0
 257.333333333 1119 249.833333333 1122.83333333 243.5 1130.5 c 128
 237.166666667 1138.16666667 234 1146.66666667 234 1156 c 0
 234 1167.33333333 239 1176.33333333 249 1183 c 0
 292.333333333 1211 320.333333333 1241 333 1273 c 0
 339.666666667 1291 343 1306.33333333 343 1319 c 0
 343 1348.33333333 327 1363 295 1363 c 0
 272.333333333 1363 251.833333333 1357.33333333 233.5 1346 c 128
 215.166666667 1334.66666667 193.666666667 1317.33333333 169 1294 c 0
 162.333333333 1287.33333333 154.333333333 1284 145 1284 c 0
 134.333333333 1284 125.833333333 1287.66666667 119.5 1295 c 128
 113.166666667 1302.33333333 110 1310.33333333 110 1319 c 0
 110 1329 113.666666667 1337.33333333 121 1344 c 0
 185 1405.33333333 243.666666667 1436 297 1436 c 0
 323.666666667 1436 350.166666667 1425.33333333 376.5 1404 c 128
 402.833333333 1382.66666667 416 1354.33333333 416 1319 c 0
 416 1295.66666667 410.5 1272.5 399.5 1249.5 c 128
 388.5 1226.5 376.666666667 1207.33333333 364 1192 c 1
 389.333333333 1182 409.5 1167 424.5 1147 c 128
 439.5 1127 447 1101 447 1069 c 0
 447 1032.33333333 434.833333333 1003.66666667 410.5 983 c 128
 386.166666667 962.333333333 356.333333333 952 321 952 c 0
 266.333333333 952 198.666666667 975.666666667 118 1023 c 0
 106 1030.33333333 100 1039.33333333 100 1050 c 0
 100 1060 103.166666667 1068.83333333 109.5 1076.5 c 128
 115.833333333 1084.16666667 123.666666667 1088 133 1088 c 0
 141 1088 147.666666667 1086.33333333 153 1083 c 0
 223 1043 278.666666667 1023 320 1023 c 0
 358 1023 377 1038.33333333 377 1069 c 0
 377 1083.66666667 371.666666667 1097.66666667 361 1111 c 128
 350.333333333 1124.33333333 336.666666667 1131 320 1131 c 0
EndSplineSet
Validated: 524289
EndChar

StartChar: acute
Encoding: 180 180 123
Width: 215
VWidth: 2048
GlyphClass: 2
Flags: W
LayerCount: 2
Fore
SplineSet
47 1137 m 0
 35 1137 24.1666666667 1141 14.5 1149 c 128
 4.83333333333 1157 0 1167 0 1179 c 0
 0 1193.66666667 6.66666666667 1212.33333333 20 1235 c 1
 93 1401 l 2
 105 1423 123.666666667 1434 149 1434 c 0
 165 1434 180 1427.83333333 194 1415.5 c 128
 208 1403.16666667 215 1387.33333333 215 1368 c 0
 215 1356.66666667 211.666666667 1345.66666667 205 1335 c 2
 90 1170 l 2
 77.3333333333 1148 63 1137 47 1137 c 0
EndSplineSet
Validated: 524289
EndChar

StartChar: mu
Encoding: 181 181 124
Width: 1228
VWidth: 2048
GlyphClass: 2
Flags: W
LayerCount: 2
Fore
SplineSet
913 266 m 1
 887.666666667 223.333333333 855.833333333 181.833333333 817.5 141.5 c 128
 779.166666667 101.166666667 735.5 68.1666666667 686.5 42.5 c 128
 637.5 16.8333333333 583.666666667 4 525 4 c 0
 465.666666667 4 410.833333333 18.8333333333 360.5 48.5 c 128
 310.166666667 78.1666666667 268.333333333 118 235 168 c 1
 238.333333333 58 251 -24.6666666667 273 -80 c 0
 276.333333333 -88.6666666667 278 -99.3333333333 278 -112 c 0
 278 -126 271.5 -139.166666667 258.5 -151.5 c 128
 245.5 -163.833333333 232 -170 218 -170 c 0
 196 -170 180 -164 170 -152 c 128
 160 -140 151 -123.666666667 143 -103 c 0
 114.333333333 -29.6666666667 100 70.3333333333 100 197 c 0
 100 336.333333333 117.333333333 508 152 712 c 1
 162 792 179 877.666666667 203 969 c 0
 207 981.666666667 215 992.666666667 227 1002 c 128
 239 1011.33333333 253 1016 269 1016 c 0
 283 1016 296.833333333 1010.16666667 310.5 998.5 c 128
 324.166666667 986.833333333 331 974.333333333 331 961 c 0
 331 952.333333333 326.666666667 929 318 891 c 0
 310 855 298 791.666666667 282 701 c 1
 275.333333333 646.333333333 272 594.666666667 272 546 c 0
 272 478 280.5 412.5 297.5 349.5 c 128
 314.5 286.5 341.166666667 234.833333333 377.5 194.5 c 128
 413.833333333 154.166666667 460.666666667 134 518 134 c 0
 546.666666667 134 573.333333333 138.5 598 147.5 c 128
 622.666666667 156.5 648.333333333 170.333333333 675 189 c 0
 730.333333333 228.333333333 776.666666667 283.666666667 814 355 c 128
 851.333333333 426.333333333 877.666666667 505 893 591 c 1
 892.333333333 625 892 656.333333333 892 685 c 0
 892 775 894 843.833333333 898 891.5 c 128
 902 939.166666667 907.333333333 971 914 987 c 0
 923.333333333 1003.66666667 938.666666667 1012 960 1012 c 0
 979.333333333 1012 995.833333333 1006.83333333 1009.5 996.5 c 128
 1023.16666667 986.166666667 1030.66666667 972 1032 954 c 0
 1037.33333333 897.333333333 1040 843 1040 791 c 0
 1040 717 1034.66666667 647 1024 581 c 1
 1028 315 1050.66666667 155.333333333 1092 102 c 1
 1092 100 l 1
 1116 88 1128 70.6666666667 1128 48 c 0
 1128 29.3333333333 1122.33333333 12.8333333333 1111 -1.5 c 128
 1099.66666667 -15.8333333333 1085.33333333 -23 1068 -23 c 0
 989.333333333 -23 937.666666667 73.3333333333 913 266 c 1
EndSplineSet
Validated: 524289
EndChar

StartChar: paragraph
Encoding: 182 182 125
Width: 1053
VWidth: 2048
GlyphClass: 1
Flags: W
LayerCount: 2
Fore
SplineSet
578 57 m 2
 576.666666667 38.3333333333 569.333333333 24.3333333333 556 15 c 128
 542.666666667 5.66666666667 528.333333333 1 513 1 c 0
 497 1 482.166666667 6.16666666667 468.5 16.5 c 128
 454.833333333 26.8333333333 448 42 448 62 c 0
 448 63 448 63 448 65 c 128
 448 67 448 67 448 69 c 2
 464 761 l 1
 387.333333333 749 321.833333333 756.5 267.5 783.5 c 128
 213.166666667 810.5 171.666666667 847.833333333 143 895.5 c 128
 114.333333333 943.166666667 100 992.666666667 100 1044 c 0
 100 1084 110.5 1123.83333333 131.5 1163.5 c 128
 152.5 1203.16666667 179.5 1239.83333333 212.5 1273.5 c 128
 245.5 1307.16666667 281.333333333 1334.16666667 320 1354.5 c 128
 358.666666667 1374.83333333 396 1385.66666667 432 1387 c 2
 774 1397 l 2
 801.333333333 1397.66666667 826 1392.33333333 848 1381 c 128
 870 1369.66666667 889 1358 905 1346 c 0
 929 1324 943.666666667 1297 949 1265 c 128
 954.333333333 1233 956 1197.33333333 954 1158 c 128
 952 1118.66666667 951.666666667 1077 953 1033 c 0
 955.666666667 922.333333333 952.666666667 811.666666667 944 701 c 128
 935.333333333 590.333333333 926 484 916 382 c 2
 892 55 l 2
 890.666666667 35.6666666667 882.166666667 21.3333333333 866.5 12 c 128
 850.833333333 2.66666666667 835.333333333 -2 820 -2 c 0
 803.333333333 -2 788.166666667 3.16666666667 774.5 13.5 c 128
 760.833333333 23.8333333333 754 39 754 59 c 0
 762 143 762 143 770 227 c 128
 778 311 778 311 786 395 c 1
 785.333333333 481.666666667 786.5 572.5 789.5 667.5 c 128
 792.5 762.5 793 857 791 951 c 128
 789 1045 780.666666667 1134 766 1218 c 1
 615 1219 l 1
 611.666666667 1133 611.333333333 1040.5 614 941.5 c 128
 616.666666667 842.5 618.666666667 744.666666667 620 648 c 128
 621.333333333 551.333333333 618 463.333333333 610 384 c 2
 578 57 l 2
EndSplineSet
Validated: 524321
EndChar

StartChar: periodcentered
Encoding: 183 183 126
Width: 421
VWidth: 2048
GlyphClass: 2
Flags: W
LayerCount: 2
Fore
SplineSet
321 710 m 0
 321 681.333333333 310.833333333 656.333333333 290.5 635 c 128
 270.166666667 613.666666667 244 603 212 603 c 0
 175.333333333 603 147.666666667 615 129 639 c 128
 110.333333333 663 101 692 101 726 c 0
 101 742 103 758.333333333 107 775 c 0
 109.666666667 787 115.666666667 802.166666667 125 820.5 c 128
 134.333333333 838.833333333 145.666666667 855 159 869 c 128
 172.333333333 883 186.333333333 890 201 890 c 0
 221.666666667 890 241.166666667 879.833333333 259.5 859.5 c 128
 277.833333333 839.166666667 292.666666667 815 304 787 c 128
 315.333333333 759 321 733.333333333 321 710 c 0
EndSplineSet
Validated: 524289
EndChar

StartChar: cedilla
Encoding: 184 184 127
Width: 674
VWidth: 2048
GlyphClass: 2
Flags: W
LayerCount: 2
Fore
SplineSet
385 -367 m 0
 373 -367 361.333333333 -368 350 -370 c 128
 338.666666667 -372 326 -373 312 -373 c 0
 301.333333333 -373 289.666666667 -366.666666667 277 -354 c 128
 264.333333333 -341.333333333 258 -329.666666667 258 -319 c 0
 258 -313.666666667 258.166666667 -309.333333333 258.5 -306 c 128
 258.833333333 -302.666666667 259 -300.333333333 259 -299 c 2
 284 -123 l 2
 289.333333333 -85 313 -66 355 -66 c 0
 367.666666667 -66 380.666666667 -72.1666666667 394 -84.5 c 128
 407.333333333 -96.8333333333 414 -109 414 -121 c 0
 414 -132.333333333 413.666666667 -139 413 -141 c 2
 399 -239 l 1
 451.666666667 -242.333333333 494 -258.5 526 -287.5 c 128
 558 -316.5 574 -356 574 -406 c 0
 574 -436.666666667 567.333333333 -465 554 -491 c 0
 535.333333333 -526.333333333 506 -556.666666667 466 -582 c 128
 426 -607.333333333 378.333333333 -620 323 -620 c 0
 261.666666667 -620 197.666666667 -599 131 -557 c 0
 109.666666667 -543.666666667 99 -526.666666667 99 -506 c 0
 99 -487.333333333 105 -471 117 -457 c 128
 129 -443 143.666666667 -436 161 -436 c 0
 176.333333333 -436 193.333333333 -442 212 -454 c 0
 224.666666667 -462 242.333333333 -470.5 265 -479.5 c 128
 287.666666667 -488.5 310.666666667 -493 334 -493 c 0
 358.666666667 -493 379.833333333 -486.666666667 397.5 -474 c 128
 415.166666667 -461.333333333 428 -447.666666667 436 -433 c 0
 442 -421 445 -410.666666667 445 -402 c 0
 445 -389.333333333 439.333333333 -380.333333333 428 -375 c 128
 416.666666667 -369.666666667 402.333333333 -367 385 -367 c 0
EndSplineSet
Validated: 524289
EndChar

StartChar: uni00B9
Encoding: 185 185 128
Width: 309
VWidth: 2048
GlyphClass: 2
Flags: W
LayerCount: 2
Fore
SplineSet
160 1024 m 0
 152.666666667 1024 145.166666667 1027 137.5 1033 c 128
 129.833333333 1039 126 1045.33333333 126 1052 c 0
 126 1058 128 1076 132 1106 c 0
 133.333333333 1118.66666667 134.833333333 1139 136.5 1167 c 128
 138.166666667 1195 139 1223.33333333 139 1252 c 0
 139 1276 138.333333333 1298.33333333 137 1319 c 128
 135.666666667 1339.66666667 133.333333333 1354.66666667 130 1364 c 1
 122.666666667 1365.33333333 115.833333333 1369.33333333 109.5 1376 c 128
 103.166666667 1382.66666667 100 1390 100 1398 c 0
 100 1406.66666667 103.5 1415.33333333 110.5 1424 c 128
 117.5 1432.66666667 126.333333333 1437 137 1437 c 256
 147.666666667 1437 157.666666667 1433.33333333 167 1426 c 128
 176.333333333 1418.66666667 182.666666667 1412.33333333 186 1407 c 0
 202.666666667 1383 211 1335 211 1263 c 0
 211 1213.66666667 207 1152.66666667 199 1080 c 2
 196 1055 l 2
 195.333333333 1046.33333333 191.5 1039 184.5 1033 c 128
 177.5 1027 169.333333333 1024 160 1024 c 0
EndSplineSet
Validated: 524289
EndChar

StartChar: ordmasculine
Encoding: 186 186 129
Width: 658
VWidth: 2048
GlyphClass: 2
Flags: W
LayerCount: 2
Fore
SplineSet
323 1498 m 0
 389 1498 444.666666667 1477.16666667 490 1435.5 c 128
 535.333333333 1393.83333333 558 1336.33333333 558 1263 c 0
 558 1203 538.333333333 1154.5 499 1117.5 c 128
 459.666666667 1080.5 411 1057.33333333 353 1048 c 0
 342.333333333 1046.66666667 332 1046 322 1046 c 0
 280.666666667 1046 243.333333333 1057.16666667 210 1079.5 c 128
 176.666666667 1101.83333333 150 1131.5 130 1168.5 c 128
 110 1205.5 100 1246 100 1290 c 0
 100 1348.66666667 121.166666667 1398 163.5 1438 c 128
 205.833333333 1478 259 1498 323 1498 c 0
192 1285 m 0
 192 1249 204.166666667 1216.66666667 228.5 1188 c 128
 252.833333333 1159.33333333 284.666666667 1145 324 1145 c 0
 394 1145 440 1173.66666667 462 1231 c 0
 466 1241.66666667 468 1253.33333333 468 1266 c 0
 468 1276 466.666666667 1286.33333333 464 1297 c 0
 444.666666667 1365.66666667 400.333333333 1400 331 1400 c 0
 290.333333333 1400 257 1390.5 231 1371.5 c 128
 205 1352.5 192 1323.66666667 192 1285 c 0
EndSplineSet
Validated: 524289
EndChar

StartChar: guillemotright
Encoding: 187 187 130
Width: 1527
VWidth: 2048
GlyphClass: 2
Flags: W
LayerCount: 2
Fore
SplineSet
702 457 m 0
 702 478.333333333 713 495.333333333 735 508 c 0
 845.666666667 574.666666667 941 627.666666667 1021 667 c 0
 1062.33333333 687 1094.66666667 702.666666667 1118 714 c 128
 1141.33333333 725.333333333 1156.33333333 732.666666667 1163 736 c 1
 1103 768.666666667 1035.5 805.5 960.5 846.5 c 128
 885.5 887.5 811.666666667 931.666666667 739 979 c 0
 718.333333333 992.333333333 708 1009.33333333 708 1030 c 0
 708 1048.66666667 714 1065 726 1079 c 128
 738 1093 752.666666667 1100 770 1100 c 0
 784.666666667 1100 797.666666667 1096.33333333 809 1089 c 0
 861.666666667 1055 912.666666667 1023.33333333 962 994 c 128
 1011.33333333 964.666666667 1059.33333333 937.666666667 1106 913 c 0
 1198 865 1252.66666667 835.333333333 1270 824 c 0
 1286 813.333333333 1300 801 1312 787 c 128
 1324 773 1330 752.333333333 1330 725 c 0
 1330 698.333333333 1309 671.666666667 1267 645 c 0
 1259 640.333333333 1241.33333333 631.166666667 1214 617.5 c 128
 1186.66666667 603.833333333 1149.33333333 585.333333333 1102 562 c 0
 1008 516 908 461 802 397 c 0
 791.333333333 390.333333333 778.333333333 387 763 387 c 0
 745.666666667 387 731.166666667 394 719.5 408 c 128
 707.833333333 422 702 438.333333333 702 457 c 0
100 451 m 0
 100 472.333333333 110.666666667 489.333333333 132 502 c 0
 186.666666667 535.333333333 238 565 286 591 c 128
 334 617 378.333333333 640 419 660 c 0
 460.333333333 680 492.666666667 695.833333333 516 707.5 c 128
 551 725 551 725 561 730 c 1
 554.333333333 733.333333333 539.333333333 741.166666667 516 753.5 c 128
 492.666666667 765.833333333 460.666666667 782.666666667 420 804 c 256
 379.333333333 825.333333333 335.333333333 850.166666667 288 878.5 c 128
 240.666666667 906.833333333 190 938.333333333 136 973 c 0
 116 986.333333333 106 1003 106 1023 c 0
 106 1041.66666667 111.833333333 1058 123.5 1072 c 128
 135.166666667 1086 149.666666667 1093 167 1093 c 0
 182.333333333 1093 195.666666667 1089.33333333 207 1082 c 0
 259.666666667 1048 310.666666667 1016.5 360 987.5 c 128
 409.333333333 958.5 457.333333333 931.666666667 504 907 c 256
 550.666666667 882.333333333 587.5 862.666666667 614.5 848 c 128
 641.5 833.333333333 659 823.333333333 667 818 c 0
 683 807.333333333 697.166666667 795 709.5 781 c 128
 721.833333333 767 728 746.333333333 728 719 c 256
 728 691.666666667 707 664.666666667 665 638 c 0
 657 633.333333333 639.333333333 624.166666667 612 610.5 c 128
 584.666666667 596.833333333 547.333333333 578.333333333 500 555 c 0
 453.333333333 532.333333333 404.833333333 507.166666667 354.5 479.5 c 128
 304.166666667 451.833333333 252.333333333 422 199 390 c 0
 189.666666667 384 177 381 161 381 c 0
 143.666666667 381 129.166666667 388 117.5 402 c 128
 105.833333333 416 100 432.333333333 100 451 c 0
EndSplineSet
Validated: 524289
EndChar

StartChar: onequarter
Encoding: 188 188 131
Width: 1283
VWidth: 2048
GlyphClass: 2
Flags: W
LayerCount: 2
Fore
SplineSet
647 1327 m 2
 655 1345.66666667 667.333333333 1355 684 1355 c 0
 696.666666667 1355 708 1350.16666667 718 1340.5 c 128
 728 1330.83333333 733 1319 733 1305 c 0
 733 1297.66666667 731.666666667 1290.66666667 729 1284 c 2
 237 155 l 2
 229 137 215.333333333 128 196 128 c 0
 181.333333333 128 169.166666667 135 159.5 149 c 128
 149.833333333 163 148.666666667 179.333333333 156 198 c 2
 647 1327 l 2
99 1235 m 0
 99 1247.66666667 106.166666667 1256.5 120.5 1261.5 c 128
 134.833333333 1266.5 148.333333333 1269 161 1269 c 0
 215 1269 251.5 1253.33333333 270.5 1222 c 128
 289.5 1190.66666667 302 1150.33333333 308 1101 c 0
 313.333333333 1056.33333333 316 1011 316 965 c 0
 316 905.666666667 311.333333333 845 302 783 c 2
 277 623 l 2
 275.666666667 613.666666667 269.833333333 606.666666667 259.5 602 c 128
 249.166666667 597.333333333 238 595 226 595 c 0
 212.666666667 595 200.333333333 597.833333333 189 603.5 c 128
 177.666666667 609.166666667 173 617.666666667 175 629 c 2
 201 789 l 2
 210.333333333 849 215 908 215 966 c 0
 215 1000 212.833333333 1039.16666667 208.5 1083.5 c 128
 204.166666667 1127.83333333 196.333333333 1159.66666667 185 1179 c 0
 173.666666667 1196.33333333 167 1205 165 1205 c 0
 161.666666667 1204.33333333 157.666666667 1204 153 1204 c 0
 141 1204 129 1206.83333333 117 1212.5 c 128
 105 1218.16666667 99 1225.66666667 99 1235 c 0
552 429 m 0
 561.333333333 429 577.166666667 430.333333333 599.5 433 c 128
 621.833333333 435.666666667 645.666666667 438.5 671 441.5 c 128
 696.333333333 444.5 718.333333333 447.166666667 737 449.5 c 128
 755.666666667 451.833333333 765.666666667 453 767 453 c 1
 767 668 l 2
 767 679.333333333 770.833333333 689 778.5 697 c 128
 786.166666667 705 795.333333333 709 806 709 c 0
 817.333333333 709 826.5 705 833.5 697 c 128
 840.5 689 844 679.333333333 844 668 c 2
 844 464 l 1
 944 477.333333333 1017 484 1063 484 c 0
 1099 484 1128 476 1150 460 c 128
 1172 444 1183 423.666666667 1183 399 c 0
 1183 385.666666667 1178.83333333 375.5 1170.5 368.5 c 128
 1162.16666667 361.5 1153 358 1143 358 c 0
 1123 358 1111 368.666666667 1107 390 c 1
 1096.33333333 395.333333333 1075.66666667 398 1045 398 c 0
 999.666666667 398 932.666666667 392 844 380 c 1
 844 57 l 2
 844 46.3333333333 840.5 36.6666666667 833.5 28 c 128
 826.5 19.3333333333 817.333333333 15 806 15 c 0
 795.333333333 15 786.166666667 19.3333333333 778.5 28 c 128
 770.833333333 36.6666666667 767 46.3333333333 767 57 c 2
 767 369 l 1
 765 369 754 367.666666667 734 365 c 128
 714 362.333333333 690.833333333 359.5 664.5 356.5 c 128
 638.166666667 353.5 613.833333333 350.666666667 591.5 348 c 128
 569.166666667 345.333333333 554.666666667 344 548 344 c 0
 515.333333333 344 485.166666667 349.333333333 457.5 360 c 128
 429.833333333 370.666666667 416 388.333333333 416 413 c 0
 416 429 419 444 425 458 c 128
 431 472 438.666666667 485 448 497 c 0
 478.666666667 536.333333333 503.333333333 567.666666667 522 591 c 128
 540.666666667 614.333333333 556 633.833333333 568 649.5 c 128
 580 665.166666667 591.333333333 680.833333333 602 696.5 c 128
 612.666666667 712.166666667 625.166666667 731.5 639.5 754.5 c 128
 653.833333333 777.5 672.666666667 808 696 846 c 0
 710.666666667 869.333333333 725.333333333 875.666666667 740 865 c 0
 758 852.333333333 767 838.333333333 767 823 c 0
 767 815.666666667 764.666666667 808 760 800 c 0
 736.666666667 762 717.666666667 731.333333333 703 708 c 128
 688.333333333 684.666666667 674.833333333 664.333333333 662.5 647 c 128
 650.166666667 629.666666667 636.5 611.166666667 621.5 591.5 c 128
 606.5 571.833333333 586.666666667 546.333333333 562 515 c 0
 542 489.666666667 527 470.166666667 517 456.5 c 128
 507 442.833333333 501.333333333 435.333333333 500 434 c 1
 514 430.666666667 531.333333333 429 552 429 c 0
EndSplineSet
Validated: 524321
EndChar

StartChar: onehalf
Encoding: 189 189 132
Width: 1210
VWidth: 2048
GlyphClass: 2
Flags: W
LayerCount: 2
Fore
SplineSet
647 1327 m 2
 655 1345.66666667 667.333333333 1355 684 1355 c 0
 696.666666667 1355 708 1350.16666667 718 1340.5 c 128
 728 1330.83333333 733 1319 733 1305 c 0
 733 1297.66666667 731.666666667 1290.66666667 729 1284 c 2
 237 155 l 2
 229 137 215.333333333 128 196 128 c 0
 181.333333333 128 169.166666667 135 159.5 149 c 128
 149.833333333 163 148.666666667 179.333333333 156 198 c 2
 647 1327 l 2
99 1235 m 0
 99 1247.66666667 106.166666667 1256.5 120.5 1261.5 c 128
 134.833333333 1266.5 148.333333333 1269 161 1269 c 0
 215 1269 251.5 1253.33333333 270.5 1222 c 128
 289.5 1190.66666667 302 1150.33333333 308 1101 c 0
 313.333333333 1056.33333333 316 1011 316 965 c 0
 316 905.666666667 311.333333333 845 302 783 c 2
 277 623 l 2
 275.666666667 613.666666667 269.833333333 606.666666667 259.5 602 c 128
 249.166666667 597.333333333 238 595 226 595 c 0
 212.666666667 595 200.333333333 597.833333333 189 603.5 c 128
 177.666666667 609.166666667 173 617.666666667 175 629 c 2
 201 789 l 2
 210.333333333 849 215 908 215 966 c 0
 215 1000 212.833333333 1039.16666667 208.5 1083.5 c 128
 204.166666667 1127.83333333 196.333333333 1159.66666667 185 1179 c 0
 173.666666667 1196.33333333 167 1205 165 1205 c 0
 161.666666667 1204.33333333 157.666666667 1204 153 1204 c 0
 141 1204 129 1206.83333333 117 1212.5 c 128
 105 1218.16666667 99 1225.66666667 99 1235 c 0
891 491 m 0
 891 528.333333333 876 558.333333333 846 581 c 128
 816 603.666666667 780.333333333 615 739 615 c 0
 701 615 667.5 607.166666667 638.5 591.5 c 128
 609.5 575.833333333 578 550.333333333 544 515 c 0
 537.333333333 508.333333333 528.666666667 505 518 505 c 0
 508 505 499 508 491 514 c 128
 483 520 479 527.333333333 479 536 c 0
 479 542.666666667 482.333333333 549.333333333 489 556 c 0
 529 597.333333333 568.166666667 628 606.5 648 c 128
 644.833333333 668 687.333333333 678 734 678 c 0
 796 678 849.666666667 661.833333333 895 629.5 c 128
 940.333333333 597.166666667 963 552.333333333 963 495 c 0
 963 456.333333333 951.666666667 421 929 389 c 0
 899 346.333333333 862.333333333 301.166666667 819 253.5 c 128
 775.666666667 205.833333333 725.666666667 155.333333333 669 102 c 1
 695.666666667 106.666666667 725 109 757 109 c 256
 789 109 826.666666667 106.166666667 870 100.5 c 128
 913.333333333 94.8333333333 950.333333333 92 981 92 c 0
 1008.33333333 92 1030.33333333 94.3333333333 1047 99 c 0
 1057.66666667 102.333333333 1067 104 1075 104 c 0
 1092.33333333 104 1103.33333333 97 1108 83 c 0
 1114.66666667 63 1106.33333333 49.6666666667 1083 43 c 0
 1045.66666667 32.3333333333 1011 27 979 27 c 0
 949.666666667 27 915.333333333 30.8333333333 876 38.5 c 128
 836.666666667 46.1666666667 796 50 754 50 c 0
 697.333333333 50 637.666666667 37 575 11 c 0
 546.333333333 -1 527.333333333 -3 518 5 c 0
 498.666666667 22.3333333333 497.333333333 38.3333333333 514 53 c 2
 538 73 l 2
 668.666666667 183.666666667 779 300.333333333 869 423 c 0
 883.666666667 445 891 467.666666667 891 491 c 0
EndSplineSet
Validated: 524321
EndChar

StartChar: threequarters
Encoding: 190 190 133
Width: 1725
VWidth: 2048
GlyphClass: 2
Flags: W
LayerCount: 2
Fore
SplineSet
653 693 m 0
 653 736.333333333 639 773 611 803 c 128
 583 833 548.666666667 848 508 848 c 0
 482 848 454.666666667 841.333333333 426 828 c 0
 420 825.333333333 413.666666667 824 407 824 c 0
 395.666666667 824 386 828.333333333 378 837 c 128
 370 845.666666667 366 855.333333333 366 866 c 0
 366 880 372.333333333 891 385 899 c 0
 417 919.666666667 444.666666667 940.666666667 468 962 c 0
 533.333333333 1022 571.333333333 1084 582 1148 c 0
 584 1158.66666667 585 1169.33333333 585 1180 c 0
 585 1216 574.166666667 1245 552.5 1267 c 128
 530.833333333 1289 501.666666667 1300 465 1300 c 0
 419.666666667 1300 374.833333333 1287.5 330.5 1262.5 c 128
 286.166666667 1237.5 239.333333333 1202 190 1156 c 0
 182 1148 172.333333333 1144 161 1144 c 0
 148.333333333 1144 138.333333333 1148.33333333 131 1157 c 128
 123.666666667 1165.66666667 120 1175.33333333 120 1186 c 0
 120 1197.33333333 124 1207 132 1215 c 0
 242.666666667 1317.66666667 346.333333333 1373 443 1381 c 0
 450.333333333 1381.66666667 457.666666667 1382 465 1382 c 0
 525 1382 574 1363 612 1325 c 128
 650 1287 669 1238.33333333 669 1179 c 0
 669 1164.33333333 667.666666667 1149.33333333 665 1134 c 0
 653 1061.33333333 615 992 551 926 c 1
 595 918 631.5 899.5 660.5 870.5 c 128
 689.5 841.5 710.666666667 807.333333333 724 768 c 0
 732.666666667 743.333333333 737 719.333333333 737 696 c 0
 737 632 715.5 583.833333333 672.5 551.5 c 128
 629.5 519.166666667 576 503 512 503 c 0
 408 503 277.666666667 547 121 635 c 0
 107.666666667 642.333333333 101 653 101 667 c 0
 101 677.666666667 105 687.666666667 113 697 c 128
 121 706.333333333 131 711 143 711 c 0
 149.666666667 711 156.666666667 709 164 705 c 0
 306 624.333333333 422.333333333 584 513 584 c 0
 553.666666667 584 587.166666667 593.333333333 613.5 612 c 128
 639.833333333 630.666666667 653 657.666666667 653 693 c 0
1089 1327 m 2
 1097 1345.66666667 1109.33333333 1355 1126 1355 c 0
 1138.66666667 1355 1150 1350.16666667 1160 1340.5 c 128
 1170 1330.83333333 1175 1319 1175 1305 c 0
 1175 1297.66666667 1173.66666667 1290.66666667 1171 1284 c 2
 679 155 l 2
 671 137 657.333333333 128 638 128 c 0
 623.333333333 128 611.166666667 135 601.5 149 c 128
 591.833333333 163 590.666666667 179.333333333 598 198 c 2
 1089 1327 l 2
994 429 m 0
 1003.33333333 429 1019.16666667 430.333333333 1041.5 433 c 128
 1063.83333333 435.666666667 1087.66666667 438.5 1113 441.5 c 128
 1138.33333333 444.5 1160.33333333 447.166666667 1179 449.5 c 128
 1197.66666667 451.833333333 1207.66666667 453 1209 453 c 1
 1209 668 l 2
 1209 679.333333333 1212.83333333 689 1220.5 697 c 128
 1228.16666667 705 1237.33333333 709 1248 709 c 0
 1259.33333333 709 1268.5 705 1275.5 697 c 128
 1282.5 689 1286 679.333333333 1286 668 c 2
 1286 464 l 1
 1386 477.333333333 1459 484 1505 484 c 0
 1541 484 1570 476 1592 460 c 128
 1614 444 1625 423.666666667 1625 399 c 0
 1625 385.666666667 1620.83333333 375.5 1612.5 368.5 c 128
 1604.16666667 361.5 1595 358 1585 358 c 0
 1565 358 1553 368.666666667 1549 390 c 1
 1538.33333333 395.333333333 1517.66666667 398 1487 398 c 0
 1441.66666667 398 1374.66666667 392 1286 380 c 1
 1286 57 l 2
 1286 46.3333333333 1282.5 36.6666666667 1275.5 28 c 128
 1268.5 19.3333333333 1259.33333333 15 1248 15 c 0
 1237.33333333 15 1228.16666667 19.3333333333 1220.5 28 c 128
 1212.83333333 36.6666666667 1209 46.3333333333 1209 57 c 2
 1209 369 l 1
 1207 369 1196 367.666666667 1176 365 c 128
 1156 362.333333333 1132.83333333 359.5 1106.5 356.5 c 128
 1080.16666667 353.5 1055.83333333 350.666666667 1033.5 348 c 128
 1011.16666667 345.333333333 996.666666667 344 990 344 c 0
 957.333333333 344 927.166666667 349.333333333 899.5 360 c 128
 871.833333333 370.666666667 858 388.333333333 858 413 c 0
 858 429 861 444 867 458 c 128
 873 472 880.666666667 485 890 497 c 0
 920.666666667 536.333333333 945.333333333 567.666666667 964 591 c 128
 982.666666667 614.333333333 998 633.833333333 1010 649.5 c 128
 1022 665.166666667 1033.33333333 680.833333333 1044 696.5 c 128
 1054.66666667 712.166666667 1067.16666667 731.5 1081.5 754.5 c 128
 1095.83333333 777.5 1114.66666667 808 1138 846 c 0
 1152.66666667 869.333333333 1167.33333333 875.666666667 1182 865 c 0
 1200 852.333333333 1209 838.333333333 1209 823 c 0
 1209 815.666666667 1206.66666667 808 1202 800 c 0
 1178.66666667 762 1159.66666667 731.333333333 1145 708 c 128
 1130.33333333 684.666666667 1116.83333333 664.333333333 1104.5 647 c 128
 1092.16666667 629.666666667 1078.5 611.166666667 1063.5 591.5 c 128
 1048.5 571.833333333 1028.66666667 546.333333333 1004 515 c 0
 984 489.666666667 969 470.166666667 959 456.5 c 128
 949 442.833333333 943.333333333 435.333333333 942 434 c 1
 956 430.666666667 973.333333333 429 994 429 c 0
EndSplineSet
Validated: 524321
EndChar

StartChar: questiondown
Encoding: 191 191 134
Width: 984
VWidth: 2048
GlyphClass: 2
Flags: W
LayerCount: 2
Fore
SplineSet
272 1162 m 0
 272 1193.33333333 280.166666667 1222.33333333 296.5 1249 c 128
 312.833333333 1275.66666667 338 1289 372 1289 c 0
 404.666666667 1289 430.833333333 1274.5 450.5 1245.5 c 128
 470.166666667 1216.5 480 1184.66666667 480 1150 c 0
 480 1118 470.5 1089 451.5 1063 c 128
 432.5 1037 408.333333333 1024 379 1024 c 0
 346.333333333 1024 320.333333333 1038.66666667 301 1068 c 128
 281.666666667 1097.33333333 272 1128.66666667 272 1162 c 0
578 -106 m 0
 626.666666667 -106 668.333333333 -94.6666666667 703 -72 c 128
 737.666666667 -49.3333333333 755 -12.6666666667 755 38 c 0
 755 66 749.333333333 98.6666666667 738 136 c 0
 736 143.333333333 735 150.333333333 735 157 c 0
 735 175.666666667 742 190.5 756 201.5 c 128
 770 212.5 785.333333333 218 802 218 c 0
 814.666666667 218 826.666666667 214.333333333 838 207 c 128
 849.333333333 199.666666667 857.333333333 188.333333333 862 173 c 0
 877.333333333 123 885 77.3333333333 885 36 c 0
 885 -22 870.833333333 -71.1666666667 842.5 -111.5 c 128
 814.166666667 -151.833333333 776.833333333 -182.5 730.5 -203.5 c 128
 684.166666667 -224.5 633.666666667 -235 579 -235 c 0
 533.666666667 -235 484.333333333 -228.666666667 431 -216 c 0
 247 -172.666666667 139 -104 107 -10 c 0
 102.333333333 4.66666666667 100 20 100 36 c 0
 100 113.333333333 157.666666667 208 273 320 c 0
 335.666666667 380 378.666666667 431.333333333 402 474 c 0
 422.666666667 510.666666667 433 549.666666667 433 591 c 0
 433 631 424.666666667 669.166666667 408 705.5 c 128
 391.333333333 741.833333333 370.333333333 774 345 802 c 0
 333.666666667 814.666666667 328 828.666666667 328 844 c 0
 328 861.333333333 335 876.666666667 349 890 c 128
 363 903.333333333 378.666666667 910 396 910 c 256
 413.333333333 910 428.333333333 903 441 889 c 0
 477.666666667 847.666666667 506.833333333 802 528.5 752 c 128
 550.166666667 702 561 650 561 596 c 0
 561 515.333333333 543.166666667 448.333333333 507.5 395 c 128
 471.833333333 341.666666667 428 289.666666667 376 239 c 0
 314.666666667 179.666666667 269.333333333 125.666666667 240 77 c 0
 226 58.3333333333 221.333333333 42.3333333333 226 29 c 0
 232.666666667 10.3333333333 250.833333333 -7.16666666667 280.5 -23.5 c 128
 310.166666667 -39.8333333333 342.666666667 -53.8333333333 378 -65.5 c 128
 413.333333333 -77.1666666667 442.666666667 -85.6666666667 466 -91 c 0
 507.333333333 -101 544.666666667 -106 578 -106 c 0
EndSplineSet
Validated: 524321
EndChar

StartChar: Agrave
Encoding: 192 192 135
Width: 1370
VWidth: 2048
GlyphClass: 2
Flags: W
LayerCount: 2
Fore
SplineSet
683 1656 m 0
 683 1675.33333333 690 1691.16666667 704 1703.5 c 128
 718 1715.83333333 733 1722 749 1722 c 0
 775 1722 794 1711 806 1689 c 2
 879 1523 l 1
 892.333333333 1500.33333333 899 1481.66666667 899 1467 c 0
 899 1455 894.166666667 1445 884.5 1437 c 128
 874.833333333 1429 864 1425 852 1425 c 0
 836 1425 821.666666667 1436 809 1458 c 2
 693 1623 l 2
 686.333333333 1633.66666667 683 1644.66666667 683 1656 c 0
163 -39 m 0
 147.666666667 -39 133 -32.5 119 -19.5 c 128
 105 -6.5 98.6666666667 8 100 24 c 0
 124 346 175.666666667 635.666666667 255 893 c 0
 334.333333333 1149 429 1318.66666667 539 1402 c 0
 584.333333333 1436 628.333333333 1453 671 1453 c 0
 792.333333333 1453 906 1319 1012 1051 c 0
 1104.66666667 815.666666667 1185.33333333 507 1254 125 c 2
 1270 37 l 2
 1270.66666667 33 1271 29.3333333333 1271 26 c 0
 1271 6 1263.83333333 -9.5 1249.5 -20.5 c 128
 1235.16666667 -31.5 1219.66666667 -37 1203 -37 c 0
 1189 -37 1176 -32.8333333333 1164 -24.5 c 128
 1152 -16.1666666667 1144.33333333 -3 1141 15 c 2
 1126 102 l 2
 1110.66666667 188 1094.66666667 270.166666667 1078 348.5 c 128
 1061.33333333 426.833333333 1044 501.333333333 1026 572 c 1
 309 572 l 1
 269.666666667 377.333333333 243.333333333 193.333333333 230 20 c 0
 228.666666667 2.66666666667 221.333333333 -11.5 208 -22.5 c 128
 194.666666667 -33.5 179.666666667 -39 163 -39 c 0
338 702 m 1
 992 702 l 1
 917.333333333 968 840 1151.33333333 760 1252 c 0
 741.333333333 1276 722.666666667 1293.33333333 704 1304 c 0
 686.666666667 1313.33333333 674 1317.66666667 666 1317 c 0
 623.333333333 1311.66666667 581.333333333 1278 540 1216 c 0
 460 1096 392.666666667 924.666666667 338 702 c 1
EndSplineSet
Validated: 524321
EndChar

StartChar: Aacute
Encoding: 193 193 136
Width: 1370
VWidth: 2048
GlyphClass: 2
Flags: W
LayerCount: 2
Fore
SplineSet
512 1437 m 0
 500 1437 489.166666667 1441 479.5 1449 c 128
 469.833333333 1457 465 1467 465 1479 c 0
 465 1493.66666667 471.666666667 1512.33333333 485 1535 c 1
 558 1701 l 2
 570 1723 588.666666667 1734 614 1734 c 0
 630 1734 645 1727.83333333 659 1715.5 c 128
 673 1703.16666667 680 1687.33333333 680 1668 c 0
 680 1656.66666667 676.666666667 1645.66666667 670 1635 c 2
 555 1470 l 2
 542.333333333 1448 528 1437 512 1437 c 0
163 -39 m 0
 147.666666667 -39 133 -32.5 119 -19.5 c 128
 105 -6.5 98.6666666667 8 100 24 c 0
 124 346 175.666666667 635.666666667 255 893 c 0
 334.333333333 1149 429 1318.66666667 539 1402 c 0
 584.333333333 1436 628.333333333 1453 671 1453 c 0
 792.333333333 1453 906 1319 1012 1051 c 0
 1104.66666667 815.666666667 1185.33333333 507 1254 125 c 2
 1270 37 l 2
 1270.66666667 33 1271 29.3333333333 1271 26 c 0
 1271 6 1263.83333333 -9.5 1249.5 -20.5 c 128
 1235.16666667 -31.5 1219.66666667 -37 1203 -37 c 0
 1189 -37 1176 -32.8333333333 1164 -24.5 c 128
 1152 -16.1666666667 1144.33333333 -3 1141 15 c 2
 1126 102 l 2
 1110.66666667 188 1094.66666667 270.166666667 1078 348.5 c 128
 1061.33333333 426.833333333 1044 501.333333333 1026 572 c 1
 309 572 l 1
 269.666666667 377.333333333 243.333333333 193.333333333 230 20 c 0
 228.666666667 2.66666666667 221.333333333 -11.5 208 -22.5 c 128
 194.666666667 -33.5 179.666666667 -39 163 -39 c 0
338 702 m 1
 992 702 l 1
 917.333333333 968 840 1151.33333333 760 1252 c 0
 741.333333333 1276 722.666666667 1293.33333333 704 1304 c 0
 686.666666667 1313.33333333 674 1317.66666667 666 1317 c 0
 623.333333333 1311.66666667 581.333333333 1278 540 1216 c 0
 460 1096 392.666666667 924.666666667 338 702 c 1
EndSplineSet
Validated: 524321
EndChar

StartChar: Acircumflex
Encoding: 194 194 137
Width: 1370
VWidth: 2048
GlyphClass: 2
Flags: W
LayerCount: 2
Fore
SplineSet
332 1477 m 2
 623 1750 l 2
 635.666666667 1762 650.666666667 1768 668 1768 c 0
 686.666666667 1768 702.333333333 1761.66666667 715 1749 c 2
 986 1471 l 2
 999.333333333 1457.66666667 1006 1443 1006 1427 c 0
 1006 1409.66666667 998.833333333 1394.16666667 984.5 1380.5 c 128
 970.166666667 1366.83333333 954.333333333 1360 937 1360 c 0
 920.333333333 1360 905.666666667 1366.66666667 893 1380 c 2
 667 1612 l 1
 422 1383 l 2
 408.666666667 1370.33333333 394 1364 378 1364 c 0
 360.666666667 1364 345.333333333 1371 332 1385 c 128
 318.666666667 1399 312 1414.66666667 312 1432 c 256
 312 1449.33333333 318.666666667 1464.33333333 332 1477 c 2
163 -39 m 0
 147.666666667 -39 133 -32.5 119 -19.5 c 128
 105 -6.5 98.6666666667 8 100 24 c 0
 124 346 175.666666667 635.666666667 255 893 c 0
 334.333333333 1149 429 1318.66666667 539 1402 c 0
 584.333333333 1436 628.333333333 1453 671 1453 c 0
 792.333333333 1453 906 1319 1012 1051 c 0
 1104.66666667 815.666666667 1185.33333333 507 1254 125 c 2
 1270 37 l 2
 1270.66666667 33 1271 29.3333333333 1271 26 c 0
 1271 6 1263.83333333 -9.5 1249.5 -20.5 c 128
 1235.16666667 -31.5 1219.66666667 -37 1203 -37 c 0
 1189 -37 1176 -32.8333333333 1164 -24.5 c 128
 1152 -16.1666666667 1144.33333333 -3 1141 15 c 2
 1126 102 l 2
 1110.66666667 188 1094.66666667 270.166666667 1078 348.5 c 128
 1061.33333333 426.833333333 1044 501.333333333 1026 572 c 1
 309 572 l 1
 269.666666667 377.333333333 243.333333333 193.333333333 230 20 c 0
 228.666666667 2.66666666667 221.333333333 -11.5 208 -22.5 c 128
 194.666666667 -33.5 179.666666667 -39 163 -39 c 0
338 702 m 1
 992 702 l 1
 917.333333333 968 840 1151.33333333 760 1252 c 0
 741.333333333 1276 722.666666667 1293.33333333 704 1304 c 0
 686.666666667 1313.33333333 674 1317.66666667 666 1317 c 0
 623.333333333 1311.66666667 581.333333333 1278 540 1216 c 0
 460 1096 392.666666667 924.666666667 338 702 c 1
EndSplineSet
Validated: 524321
EndChar

StartChar: Atilde
Encoding: 195 195 138
Width: 1370
VWidth: 2048
GlyphClass: 2
Flags: W
LayerCount: 2
Fore
SplineSet
343 1422 m 0
 329 1422 315.333333333 1428.33333333 302 1441 c 128
 288.666666667 1453.66666667 282 1466.66666667 282 1480 c 0
 282 1494 283.333333333 1504 286 1510 c 0
 303.333333333 1558 334.833333333 1600.5 380.5 1637.5 c 128
 426.166666667 1674.5 480.666666667 1693 544 1693 c 0
 606 1693 671 1671.66666667 739 1629 c 0
 768.333333333 1610.33333333 793 1595.16666667 813 1583.5 c 128
 833 1571.83333333 848.333333333 1563.66666667 859 1559 c 0
 880.333333333 1550.33333333 900.666666667 1546 920 1546 c 0
 945.333333333 1546 968.833333333 1554.66666667 990.5 1572 c 128
 1012.16666667 1589.33333333 1024.66666667 1609 1028 1631 c 0
 1031.33333333 1649 1038.66666667 1664.16666667 1050 1676.5 c 128
 1061.33333333 1688.83333333 1076.66666667 1695 1096 1695 c 0
 1110 1695 1124 1689.33333333 1138 1678 c 128
 1152 1666.66666667 1159 1654.33333333 1159 1641 c 0
 1159 1577 1134.33333333 1523.66666667 1085 1481 c 256
 1035.66666667 1438.33333333 981.333333333 1417 922 1417 c 0
 861.333333333 1417 795.333333333 1439.33333333 724 1484 c 0
 698.666666667 1500 671.166666667 1517.16666667 641.5 1535.5 c 128
 611.833333333 1553.83333333 580.333333333 1563 547 1563 c 0
 514.333333333 1563 485.333333333 1553.16666667 460 1533.5 c 128
 434.666666667 1513.83333333 417.333333333 1491.33333333 408 1466 c 0
 404 1454.66666667 396 1444.5 384 1435.5 c 128
 372 1426.5 358.333333333 1422 343 1422 c 0
163 -39 m 0
 147.666666667 -39 133 -32.5 119 -19.5 c 128
 105 -6.5 98.6666666667 8 100 24 c 0
 124 346 175.666666667 635.666666667 255 893 c 0
 334.333333333 1149 429 1318.66666667 539 1402 c 0
 584.333333333 1436 628.333333333 1453 671 1453 c 0
 792.333333333 1453 906 1319 1012 1051 c 0
 1104.66666667 815.666666667 1185.33333333 507 1254 125 c 2
 1270 37 l 2
 1270.66666667 33 1271 29.3333333333 1271 26 c 0
 1271 6 1263.83333333 -9.5 1249.5 -20.5 c 128
 1235.16666667 -31.5 1219.66666667 -37 1203 -37 c 0
 1189 -37 1176 -32.8333333333 1164 -24.5 c 128
 1152 -16.1666666667 1144.33333333 -3 1141 15 c 2
 1126 102 l 2
 1110.66666667 188 1094.66666667 270.166666667 1078 348.5 c 128
 1061.33333333 426.833333333 1044 501.333333333 1026 572 c 1
 309 572 l 1
 269.666666667 377.333333333 243.333333333 193.333333333 230 20 c 0
 228.666666667 2.66666666667 221.333333333 -11.5 208 -22.5 c 128
 194.666666667 -33.5 179.666666667 -39 163 -39 c 0
338 702 m 1
 992 702 l 1
 917.333333333 968 840 1151.33333333 760 1252 c 0
 741.333333333 1276 722.666666667 1293.33333333 704 1304 c 0
 686.666666667 1313.33333333 674 1317.66666667 666 1317 c 0
 623.333333333 1311.66666667 581.333333333 1278 540 1216 c 0
 460 1096 392.666666667 924.666666667 338 702 c 1
EndSplineSet
Validated: 524321
EndChar

StartChar: Adieresis
Encoding: 196 196 139
Width: 1370
VWidth: 2048
GlyphClass: 2
Flags: W
LayerCount: 2
Fore
SplineSet
611 1575 m 0
 611 1545 600.833333333 1519.66666667 580.5 1499 c 128
 560.166666667 1478.33333333 534 1468 502 1468 c 0
 465.333333333 1468 437.833333333 1479.83333333 419.5 1503.5 c 128
 401.166666667 1527.16666667 392 1556 392 1590 c 0
 392 1606.66666667 394 1623.33333333 398 1640 c 0
 400.666666667 1652 406.666666667 1667.16666667 416 1685.5 c 128
 425.333333333 1703.83333333 436.5 1720 449.5 1734 c 128
 462.5 1748 476.333333333 1755 491 1755 c 0
 511.666666667 1755 531.166666667 1744.83333333 549.5 1724.5 c 128
 567.833333333 1704.16666667 582.666666667 1680 594 1652 c 128
 605.333333333 1624 611 1598.33333333 611 1575 c 0
922 1567 m 0
 922 1537 911.833333333 1511.66666667 891.5 1491 c 128
 871.166666667 1470.33333333 845 1460 813 1460 c 0
 776.333333333 1460 748.833333333 1471.83333333 730.5 1495.5 c 128
 712.166666667 1519.16666667 703 1548 703 1582 c 0
 703 1598.66666667 705 1615.33333333 709 1632 c 0
 711.666666667 1644 717.666666667 1659.16666667 727 1677.5 c 128
 736.333333333 1695.83333333 747.5 1712 760.5 1726 c 128
 773.5 1740 787.333333333 1747 802 1747 c 0
 822.666666667 1747 842.166666667 1736.83333333 860.5 1716.5 c 128
 878.833333333 1696.16666667 893.666666667 1672 905 1644 c 128
 916.333333333 1616 922 1590.33333333 922 1567 c 0
163 -39 m 0
 147.666666667 -39 133 -32.5 119 -19.5 c 128
 105 -6.5 98.6666666667 8 100 24 c 0
 124 346 175.666666667 635.666666667 255 893 c 0
 334.333333333 1149 429 1318.66666667 539 1402 c 0
 584.333333333 1436 628.333333333 1453 671 1453 c 0
 792.333333333 1453 906 1319 1012 1051 c 0
 1104.66666667 815.666666667 1185.33333333 507 1254 125 c 2
 1270 37 l 2
 1270.66666667 33 1271 29.3333333333 1271 26 c 0
 1271 6 1263.83333333 -9.5 1249.5 -20.5 c 128
 1235.16666667 -31.5 1219.66666667 -37 1203 -37 c 0
 1189 -37 1176 -32.8333333333 1164 -24.5 c 128
 1152 -16.1666666667 1144.33333333 -3 1141 15 c 2
 1126 102 l 2
 1110.66666667 188 1094.66666667 270.166666667 1078 348.5 c 128
 1061.33333333 426.833333333 1044 501.333333333 1026 572 c 1
 309 572 l 1
 269.666666667 377.333333333 243.333333333 193.333333333 230 20 c 0
 228.666666667 2.66666666667 221.333333333 -11.5 208 -22.5 c 128
 194.666666667 -33.5 179.666666667 -39 163 -39 c 0
338 702 m 1
 992 702 l 1
 917.333333333 968 840 1151.33333333 760 1252 c 0
 741.333333333 1276 722.666666667 1293.33333333 704 1304 c 0
 686.666666667 1313.33333333 674 1317.66666667 666 1317 c 0
 623.333333333 1311.66666667 581.333333333 1278 540 1216 c 0
 460 1096 392.666666667 924.666666667 338 702 c 1
EndSplineSet
Validated: 524321
EndChar

StartChar: Aring
Encoding: 197 197 140
Width: 1370
VWidth: 2048
GlyphClass: 2
Flags: W
LayerCount: 2
Fore
SplineSet
676 1914 m 0
 742 1914 797.666666667 1893.16666667 843 1851.5 c 128
 888.333333333 1809.83333333 911 1752.33333333 911 1679 c 0
 911 1619 891.333333333 1570.5 852 1533.5 c 128
 812.666666667 1496.5 764 1473.33333333 706 1464 c 0
 695.333333333 1462.66666667 685 1462 675 1462 c 0
 633.666666667 1462 596.333333333 1473.16666667 563 1495.5 c 128
 529.666666667 1517.83333333 503 1547.5 483 1584.5 c 128
 463 1621.5 453 1662 453 1706 c 0
 453 1764.66666667 474.166666667 1814 516.5 1854 c 128
 558.833333333 1894 612 1914 676 1914 c 0
544 1701 m 0
 544 1665.66666667 556.333333333 1633.5 581 1604.5 c 128
 605.666666667 1575.5 637.666666667 1561 677 1561 c 0
 747 1561 793 1589.66666667 815 1647 c 0
 819 1657.66666667 821 1669.33333333 821 1682 c 0
 821 1692 819.666666667 1702.33333333 817 1713 c 0
 797.666666667 1781.66666667 753.333333333 1816 684 1816 c 0
 643.333333333 1816 609.833333333 1806.5 583.5 1787.5 c 128
 557.166666667 1768.5 544 1739.66666667 544 1701 c 0
163 -39 m 0
 147.666666667 -39 133 -32.5 119 -19.5 c 128
 105 -6.5 98.6666666667 8 100 24 c 0
 124 346 175.666666667 635.666666667 255 893 c 0
 334.333333333 1149 429 1318.66666667 539 1402 c 0
 584.333333333 1436 628.333333333 1453 671 1453 c 0
 792.333333333 1453 906 1319 1012 1051 c 0
 1104.66666667 815.666666667 1185.33333333 507 1254 125 c 2
 1270 37 l 2
 1270.66666667 33 1271 29.3333333333 1271 26 c 0
 1271 6 1263.83333333 -9.5 1249.5 -20.5 c 128
 1235.16666667 -31.5 1219.66666667 -37 1203 -37 c 0
 1189 -37 1176 -32.8333333333 1164 -24.5 c 128
 1152 -16.1666666667 1144.33333333 -3 1141 15 c 2
 1126 102 l 2
 1110.66666667 188 1094.66666667 270.166666667 1078 348.5 c 128
 1061.33333333 426.833333333 1044 501.333333333 1026 572 c 1
 309 572 l 1
 269.666666667 377.333333333 243.333333333 193.333333333 230 20 c 0
 228.666666667 2.66666666667 221.333333333 -11.5 208 -22.5 c 128
 194.666666667 -33.5 179.666666667 -39 163 -39 c 0
338 702 m 1
 992 702 l 1
 917.333333333 968 840 1151.33333333 760 1252 c 0
 741.333333333 1276 722.666666667 1293.33333333 704 1304 c 0
 686.666666667 1313.33333333 674 1317.66666667 666 1317 c 0
 623.333333333 1311.66666667 581.333333333 1278 540 1216 c 0
 460 1096 392.666666667 924.666666667 338 702 c 1
EndSplineSet
Validated: 524321
EndChar

StartChar: AE
Encoding: 198 198 141
Width: 2201
VWidth: 2048
GlyphClass: 2
Flags: W
LayerCount: 2
Fore
SplineSet
1833 774 m 0
 1862.33333333 774 1887.66666667 770.666666667 1909 764 c 128
 1930.33333333 757.333333333 1941 741 1941 715 c 0
 1941 699 1935.33333333 685 1924 673 c 128
 1912.66666667 661 1899.66666667 654.333333333 1885 653 c 2
 1150 657 l 1
 1148 462.333333333 1143 286.333333333 1135 129 c 1
 1347.66666667 129.666666667 1512.5 130.833333333 1629.5 132.5 c 128
 1746.5 134.166666667 1816 136 1838 138 c 0
 1860.66666667 140 1878.83333333 142 1892.5 144 c 128
 1906.16666667 146 1919 147 1931 147 c 0
 1949.66666667 147 1972.33333333 143.666666667 1999 137 c 1
 2019.66666667 127.666666667 2030 111 2030 87 c 0
 2030 73 2025.83333333 59.8333333333 2017.5 47.5 c 128
 2009.16666667 35.1666666667 1997.33333333 28 1982 26 c 0
 1838 14.6666666667 1661.66666667 8.66666666667 1453 8 c 0
 1371 8 1307.33333333 7.66666666667 1262 7 c 128
 1216.66666667 6.33333333333 1181.66666667 5.83333333333 1157 5.5 c 128
 1132.33333333 5.16666666667 1109.66666667 5 1089 5 c 0
 1087 5 1087 5 1085 5 c 0
 1031 5 1000.66666667 23 994 59 c 1
 999.333333333 180.333333333 1003.33333333 286.333333333 1006 377 c 128
 1008.66666667 467.666666667 1010.33333333 543 1011 603 c 1
 450 609 l 1
 416.666666667 543.666666667 388.666666667 484.666666667 366 432 c 128
 343.333333333 379.333333333 323.333333333 328 306 278 c 128
 288.666666667 228 270.666666667 173.666666667 252 115 c 0
 245.333333333 93 239.333333333 73.5 234 56.5 c 128
 228.666666667 39.5 223.666666667 24.6666666667 219 12 c 0
 207.666666667 -6.66666666667 191.333333333 -16 170 -16 c 0
 152.666666667 -16 136.666666667 -10 122 2 c 128
 107.333333333 14 100 29 100 47 c 0
 100 50 100 50 100 53 c 0
 153.333333333 262.333333333 236.333333333 477 349 697 c 0
 545.666666667 1073 781 1314 1055 1420 c 1
 1152.33333333 1430.66666667 1258.66666667 1436 1374 1436 c 0
 1481.33333333 1436 1596.66666667 1431.33333333 1720 1422 c 0
 1830.66666667 1414 1934.33333333 1393.33333333 2031 1360 c 1
 2045.66666667 1358 2061.16666667 1350.66666667 2077.5 1338 c 128
 2093.83333333 1325.33333333 2102 1310 2102 1292 c 0
 2102 1274.66666667 2094.83333333 1260.33333333 2080.5 1249 c 128
 2066.16666667 1237.66666667 2051.33333333 1232 2036 1232 c 0
 2022.66666667 1232 2008.66666667 1234.5 1994 1239.5 c 128
 1979.33333333 1244.5 1965.33333333 1250 1952 1256 c 0
 1867.33333333 1277.33333333 1782.5 1292 1697.5 1300 c 128
 1612.5 1308 1523.66666667 1312 1431 1312 c 0
 1386.33333333 1312 1340.33333333 1311.33333333 1293 1310 c 128
 1245.66666667 1308.66666667 1196.66666667 1307 1146 1305 c 1
 1148 1236.33333333 1149.33333333 1168 1150 1100 c 128
 1150.66666667 1032 1151 964 1151 896 c 0
 1151 840 1151 840 1151 779 c 1
 1166.33333333 779 1194.33333333 778.666666667 1235 778 c 128
 1275.66666667 777.333333333 1322.33333333 776.666666667 1375 776 c 128
 1427.66666667 775.333333333 1480.16666667 774.833333333 1532.5 774.5 c 128
 1584.83333333 774.166666667 1631 773.833333333 1671 773.5 c 128
 1711 773.166666667 1737.66666667 773 1751 773 c 0
 1765.66666667 773 1779.83333333 773.166666667 1793.5 773.5 c 128
 1807.16666667 773.833333333 1820.33333333 774 1833 774 c 0
1008 1256 m 1
 830 1156.66666667 667.666666667 984 521 738 c 1
 644 737 644 737 767 736 c 128
 849 735.333333333 930.666666667 734.333333333 1012 733 c 1
 1012 795 1012 795 1012 856 c 0
 1012 922 1011.66666667 988.5 1011 1055.5 c 128
 1010.33333333 1122.5 1009.33333333 1189.33333333 1008 1256 c 1
EndSplineSet
Validated: 524289
EndChar

StartChar: Ccedilla
Encoding: 199 199 142
Width: 1370
VWidth: 2048
GlyphClass: 2
Flags: W
LayerCount: 2
Fore
SplineSet
890 -264 m 0
 878 -264 866.5 -265 855.5 -267 c 128
 844.5 -269 832 -270 818 -270 c 0
 807.333333333 -270 795.5 -263.666666667 782.5 -251 c 128
 769.5 -238.333333333 763 -226.666666667 763 -216 c 0
 763 -210.666666667 763.166666667 -206.333333333 763.5 -203 c 128
 763.833333333 -199.666666667 764 -197.333333333 764 -196 c 2
 790 -20 l 1
 790 -19 l 1
 659.333333333 -16.3333333333 542 8.66666666667 438 56 c 128
 334 103.333333333 251.833333333 172 191.5 262 c 128
 131.166666667 352 101 462 101 592 c 0
 101 700.666666667 121.666666667 801.5 163 894.5 c 128
 204.333333333 987.5 258 1069.5 324 1140.5 c 128
 390 1211.5 459.666666667 1268.66666667 533 1312 c 0
 675 1395.33333333 829.333333333 1437 996 1437 c 0
 1063.33333333 1437 1132.66666667 1430.33333333 1204 1417 c 0
 1220 1413.66666667 1232.66666667 1405.66666667 1242 1393 c 128
 1251.33333333 1380.33333333 1256 1366.33333333 1256 1351 c 0
 1256 1333.66666667 1248.5 1318.16666667 1233.5 1304.5 c 128
 1218.5 1290.83333333 1200.66666667 1286 1180 1290 c 0
 1118 1302 1057.66666667 1308 999 1308 c 0
 854.333333333 1308 720.666666667 1272 598 1200 c 0
 536.666666667 1164 478 1115.83333333 422 1055.5 c 128
 366 995.166666667 320 925.833333333 284 847.5 c 128
 248 769.166666667 230 685 230 595 c 0
 230 486.333333333 255.666666667 396.166666667 307 324.5 c 128
 358.333333333 252.833333333 428.166666667 199.333333333 516.5 164 c 128
 604.833333333 128.666666667 704.666666667 111 816 111 c 0
 926.666666667 111 1051.33333333 127.333333333 1190 160 c 0
 1195.33333333 161.333333333 1200.66666667 162 1206 162 c 0
 1225.33333333 162 1240.66666667 154.833333333 1252 140.5 c 128
 1263.33333333 126.166666667 1269 110.666666667 1269 94 c 0
 1269 80.6666666667 1265 68.3333333333 1257 57 c 128
 1249 45.6666666667 1236.66666667 38 1220 34 c 0
 1166.66666667 21.3333333333 1114.83333333 10.8333333333 1064.5 2.5 c 128
 1014.16666667 -5.83333333333 965.666666667 -11.6666666667 919 -15 c 1
 919 -25 l 2
 919 -31.6666666667 918.666666667 -36 918 -38 c 2
 904 -136 l 1
 956.666666667 -139.333333333 999 -155.5 1031 -184.5 c 128
 1063 -213.5 1079 -253 1079 -303 c 0
 1079 -333.666666667 1072.33333333 -362 1059 -388 c 0
 1040.33333333 -423.333333333 1011 -453.666666667 971 -479 c 128
 931 -504.333333333 883.333333333 -517 828 -517 c 0
 766.666666667 -517 702.666666667 -496 636 -454 c 0
 615.333333333 -441.333333333 605 -424.333333333 605 -403 c 0
 605 -384.333333333 610.833333333 -368 622.5 -354 c 128
 634.166666667 -340 648.666666667 -333 666 -333 c 0
 681.333333333 -333 698.333333333 -339 717 -351 c 0
 729.666666667 -359 747.333333333 -367.5 770 -376.5 c 128
 792.666666667 -385.5 815.666666667 -390 839 -390 c 0
 863.666666667 -390 884.833333333 -383.666666667 902.5 -371 c 128
 920.166666667 -358.333333333 933 -344.666666667 941 -330 c 0
 947 -318 950 -307.666666667 950 -299 c 0
 950 -286.333333333 944.333333333 -277.333333333 933 -272 c 128
 921.666666667 -266.666666667 907.333333333 -264 890 -264 c 0
EndSplineSet
Validated: 524321
EndChar

